<svg width="153" height="51" viewBox="0 0 153 51" fill="none" xmlns="http://www.w3.org/2000/svg">
<path d="M23.7422 34.3421C23.7422 34.3421 24.457 35.0047 24.3265 35.3803C24.024 36.2411 22.6676 36.6428 21.7859 36.4028C20.3773 36.022 19.0939 34.4047 19.1043 32.9492C19.1252 30.8102 21.3112 29.0782 23.1267 27.9461C24.9944 26.7827 27.3733 26.4645 29.5749 26.501C31.9695 26.5427 34.531 26.9966 36.5395 28.3061C37.656 29.0365 38.5794 30.1894 39.0124 31.4519C39.2576 32.1667 39.0124 33.7213 39.0124 33.7213C39.0124 33.7213 40.9844 31.0033 41.6939 29.4903C42.5443 27.6905 43.7911 25.7915 43.5511 23.8195C43.4416 22.9169 42.8417 22.0353 42.1061 21.4979C39.7428 19.7763 36.5186 19.479 33.5971 19.385C30.5765 19.2859 27.5089 19.9276 24.6761 20.9814C22.7458 21.7014 20.8573 22.7135 19.3652 24.1273C17.6801 25.7185 16.0681 27.6592 15.4995 29.9025C15.129 31.358 15.2073 33.064 15.9116 34.3891C16.548 35.589 17.8001 36.4602 19.0574 36.9663C20.2886 37.4619 21.765 37.6862 23.0275 37.2741C23.8622 37.0028 25.01 36.4498 25.0413 35.5733C25.0726 34.29 23.7422 34.3421 23.7422 34.3421Z" fill="#0093DD"/>
<path d="M23.0429 35.1042C23.0429 35.1042 22.8551 34.5304 23.0168 34.3217C23.2777 33.9878 23.8568 33.8991 24.2585 34.0452C24.8323 34.2643 25.3488 34.9164 25.3488 35.5268C25.3488 36.3146 24.6602 37.0763 23.9559 37.4362C22.4221 38.2136 20.424 37.9945 18.7963 37.4362C17.419 36.9615 16.0678 36.0172 15.3427 34.7547C14.2888 32.9183 14.0437 30.5237 14.5184 28.463C15.0036 26.3554 16.5686 24.592 18.0764 23.0478C19.6988 21.3836 21.6604 19.975 23.7994 19.0777C26.2514 18.0499 28.9851 17.7734 31.6405 17.5804C33.9255 17.4187 36.2523 17.4656 38.5009 17.8882C39.9094 18.1543 41.3389 18.5508 42.5753 19.2811C43.0605 19.5681 43.8326 20.4184 43.8326 20.4184C43.8326 20.4184 43.4935 16.0779 42.8309 14.0224C42.257 12.2434 41.6519 10.3131 40.3059 9.01933C39.3512 8.10114 37.9895 7.64726 36.6957 7.37076C34.2385 6.84385 31.6353 6.97427 29.1677 7.41771C26.2827 7.93941 23.4968 9.06106 20.9092 10.4488C18.4885 11.7426 16.2086 13.3755 14.2627 15.311C12.6663 16.897 11.1638 18.676 10.2404 20.7262C9.31181 22.7922 8.83189 25.1137 8.84754 27.3779C8.85797 29.1934 9.23354 31.0611 10.0317 32.6888C10.7778 34.2121 11.9777 35.5216 13.282 36.6067C14.4193 37.551 15.7548 38.2866 17.1477 38.7666C18.4624 39.2152 19.8866 39.4709 21.2744 39.3926C22.8968 39.2987 24.7489 39.1735 25.9905 38.1197C26.7157 37.5041 27.2374 36.4659 27.1644 35.5216C27.1122 34.859 26.6374 34.2017 26.0687 33.847C25.4479 33.4609 24.6028 33.2261 23.8985 33.4139C23.2464 33.5913 22.6986 33.9409 22.6151 34.4834C22.5734 34.7495 23.0481 35.1042 23.0429 35.1042Z" fill="#00458E"/>
<path d="M23.2621 35.5641C23.2621 35.5641 22.2605 35.3606 21.9996 34.9902C21.624 34.4476 21.6501 33.6859 22.0205 33.1434C22.6257 32.2461 23.9195 31.9017 24.9994 31.86C26.8254 31.787 29.0582 32.1835 30.2007 33.6129C31.1502 34.8076 31.3432 36.8057 30.6546 38.1673C29.9607 39.5342 28.1661 40.0663 26.6949 40.5045C24.3995 41.1932 21.8796 41.2297 19.5111 40.8541C17.0644 40.468 14.675 39.5185 12.5621 38.2247C10.2302 36.8005 8.0964 34.938 6.48957 32.7312C4.76275 30.3679 3.47412 27.5925 2.86895 24.7336C2.32116 22.1408 2.39423 19.3862 2.92636 16.7881C3.53153 13.8458 4.70531 11.0495 6.37474 8.55052C7.64769 6.65153 9.35888 5.02905 11.2213 3.70394C12.896 2.51446 14.8211 1.67453 16.7722 1.01719C18.353 0.485057 20.012 0.11465 21.6814 0.0259616C23.7526 -0.083595 25.8498 0.161605 27.874 0.610265C29.5695 0.985888 31.2441 1.54932 32.7831 2.36317C34.5934 3.3231 37.7497 5.98376 37.7497 5.98376C37.7497 5.98376 31.3537 5.37337 28.2287 5.92637C24.5455 6.57849 20.9093 7.89839 17.7165 9.83911C15.3376 11.2842 13.2403 13.251 11.5239 15.4474C10.1518 17.2055 9.06153 19.2245 8.37289 21.3478C7.67381 23.5024 7.30339 25.8083 7.43903 28.0673C7.53294 29.5958 7.92942 31.1348 8.60763 32.5069C9.28062 33.879 10.2666 35.1206 11.4091 36.1275C12.9012 37.4317 14.6228 38.4438 16.4905 39.1064C17.993 39.6385 19.6259 39.8263 21.2223 39.8055C22.584 39.7898 24.0395 39.7272 25.255 39.1064C26.2724 38.5847 27.3627 37.8022 27.707 36.7118C27.9887 35.8249 27.8166 34.672 27.2114 33.9677C26.6115 33.2738 25.5211 33.0912 24.6029 33.0912C23.9299 33.0912 23.1734 33.2686 22.6883 33.7329C22.417 33.9937 22.2761 34.3276 22.3753 34.6876C22.4639 35.0945 23.2621 35.5693 23.2621 35.5641Z" fill="#28166F"/>
<path d="M12.2395 47.1257C12.2395 46.6666 12.1977 46.2649 12.109 45.9153C12.0204 45.5606 11.8534 45.2215 11.6029 44.9084C11.3525 44.5902 11.0448 44.3502 10.6744 44.1833C10.3092 44.0163 9.92307 43.9329 9.50571 43.9329C8.62404 43.9329 7.93018 44.2407 7.41891 44.8615C6.91287 45.4719 6.66248 46.2962 6.66248 47.3239C6.66248 48.3151 6.93379 49.0925 7.47114 49.6559C7.97718 50.1828 8.62408 50.4437 9.41706 50.4437C10.3666 50.4437 11.1021 50.0315 11.6291 49.2124C12.0308 48.5655 12.2395 47.8769 12.2395 47.1257ZM9.3805 50.7723C8.25885 50.7723 7.35635 50.4489 6.67292 49.802C5.99993 49.1498 5.66602 48.2786 5.66602 47.1987C5.66602 46.1136 6.02602 45.2371 6.74597 44.5641C7.43983 43.9172 8.32148 43.5938 9.40139 43.5938C10.45 43.5938 11.3265 43.865 12.0256 44.4128C12.8237 45.0389 13.2254 45.9153 13.2254 47.0474C13.2254 48.1638 12.8707 49.0664 12.156 49.755C11.4465 50.4332 10.5178 50.7723 9.3805 50.7723Z" fill="#00458E"/>
<path d="M21.0919 43.7552H21.3057C21.4466 45.096 21.5353 45.9151 21.5666 46.2177C21.6761 47.2089 21.7596 47.9758 21.8274 48.5288C21.9005 49.0713 21.9996 49.7861 22.1196 50.6573L21.6449 50.626L21.1702 50.6573C21.1075 49.9843 21.0501 49.3426 20.998 48.727C20.951 48.1166 20.8936 47.5115 20.8258 46.9115C20.7632 46.3116 20.7058 45.8264 20.6536 45.4455C20.2415 46.1864 19.8868 46.8333 19.5842 47.381C19.2346 48.028 18.9425 48.5862 18.7077 49.0557C18.4521 49.5722 18.2173 50.0678 18.0086 50.5373H17.8991L17.3461 49.3948C17.1061 48.8888 16.887 48.4557 16.6992 48.0906C16.5114 47.7202 16.2766 47.2715 16.0001 46.7498C15.7653 46.3116 15.5306 45.8733 15.301 45.4351C15.1863 46.395 15.0767 47.3706 14.9672 48.3514C14.8576 49.3322 14.8054 50.0991 14.8054 50.6417L14.4507 50.6104L14.0854 50.6417C14.2263 49.7652 14.4141 48.5236 14.6385 46.9167C14.868 45.2995 15.0036 44.2404 15.0506 43.7396H15.3114C15.661 44.4282 15.9479 44.9865 16.167 45.4247C16.4383 45.9412 16.7566 46.5359 17.1218 47.2089C17.5235 47.9445 17.873 48.5496 18.1599 49.0244C19.1303 47.2611 20.0954 45.4977 21.0658 43.7344L21.0919 43.7552ZM23.5856 50.6677V43.7657L24.0291 43.797L24.4725 43.7657V50.6677L24.0291 50.6364L23.5856 50.6677ZM32.2927 43.7552V50.6573H31.9902L31.4633 50.0417L27.1019 45.216H27.0027V50.6573L26.721 50.626L26.4393 50.6573V43.7552H26.8306L31.6249 48.9514H31.7241V43.7552L32.0058 43.7865L32.2927 43.7552ZM34.1865 50.6677V43.7657H37.7706L37.7392 44.0683L37.7706 44.3708C37.5671 44.3291 37.4054 44.303 37.275 44.2874C37.1446 44.2665 37.0089 44.2561 36.8628 44.2561L35.8559 44.2352H35.0786V46.7654H36.6437C36.7689 46.7654 36.9411 46.7602 37.1498 46.7446C37.3637 46.7237 37.4941 46.7133 37.541 46.7133L37.5097 46.9741L37.541 47.2558C37.4211 47.2558 37.2541 47.2506 37.035 47.235C36.8211 47.2141 36.6906 47.2037 36.6437 47.2037H35.0786V50.6573L34.6352 50.626L34.1865 50.6677Z" fill="#00458E"/>
<path d="M45.3245 47.1257C45.3245 46.6666 45.2828 46.2649 45.1941 45.9153C45.1054 45.5606 44.9385 45.2215 44.6881 44.9084C44.4376 44.5902 44.1298 44.3502 43.7594 44.1833C43.3942 44.0163 43.0082 43.9329 42.5908 43.9329C41.7091 43.9329 41.0153 44.2407 40.504 44.8615C39.998 45.4719 39.7476 46.2962 39.7476 47.3239C39.7476 48.3151 40.0188 49.0925 40.5562 49.6559C41.0622 50.1828 41.7091 50.4437 42.5021 50.4437C43.4516 50.4437 44.1872 50.0315 44.7142 49.2124C45.1211 48.5655 45.3245 47.8769 45.3245 47.1257ZM42.4708 50.7723C41.3492 50.7723 40.4466 50.4489 39.7632 49.802C39.0902 49.1498 38.7563 48.2786 38.7563 47.1987C38.7563 46.1136 39.1163 45.2371 39.8362 44.5641C40.5301 43.9172 41.4118 43.5938 42.4917 43.5938C43.5403 43.5938 44.4167 43.865 45.1158 44.4128C45.914 45.0389 46.3158 45.9153 46.3158 47.0474C46.3158 48.1638 45.961 49.0664 45.2462 49.755C44.5315 50.4332 43.6081 50.7723 42.4708 50.7723Z" fill="#00458E"/>
<path d="M4.95094 43.7533L2.66068 45.9548L1.80509 46.8208C2.61894 47.7495 3.43801 48.6729 4.25708 49.5963L5.07615 50.6032V50.6553L4.52315 50.624L3.9597 50.6553C3.85015 50.4988 3.73539 50.3475 3.6154 50.191C3.50062 50.0293 3.3806 49.878 3.26061 49.7319L1.05906 47.16C1.02776 47.1339 0.980808 47.1182 0.928638 47.1078C0.902553 47.113 0.886893 47.1234 0.886893 47.1286V50.6501L0.443463 50.6188L0 50.6501V43.748L0.443463 43.7793L0.886893 43.748V46.8678C0.89211 46.8939 0.923403 46.8991 0.975573 46.8887C1.03818 46.873 1.09557 46.8469 1.14774 46.8052C1.19991 46.7582 1.31469 46.6539 1.48164 46.4922C1.54424 46.4296 1.60684 46.3722 1.67466 46.3096L4.15795 43.748L4.55967 43.7793L4.95094 43.7533Z" fill="#00458E"/>
<path d="M124.25 45.0381H122.609C122.733 44.7029 122.861 44.3103 122.993 43.8603C123.134 43.4104 123.262 42.9252 123.377 42.4047C123.492 41.8842 123.584 41.3548 123.655 40.8167C123.734 40.2785 123.774 39.7668 123.774 39.2816C123.774 38.7964 123.734 38.2847 123.655 37.7466C123.584 37.2084 123.492 36.6747 123.377 36.1453C123.262 35.616 123.134 35.122 122.993 34.6632C122.861 34.1956 122.733 33.7942 122.609 33.459H124.25C124.4 33.7501 124.555 34.1118 124.713 34.5441C124.872 34.9764 125.018 35.4528 125.15 35.9733C125.291 36.485 125.402 37.0276 125.481 37.601C125.569 38.1656 125.613 38.7258 125.613 39.2816C125.613 39.8462 125.569 40.4109 125.481 40.9755C125.402 41.5313 125.291 42.065 125.15 42.5767C125.018 43.0884 124.872 43.556 124.713 43.9794C124.555 44.4029 124.4 44.7558 124.25 45.0381Z" fill="#00458E"/>
<path d="M115.824 43.4114V34.373H121.832V35.8949H117.65V38.0916H121.038V39.587H117.65V41.8896H121.832V43.4114H115.824Z" fill="#00458E"/>
<path d="M111.395 43.5575C111.059 43.5575 110.693 43.5355 110.296 43.4914C109.899 43.4561 109.511 43.412 109.132 43.359C108.761 43.2973 108.444 43.2444 108.179 43.2002L108.298 41.7578C108.572 41.7931 108.889 41.8328 109.251 41.8769C109.613 41.9122 109.97 41.9431 110.323 41.9696C110.684 41.996 110.998 42.0093 111.262 42.0093C111.598 42.0093 111.871 41.9651 112.083 41.8769C112.295 41.7887 112.449 41.6564 112.546 41.4799C112.652 41.2947 112.705 41.0609 112.705 40.7786C112.705 40.5492 112.656 40.3683 112.559 40.236C112.471 40.0948 112.308 39.9846 112.07 39.9052C111.831 39.8169 111.501 39.7331 111.077 39.6537C110.548 39.5567 110.093 39.442 109.714 39.3097C109.343 39.1773 109.039 39.0141 108.801 38.82C108.563 38.6171 108.386 38.3613 108.272 38.0525C108.166 37.7437 108.113 37.3688 108.113 36.9277C108.113 36.2395 108.241 35.7014 108.497 35.3132C108.752 34.9162 109.119 34.6339 109.595 34.4663C110.071 34.2987 110.632 34.2148 111.276 34.2148C111.567 34.2148 111.898 34.2325 112.268 34.2678C112.647 34.2942 113.018 34.3295 113.38 34.3736C113.75 34.4178 114.063 34.4663 114.319 34.5192L114.24 35.9749C113.975 35.9396 113.666 35.9087 113.313 35.8822C112.969 35.847 112.625 35.8161 112.281 35.7896C111.946 35.7631 111.659 35.7499 111.421 35.7499C111.095 35.7499 110.821 35.7852 110.601 35.8558C110.38 35.9263 110.217 36.0366 110.111 36.1866C110.005 36.3366 109.952 36.5263 109.952 36.7556C109.952 37.0203 110.005 37.2232 110.111 37.3644C110.217 37.5055 110.393 37.6202 110.64 37.7084C110.896 37.7967 111.245 37.8893 111.686 37.9863C112.206 38.101 112.647 38.2245 113.009 38.3569C113.38 38.4892 113.675 38.648 113.896 38.8333C114.125 39.0185 114.293 39.2567 114.399 39.5479C114.504 39.839 114.557 40.2051 114.557 40.6462C114.557 41.352 114.429 41.921 114.174 42.3533C113.927 42.7768 113.565 43.0856 113.089 43.2796C112.621 43.4649 112.056 43.5575 111.395 43.5575Z" fill="#00458E"/>
<path d="M100.613 43.4114V34.373H104.014C104.764 34.373 105.386 34.4789 105.88 34.6906C106.374 34.8936 106.744 35.2244 106.991 35.6831C107.247 36.1419 107.375 36.755 107.375 37.5226C107.375 38.2901 107.247 38.9165 106.991 39.4017C106.744 39.8781 106.374 40.231 105.88 40.4604C105.386 40.6809 104.764 40.7912 104.014 40.7912H102.439V43.4114H100.613ZM102.439 39.2958H103.961C104.517 39.2958 104.914 39.1503 105.152 38.8591C105.39 38.5592 105.509 38.1181 105.509 37.5358C105.509 36.9359 105.39 36.508 105.152 36.2522C104.914 35.9963 104.517 35.8684 103.961 35.8684H102.439V39.2958Z" fill="#00458E"/>
<path d="M90.3105 43.4117V36.7686H92.0706V37.1921C92.2117 37.1039 92.3838 37.02 92.5867 36.9406C92.7896 36.8524 93.0013 36.7774 93.2219 36.7157C93.4512 36.6539 93.6718 36.623 93.8835 36.623C94.3423 36.623 94.7216 36.6848 95.0216 36.8083C95.3304 36.923 95.573 37.1127 95.7494 37.3773C95.9259 37.642 96.0538 37.9905 96.1332 38.4228C96.2126 38.8462 96.2523 39.3623 96.2523 39.9711V43.4117H94.479V40.0637C94.479 39.6049 94.4526 39.2388 94.3996 38.9653C94.3467 38.683 94.2452 38.4801 94.0953 38.3566C93.9453 38.2331 93.7247 38.1713 93.4336 38.1713C93.2748 38.1713 93.1072 38.189 92.9307 38.2243C92.7631 38.2507 92.5999 38.2904 92.4411 38.3434C92.2911 38.3963 92.1676 38.4492 92.0706 38.5022V43.4117H90.3105Z" fill="#00458E"/>
<path d="M85.1177 43.5573C84.4295 43.5573 83.909 43.3853 83.5561 43.0412C83.2121 42.6883 83.04 42.159 83.04 41.4532C83.04 40.9592 83.1283 40.5754 83.3047 40.3019C83.4811 40.0196 83.7414 39.8167 84.0855 39.6932C84.4384 39.5608 84.8662 39.4814 85.3691 39.455L86.9836 39.3094V38.9124C86.9836 38.5948 86.9042 38.3742 86.7454 38.2507C86.5866 38.1184 86.3528 38.0522 86.044 38.0522C85.797 38.0522 85.5103 38.0611 85.1838 38.0787C84.8662 38.0964 84.5486 38.1184 84.231 38.1449C83.9223 38.1713 83.6532 38.1978 83.4238 38.2243L83.3709 36.9803C83.6002 36.9274 83.8737 36.8745 84.1913 36.8215C84.5178 36.7598 84.8574 36.7113 85.2103 36.676C85.5632 36.6407 85.8896 36.623 86.1896 36.623C86.7542 36.623 87.2262 36.6936 87.6055 36.8348C87.9849 36.9759 88.2716 37.2097 88.4657 37.5361C88.6598 37.8537 88.7568 38.286 88.7568 38.833V41.8634C88.7745 41.9869 88.8406 42.084 88.9553 42.1546C89.07 42.2163 89.2023 42.2604 89.3523 42.2869L89.3126 43.5044C89.1715 43.5044 89.0303 43.5044 88.8891 43.5044C88.7568 43.5132 88.6289 43.5132 88.5054 43.5044C88.3819 43.5044 88.2716 43.4955 88.1746 43.4779C87.9716 43.4514 87.7952 43.3985 87.6452 43.3191C87.5041 43.2397 87.3894 43.1559 87.3012 43.0677C87.16 43.1294 86.9703 43.2 86.7321 43.2794C86.4939 43.3588 86.2337 43.425 85.9514 43.4779C85.6779 43.5308 85.4 43.5573 85.1177 43.5573ZM85.5411 42.2472C85.7087 42.2472 85.8852 42.2295 86.0705 42.1943C86.2557 42.159 86.4278 42.1193 86.5866 42.0752C86.7542 42.0222 86.8865 41.9737 86.9836 41.9296V40.4078L85.6338 40.5269C85.3426 40.5533 85.1309 40.6416 84.9986 40.7915C84.8751 40.9327 84.8133 41.1356 84.8133 41.4003C84.8133 41.6649 84.8706 41.8722 84.9853 42.0222C85.1088 42.1722 85.2941 42.2472 85.5411 42.2472Z" fill="#00458E"/>
<path d="M74.0214 43.4107L72.751 36.7676H74.6301L75.4903 41.9153H75.6888L76.7607 36.9131H78.4545L79.5661 41.9153H79.7646L80.6248 36.7676H82.3848L81.1541 43.4107H78.4942L77.5547 39.1363L76.6151 43.4107H74.0214Z" fill="#00458E"/>
<path d="M68.9384 43.5573C68.1885 43.5573 67.5842 43.4338 67.1254 43.1868C66.6755 42.9397 66.3491 42.5604 66.1462 42.0487C65.9433 41.5282 65.8418 40.8577 65.8418 40.0372C65.8418 39.2432 65.9477 38.5992 66.1594 38.1052C66.3711 37.6023 66.7064 37.2318 67.1651 36.9936C67.6239 36.7466 68.215 36.623 68.9384 36.623C69.6706 36.623 70.2617 36.7466 70.7116 36.9936C71.1704 37.2318 71.5056 37.6023 71.7174 38.1052C71.9379 38.5992 72.0482 39.2432 72.0482 40.0372C72.0482 40.8577 71.9468 41.5282 71.7438 42.0487C71.5409 42.5604 71.2101 42.9397 70.7513 43.1868C70.3014 43.4338 69.6971 43.5573 68.9384 43.5573ZM68.9384 42.1016C69.3089 42.1016 69.5868 42.0355 69.7721 41.9031C69.9573 41.762 70.0809 41.5414 70.1426 41.2415C70.2132 40.9327 70.2485 40.5313 70.2485 40.0372C70.2485 39.552 70.2088 39.1682 70.1294 38.8859C70.05 38.5948 69.9176 38.3875 69.7324 38.264C69.5471 38.1405 69.2825 38.0787 68.9384 38.0787C68.6031 38.0787 68.3385 38.1405 68.1444 38.264C67.9591 38.3875 67.8268 38.5948 67.7474 38.8859C67.668 39.1682 67.6283 39.552 67.6283 40.0372C67.6283 40.5313 67.6592 40.9327 67.7209 41.2415C67.7915 41.5414 67.9194 41.762 68.1047 41.9031C68.29 42.0355 68.5679 42.1016 68.9384 42.1016Z" fill="#00458E"/>
<path d="M61.757 43.5575C61.4217 43.5575 61.0556 43.5355 60.6586 43.4914C60.2616 43.4561 59.8734 43.412 59.4941 43.359C59.1235 43.2973 58.8059 43.2444 58.5413 43.2002L58.6604 41.7578C58.9339 41.7931 59.2515 41.8328 59.6132 41.8769C59.9749 41.9122 60.3322 41.9431 60.6851 41.9696C61.0468 41.996 61.36 42.0093 61.6246 42.0093C61.9599 42.0093 62.2334 41.9651 62.4451 41.8769C62.6568 41.7887 62.8112 41.6564 62.9082 41.4799C63.0141 41.2947 63.067 41.0609 63.067 40.7786C63.067 40.5492 63.0185 40.3683 62.9215 40.236C62.8333 40.0948 62.67 39.9846 62.4318 39.9052C62.1937 39.8169 61.8628 39.7331 61.4394 39.6537C60.91 39.5567 60.4557 39.442 60.0763 39.3097C59.7058 39.1773 59.4014 39.0141 59.1632 38.82C58.925 38.6171 58.7486 38.3613 58.6339 38.0525C58.528 37.7437 58.4751 37.3688 58.4751 36.9277C58.4751 36.2395 58.603 35.7014 58.8589 35.3132C59.1147 34.9162 59.4808 34.6339 59.9572 34.4663C60.4336 34.2987 60.9938 34.2148 61.6379 34.2148C61.929 34.2148 62.2598 34.2325 62.6303 34.2678C63.0097 34.2942 63.3802 34.3295 63.7419 34.3736C64.1125 34.4178 64.4257 34.4663 64.6815 34.5192L64.6021 35.9749C64.3374 35.9396 64.0287 35.9087 63.6758 35.8822C63.3317 35.847 62.9876 35.8161 62.6436 35.7896C62.3083 35.7631 62.0216 35.7499 61.7834 35.7499C61.457 35.7499 61.1835 35.7852 60.963 35.8558C60.7424 35.9263 60.5792 36.0366 60.4733 36.1866C60.3675 36.3366 60.3145 36.5263 60.3145 36.7556C60.3145 37.0203 60.3675 37.2232 60.4733 37.3644C60.5792 37.5055 60.7556 37.6202 61.0027 37.7084C61.2585 37.7967 61.607 37.8893 62.0481 37.9863C62.5686 38.101 63.0097 38.2245 63.3714 38.3569C63.7419 38.4892 64.0375 38.648 64.258 38.8333C64.4874 39.0185 64.655 39.2567 64.7609 39.5479C64.8668 39.839 64.9197 40.2051 64.9197 40.6462C64.9197 41.352 64.7918 41.921 64.5359 42.3533C64.2889 42.7768 63.9272 43.0856 63.4508 43.2796C62.9832 43.4649 62.4186 43.5575 61.757 43.5575Z" fill="#00458E"/>
<path d="M56.0261 45.0655C55.8761 44.792 55.7217 44.4479 55.5629 44.0333C55.4041 43.6274 55.2542 43.1775 55.113 42.6835C54.9807 42.1806 54.8704 41.6557 54.7822 41.1087C54.7028 40.5529 54.6631 39.9927 54.6631 39.4281C54.6631 38.8635 54.7028 38.2944 54.7822 37.721C54.8704 37.1475 54.9807 36.5961 55.113 36.0668C55.2542 35.5375 55.4041 35.0523 55.5629 34.6112C55.7217 34.1612 55.8761 33.7863 56.0261 33.4863H57.667C57.5435 33.8304 57.4112 34.2406 57.27 34.717C57.1377 35.1934 57.0142 35.7007 56.8995 36.2389C56.7848 36.777 56.6878 37.3196 56.6084 37.8665C56.5378 38.4135 56.5025 38.934 56.5025 39.4281C56.5025 39.9133 56.5378 40.4206 56.6084 40.9499C56.6878 41.4704 56.7848 41.9865 56.8995 42.4982C57.0142 43.0099 57.1377 43.4863 57.27 43.9274C57.4112 44.3685 57.5435 44.7479 57.667 45.0655H56.0261Z" fill="#00458E"/>
<path d="M146.671 29.3508V20.3125H152.679V21.8343H148.497V24.0311H151.885V25.5264H148.497V27.829H152.679V29.3508H146.671Z" fill="#00458E"/>
<path d="M142.242 29.497C141.907 29.497 141.541 29.4749 141.144 29.4308C140.747 29.3955 140.359 29.3514 139.979 29.2985C139.609 29.2367 139.291 29.1838 139.027 29.1397L139.146 27.6973C139.419 27.7326 139.737 27.7723 140.099 27.8164C140.46 27.8517 140.818 27.8825 141.17 27.909C141.532 27.9355 141.845 27.9487 142.11 27.9487C142.445 27.9487 142.719 27.9046 142.93 27.8164C143.142 27.7281 143.297 27.5958 143.394 27.4194C143.499 27.2341 143.552 27.0003 143.552 26.718C143.552 26.4886 143.504 26.3078 143.407 26.1754C143.319 26.0343 143.155 25.924 142.917 25.8446C142.679 25.7564 142.348 25.6726 141.925 25.5932C141.395 25.4961 140.941 25.3814 140.562 25.2491C140.191 25.1168 139.887 24.9536 139.649 24.7595C139.41 24.5566 139.234 24.3007 139.119 23.992C139.013 23.6832 138.96 23.3082 138.96 22.8671C138.96 22.179 139.088 21.6408 139.344 21.2527C139.6 20.8557 139.966 20.5734 140.443 20.4057C140.919 20.2381 141.479 20.1543 142.123 20.1543C142.414 20.1543 142.745 20.1719 143.116 20.2072C143.495 20.2337 143.866 20.269 144.227 20.3131C144.598 20.3572 144.911 20.4057 145.167 20.4587L145.087 21.9143C144.823 21.879 144.514 21.8482 144.161 21.8217C143.817 21.7864 143.473 21.7555 143.129 21.7291C142.794 21.7026 142.507 21.6894 142.269 21.6894C141.942 21.6894 141.669 21.7246 141.448 21.7952C141.228 21.8658 141.065 21.9761 140.959 22.1261C140.853 22.276 140.8 22.4657 140.8 22.6951C140.8 22.9598 140.853 23.1627 140.959 23.3038C141.065 23.445 141.241 23.5597 141.488 23.6479C141.744 23.7361 142.092 23.8287 142.533 23.9258C143.054 24.0405 143.495 24.164 143.857 24.2963C144.227 24.4286 144.523 24.5874 144.743 24.7727C144.973 24.958 145.14 25.1962 145.246 25.4873C145.352 25.7784 145.405 26.1446 145.405 26.5857C145.405 27.2914 145.277 27.8605 145.021 28.2928C144.774 28.7162 144.413 29.025 143.936 29.2191C143.469 29.4044 142.904 29.497 142.242 29.497Z" fill="#00458E"/>
<path d="M131.46 29.3508V20.3125H134.861C135.611 20.3125 136.233 20.4184 136.727 20.6301C137.221 20.833 137.592 21.1638 137.839 21.6226C138.095 22.0813 138.223 22.6945 138.223 23.462C138.223 24.2296 138.095 24.8559 137.839 25.3411C137.592 25.8175 137.221 26.1704 136.727 26.3998C136.233 26.6204 135.611 26.7306 134.861 26.7306H133.287V29.3508H131.46ZM133.287 25.2353H134.808C135.364 25.2353 135.761 25.0897 135.999 24.7986C136.238 24.4986 136.357 24.0575 136.357 23.4753C136.357 22.8753 136.238 22.4475 135.999 22.1916C135.761 21.9358 135.364 21.8079 134.808 21.8079H133.287V25.2353Z" fill="#00458E"/>
<path d="M121.158 29.3512V22.7081H122.918V23.1315C123.059 23.0433 123.231 22.9595 123.434 22.8801C123.637 22.7919 123.849 22.7169 124.07 22.6551C124.299 22.5934 124.519 22.5625 124.731 22.5625C125.19 22.5625 125.569 22.6243 125.869 22.7478C126.178 22.8625 126.421 23.0521 126.597 23.3168C126.774 23.5815 126.901 23.9299 126.981 24.3622C127.06 24.7857 127.1 25.3018 127.1 25.9105V29.3512H125.327V26.0032C125.327 25.5444 125.3 25.1783 125.247 24.9048C125.194 24.6225 125.093 24.4196 124.943 24.2961C124.793 24.1725 124.572 24.1108 124.281 24.1108C124.122 24.1108 123.955 24.1284 123.778 24.1637C123.611 24.1902 123.448 24.2299 123.289 24.2828C123.139 24.3358 123.015 24.3887 122.918 24.4416V29.3512H121.158Z" fill="#00458E"/>
<path d="M115.965 29.4967C115.277 29.4967 114.757 29.3247 114.404 28.9806C114.06 28.6278 113.888 28.0984 113.888 27.3926C113.888 26.8986 113.976 26.5148 114.152 26.2414C114.329 25.959 114.589 25.7561 114.933 25.6326C115.286 25.5003 115.714 25.4209 116.217 25.3944L117.831 25.2489V24.8519C117.831 24.5343 117.752 24.3137 117.593 24.1902C117.434 24.0579 117.2 23.9917 116.892 23.9917C116.645 23.9917 116.358 24.0005 116.031 24.0182C115.714 24.0358 115.396 24.0579 115.079 24.0843C114.77 24.1108 114.501 24.1373 114.271 24.1637L114.219 22.9198C114.448 22.8669 114.721 22.8139 115.039 22.761C115.365 22.6992 115.705 22.6507 116.058 22.6154C116.411 22.5801 116.737 22.5625 117.037 22.5625C117.602 22.5625 118.074 22.6331 118.453 22.7742C118.833 22.9154 119.119 23.1492 119.313 23.4756C119.507 23.7932 119.604 24.2255 119.604 24.7725V27.8029C119.622 27.9264 119.688 28.0234 119.803 28.094C119.918 28.1558 120.05 28.1999 120.2 28.2263L120.16 29.4438C120.019 29.4438 119.878 29.4438 119.737 29.4438C119.604 29.4526 119.477 29.4526 119.353 29.4438C119.23 29.4438 119.119 29.435 119.022 29.4173C118.819 29.3909 118.643 29.3379 118.493 29.2585C118.352 29.1791 118.237 29.0953 118.149 29.0071C118.008 29.0689 117.818 29.1394 117.58 29.2188C117.342 29.2982 117.081 29.3644 116.799 29.4173C116.526 29.4703 116.248 29.4967 115.965 29.4967ZM116.389 28.1866C116.556 28.1866 116.733 28.169 116.918 28.1337C117.103 28.0984 117.275 28.0587 117.434 28.0146C117.602 27.9617 117.734 27.9132 117.831 27.869V26.3472L116.481 26.4663C116.19 26.4928 115.979 26.581 115.846 26.731C115.723 26.8721 115.661 27.0751 115.661 27.3397C115.661 27.6044 115.718 27.8117 115.833 27.9617C115.957 28.1117 116.142 28.1866 116.389 28.1866Z" fill="#00458E"/>
<path d="M110.346 29.4967C110.055 29.4967 109.742 29.4791 109.406 29.4438C109.08 29.4173 108.771 29.3821 108.48 29.3379C108.198 29.2938 107.955 29.2497 107.752 29.2056L107.805 27.8955C108.035 27.922 108.29 27.9529 108.573 27.9881C108.864 28.0234 109.146 28.0543 109.42 28.0808C109.702 28.0984 109.931 28.1072 110.108 28.1072C110.372 28.1072 110.589 28.0852 110.756 28.0411C110.933 27.997 111.065 27.9264 111.153 27.8293C111.241 27.7235 111.285 27.5735 111.285 27.3794C111.285 27.2294 111.246 27.1148 111.166 27.0354C111.096 26.956 110.955 26.8898 110.743 26.8368C110.54 26.7751 110.24 26.7133 109.843 26.6516C109.349 26.581 108.939 26.4796 108.612 26.3472C108.295 26.2149 108.061 26.0208 107.911 25.765C107.761 25.5003 107.686 25.143 107.686 24.6931C107.686 24.1461 107.805 23.7182 108.043 23.4094C108.282 23.1007 108.599 22.8845 108.996 22.761C109.393 22.6287 109.825 22.5625 110.293 22.5625C110.602 22.5625 110.919 22.5801 111.246 22.6154C111.572 22.6419 111.881 22.6772 112.172 22.7213C112.463 22.7654 112.706 22.8095 112.9 22.8536L112.847 24.1902C112.626 24.1549 112.371 24.124 112.079 24.0976C111.788 24.0623 111.497 24.0358 111.206 24.0182C110.924 24.0005 110.686 23.9917 110.491 23.9917C110.289 23.9917 110.108 24.0138 109.949 24.0579C109.79 24.0932 109.667 24.1549 109.578 24.2431C109.499 24.3313 109.459 24.4637 109.459 24.6401C109.459 24.7636 109.495 24.8651 109.565 24.9445C109.636 25.0239 109.768 25.0945 109.962 25.1562C110.165 25.2092 110.456 25.2621 110.836 25.315C111.383 25.3944 111.819 25.5047 112.146 25.6459C112.472 25.787 112.706 25.9899 112.847 26.2546C112.997 26.5193 113.072 26.8766 113.072 27.3265C113.072 27.8558 112.966 28.2793 112.754 28.5969C112.543 28.9145 112.234 29.1439 111.828 29.285C111.422 29.4262 110.928 29.4967 110.346 29.4967Z" fill="#00458E"/>
<path d="M102.758 29.4967C102.07 29.4967 101.549 29.3247 101.196 28.9806C100.852 28.6278 100.68 28.0984 100.68 27.3926C100.68 26.8986 100.768 26.5148 100.945 26.2414C101.121 25.959 101.382 25.7561 101.726 25.6326C102.078 25.5003 102.506 25.4209 103.009 25.3944L104.624 25.2489V24.8519C104.624 24.5343 104.544 24.3137 104.385 24.1902C104.227 24.0579 103.993 23.9917 103.684 23.9917C103.437 23.9917 103.15 24.0005 102.824 24.0182C102.506 24.0358 102.189 24.0579 101.871 24.0843C101.562 24.1108 101.293 24.1373 101.064 24.1637L101.011 22.9198C101.24 22.8669 101.514 22.8139 101.831 22.761C102.158 22.6992 102.498 22.6507 102.85 22.6154C103.203 22.5801 103.53 22.5625 103.83 22.5625C104.394 22.5625 104.866 22.6331 105.246 22.7742C105.625 22.9154 105.912 23.1492 106.106 23.4756C106.3 23.7932 106.397 24.2255 106.397 24.7725V27.8029C106.415 27.9264 106.481 28.0234 106.595 28.094C106.71 28.1558 106.842 28.1999 106.992 28.2263L106.953 29.4438C106.812 29.4438 106.67 29.4438 106.529 29.4438C106.397 29.4526 106.269 29.4526 106.146 29.4438C106.022 29.4438 105.912 29.435 105.815 29.4173C105.612 29.3909 105.435 29.3379 105.285 29.2585C105.144 29.1791 105.03 29.0953 104.941 29.0071C104.8 29.0689 104.61 29.1394 104.372 29.2188C104.134 29.2982 103.874 29.3644 103.591 29.4173C103.318 29.4703 103.04 29.4967 102.758 29.4967ZM103.181 28.1866C103.349 28.1866 103.525 28.169 103.711 28.1337C103.896 28.0984 104.068 28.0587 104.227 28.0146C104.394 27.9617 104.527 27.9132 104.624 27.869V26.3472L103.274 26.4663C102.983 26.4928 102.771 26.581 102.639 26.731C102.515 26.8721 102.453 27.0751 102.453 27.3397C102.453 27.6044 102.511 27.8117 102.625 27.9617C102.749 28.1117 102.934 28.1866 103.181 28.1866Z" fill="#00458E"/>
<path d="M91.6615 29.3501L90.3911 22.707H92.2702L93.1304 27.8548H93.3289L94.4008 22.8526H96.0947L97.2063 27.8548H97.4048L98.2649 22.707H100.025L98.7942 29.3501H96.1344L95.1948 25.0758L94.2552 29.3501H91.6615Z" fill="#00458E"/>
<path d="M85.7378 29.4967C85.0497 29.4967 84.5291 29.3247 84.1763 28.9806C83.8322 28.6278 83.6602 28.0984 83.6602 27.3926C83.6602 26.8986 83.7484 26.5148 83.9248 26.2414C84.1013 25.959 84.3615 25.7561 84.7056 25.6326C85.0585 25.5003 85.4863 25.4209 85.9892 25.3944L87.6037 25.2489V24.8519C87.6037 24.5343 87.5243 24.3137 87.3655 24.1902C87.2067 24.0579 86.9729 23.9917 86.6641 23.9917C86.4171 23.9917 86.1304 24.0005 85.8039 24.0182C85.4863 24.0358 85.1687 24.0579 84.8512 24.0843C84.5424 24.1108 84.2733 24.1373 84.0439 24.1637L83.991 22.9198C84.2204 22.8669 84.4939 22.8139 84.8115 22.761C85.1379 22.6992 85.4775 22.6507 85.8304 22.6154C86.1833 22.5801 86.5097 22.5625 86.8097 22.5625C87.3743 22.5625 87.8463 22.6331 88.2256 22.7742C88.605 22.9154 88.8917 23.1492 89.0858 23.4756C89.2799 23.7932 89.3769 24.2255 89.3769 24.7725V27.8029C89.3946 27.9264 89.4607 28.0234 89.5754 28.094C89.6901 28.1558 89.8225 28.1999 89.9724 28.2263L89.9327 29.4438C89.7916 29.4438 89.6504 29.4438 89.5093 29.4438C89.3769 29.4526 89.249 29.4526 89.1255 29.4438C89.002 29.4438 88.8917 29.435 88.7947 29.4173C88.5918 29.3909 88.4153 29.3379 88.2653 29.2585C88.1242 29.1791 88.0095 29.0953 87.9213 29.0071C87.7801 29.0689 87.5904 29.1394 87.3522 29.2188C87.114 29.2982 86.8538 29.3644 86.5715 29.4173C86.298 29.4703 86.0201 29.4967 85.7378 29.4967ZM86.1612 28.1866C86.3289 28.1866 86.5053 28.169 86.6906 28.1337C86.8758 28.0984 87.0479 28.0587 87.2067 28.0146C87.3743 27.9617 87.5066 27.9132 87.6037 27.869V26.3472L86.2539 26.4663C85.9627 26.4928 85.751 26.581 85.6187 26.731C85.4952 26.8721 85.4334 27.0751 85.4334 27.3397C85.4334 27.6044 85.4908 27.8117 85.6054 27.9617C85.729 28.1117 85.9142 28.1866 86.1612 28.1866Z" fill="#00458E"/>
<path d="M79.8728 32.3816C79.167 32.3816 78.576 32.3287 78.0996 32.2228C77.632 32.1169 77.2791 31.9228 77.0409 31.6405C76.8027 31.367 76.6836 30.97 76.6836 30.4495C76.6836 30.2202 76.7145 30.0128 76.7762 29.8276C76.8468 29.6511 76.9527 29.4835 77.0938 29.3247C77.2438 29.1659 77.4291 29.0027 77.6496 28.8351C77.5261 28.7469 77.4247 28.6189 77.3453 28.4513C77.2747 28.2749 77.2394 28.0852 77.2394 27.8823C77.2394 27.8117 77.2703 27.7191 77.332 27.6044C77.3938 27.4809 77.4688 27.3529 77.557 27.2206C77.6452 27.0883 77.729 26.9692 77.8084 26.8633C77.632 26.7839 77.4644 26.6692 77.3056 26.5193C77.1468 26.3605 77.0144 26.1487 76.9086 25.8841C76.8115 25.6194 76.763 25.2797 76.763 24.8651C76.763 24.3005 76.8689 23.8505 77.0806 23.5153C77.3011 23.1801 77.6187 22.9374 78.0334 22.7875C78.448 22.6375 78.9509 22.5625 79.542 22.5625C79.7714 22.5625 80.0184 22.5801 80.283 22.6154C80.5477 22.6507 80.7594 22.686 80.9182 22.7213L83.0753 22.6816V23.8726L82.0695 23.8594C82.1489 23.9652 82.2195 24.102 82.2813 24.2696C82.3518 24.4284 82.3871 24.6269 82.3871 24.8651C82.3871 25.4738 82.2813 25.9458 82.0695 26.2811C81.8666 26.6163 81.5579 26.8501 81.1432 26.9824C80.7286 27.1059 80.2036 27.1677 79.5684 27.1677C79.4979 27.1677 79.4008 27.1633 79.2773 27.1544C79.1538 27.1368 79.0524 27.1236 78.973 27.1147C78.9377 27.203 78.9024 27.3044 78.8671 27.4191C78.8318 27.525 78.8142 27.6 78.8142 27.6441C78.8142 27.7411 78.8318 27.8161 78.8671 27.869C78.9112 27.922 78.9862 27.9661 79.0921 28.0014C79.2067 28.0278 79.3699 28.0455 79.5817 28.0543C79.8022 28.0631 80.0934 28.0675 80.4551 28.0675C81.0815 28.0675 81.5799 28.1249 81.9504 28.2396C82.3298 28.3543 82.5989 28.5572 82.7577 28.8483C82.9165 29.1394 82.9959 29.5497 82.9959 30.079C82.9959 30.8642 82.718 31.442 82.1622 31.8126C81.6152 32.1919 80.8521 32.3816 79.8728 32.3816ZM79.7802 31.0715C80.3272 31.0715 80.7197 31.0053 80.9579 30.873C81.205 30.7495 81.3285 30.5422 81.3285 30.251C81.3285 30.0217 81.2844 29.854 81.1961 29.7482C81.1167 29.6423 80.98 29.5717 80.7859 29.5364C80.5918 29.51 80.3272 29.4967 79.9919 29.4967C79.9037 29.4967 79.7978 29.4923 79.6743 29.4835C79.5508 29.4835 79.4229 29.4791 79.2906 29.4703C79.167 29.4703 79.0524 29.4659 78.9465 29.457C78.8494 29.4482 78.7789 29.4438 78.7348 29.4438C78.6112 29.532 78.5098 29.6158 78.4304 29.6952C78.3598 29.7746 78.3069 29.854 78.2716 29.9334C78.2451 30.0217 78.2319 30.1275 78.2319 30.251C78.2319 30.4539 78.2804 30.6127 78.3775 30.7274C78.4745 30.8509 78.6333 30.9392 78.8539 30.9921C79.0832 31.045 79.392 31.0715 79.7802 31.0715ZM79.5552 25.9238C79.961 25.9238 80.2478 25.8444 80.4154 25.6856C80.5918 25.5179 80.68 25.2444 80.68 24.8651C80.68 24.4857 80.5918 24.2122 80.4154 24.0446C80.2478 23.877 79.961 23.7932 79.5552 23.7932C79.167 23.7932 78.8847 23.877 78.7083 24.0446C78.5407 24.2122 78.4569 24.4857 78.4569 24.8651C78.4569 25.2444 78.5407 25.5179 78.7083 25.6856C78.8847 25.8444 79.167 25.9238 79.5552 25.9238Z" fill="#00458E"/>
<path d="M69.6338 29.3512V22.7081H71.3938V23.1315C71.535 23.0433 71.707 22.9595 71.9099 22.8801C72.1128 22.7919 72.3246 22.7169 72.5451 22.6551C72.7745 22.5934 72.995 22.5625 73.2068 22.5625C73.6655 22.5625 74.0449 22.6243 74.3448 22.7478C74.6536 22.8625 74.8962 23.0521 75.0727 23.3168C75.2491 23.5815 75.377 23.9299 75.4564 24.3622C75.5358 24.7857 75.5755 25.3018 75.5755 25.9105V29.3512H73.8023V26.0032C73.8023 25.5444 73.7758 25.1783 73.7229 24.9048C73.6699 24.6225 73.5685 24.4196 73.4185 24.2961C73.2685 24.1725 73.048 24.1108 72.7568 24.1108C72.598 24.1108 72.4304 24.1284 72.254 24.1637C72.0864 24.1902 71.9231 24.2299 71.7643 24.2828C71.6144 24.3358 71.4909 24.3887 71.3938 24.4416V29.3512H69.6338Z" fill="#00458E"/>
<path d="M65.3934 29.4967C64.6611 29.4967 64.0788 29.3732 63.6466 29.1262C63.2231 28.8792 62.9187 28.5042 62.7335 28.0014C62.5482 27.4985 62.4556 26.8677 62.4556 26.109C62.4556 25.2886 62.5703 24.6181 62.7996 24.0976C63.0378 23.5771 63.3819 23.1933 63.8318 22.9463C64.2818 22.6904 64.8376 22.5625 65.4992 22.5625C66.4785 22.5625 67.2151 22.8095 67.7092 23.3036C68.212 23.7976 68.4635 24.5784 68.4635 25.6459L68.3841 26.6251H64.2288C64.2376 27.1192 64.3391 27.4897 64.5332 27.7367C64.7273 27.9837 65.0625 28.1072 65.5389 28.1072C65.8124 28.1072 66.1124 28.1028 66.4388 28.094C66.7652 28.0764 67.0872 28.0587 67.4048 28.0411C67.7312 28.0234 68.0091 28.0058 68.2385 27.9881L68.2782 29.2188C68.0577 29.2541 67.7798 29.2938 67.4445 29.3379C67.1093 29.3821 66.7608 29.4173 66.3991 29.4438C66.0462 29.4791 65.711 29.4967 65.3934 29.4967ZM64.2288 25.5003H66.7035C66.7035 24.9004 66.6064 24.4813 66.4123 24.2431C66.2271 24.0049 65.9227 23.8858 65.4992 23.8858C65.2169 23.8858 64.9831 23.9388 64.7979 24.0446C64.6126 24.1505 64.4714 24.3225 64.3744 24.5607C64.2773 24.7989 64.2288 25.1121 64.2288 25.5003Z" fill="#00458E"/>
<path d="M55.0073 29.3508V20.3125H58.4083C59.1582 20.3125 59.7801 20.4184 60.2742 20.6301C60.7682 20.833 61.1387 21.1638 61.3858 21.6226C61.6416 22.0813 61.7695 22.6945 61.7695 23.462C61.7695 24.2296 61.6416 24.8559 61.3858 25.3411C61.1387 25.8175 60.7682 26.1704 60.2742 26.3998C59.7801 26.6204 59.1582 26.7306 58.4083 26.7306H56.8335V29.3508H55.0073ZM56.8335 25.2353H58.3553C58.9111 25.2353 59.3081 25.0897 59.5463 24.7986C59.7845 24.4986 59.9036 24.0575 59.9036 23.4753C59.9036 22.8753 59.7845 22.4475 59.5463 22.1916C59.3081 21.9358 58.9111 21.8079 58.3553 21.8079H56.8335V25.2353Z" fill="#00458E"/>
<path d="M149.046 15.2904V8.64734H150.806V15.2904H149.046ZM149.046 7.58867V6.08008H150.82V7.58867H149.046Z" fill="#00458E"/>
<path d="M145.161 15.4362C144.87 15.4362 144.557 15.4185 144.221 15.3833C143.895 15.3568 143.586 15.3215 143.295 15.2774C143.013 15.2333 142.77 15.1892 142.567 15.1451L142.62 13.835C142.849 13.8614 143.105 13.8923 143.388 13.9276C143.679 13.9629 143.961 13.9938 144.235 14.0202C144.517 14.0379 144.746 14.0467 144.923 14.0467C145.187 14.0467 145.403 14.0246 145.571 13.9805C145.748 13.9364 145.88 13.8658 145.968 13.7688C146.056 13.6629 146.1 13.513 146.1 13.3189C146.1 13.1689 146.061 13.0542 145.981 12.9748C145.911 12.8954 145.77 12.8292 145.558 12.7763C145.355 12.7145 145.055 12.6528 144.658 12.591C144.164 12.5205 143.754 12.419 143.427 12.2867C143.11 12.1543 142.876 11.9603 142.726 11.7044C142.576 11.4397 142.501 11.0824 142.501 10.6325C142.501 10.0855 142.62 9.65766 142.858 9.34888C143.096 9.04011 143.414 8.82396 143.811 8.70045C144.208 8.56812 144.64 8.50195 145.108 8.50195C145.417 8.50195 145.734 8.5196 146.061 8.55489C146.387 8.58135 146.696 8.61664 146.987 8.66075C147.278 8.70486 147.521 8.74897 147.715 8.79309L147.662 10.1296C147.441 10.0944 147.186 10.0635 146.894 10.037C146.603 10.0017 146.312 9.97526 146.021 9.95761C145.739 9.93997 145.501 9.93115 145.306 9.93115C145.104 9.93115 144.923 9.9532 144.764 9.99731C144.605 10.0326 144.482 10.0944 144.393 10.1826C144.314 10.2708 144.274 10.4031 144.274 10.5796C144.274 10.7031 144.31 10.8045 144.38 10.8839C144.451 10.9633 144.583 11.0339 144.777 11.0957C144.98 11.1486 145.271 11.2015 145.65 11.2545C146.197 11.3339 146.634 11.4442 146.961 11.5853C147.287 11.7265 147.521 11.9294 147.662 12.194C147.812 12.4587 147.887 12.816 147.887 13.2659C147.887 13.7953 147.781 14.2187 147.569 14.5363C147.358 14.8539 147.049 15.0833 146.643 15.2245C146.237 15.3656 145.743 15.4362 145.161 15.4362Z" fill="#00458E"/>
<path d="M137.573 15.4362C136.885 15.4362 136.364 15.2642 136.011 14.9201C135.667 14.5672 135.495 14.0379 135.495 13.3321C135.495 12.8381 135.583 12.4543 135.76 12.1808C135.936 11.8985 136.196 11.6956 136.541 11.5721C136.893 11.4397 137.321 11.3603 137.824 11.3339L139.439 11.1883V10.7913C139.439 10.4737 139.359 10.2532 139.2 10.1296C139.042 9.99731 138.808 9.93115 138.499 9.93115C138.252 9.93115 137.965 9.93997 137.639 9.95761C137.321 9.97526 137.004 9.99731 136.686 10.0238C136.377 10.0502 136.108 10.0767 135.879 10.1032L135.826 8.85925C136.055 8.80632 136.329 8.75339 136.646 8.70045C136.973 8.6387 137.312 8.59018 137.665 8.55489C138.018 8.5196 138.345 8.50195 138.645 8.50195C139.209 8.50195 139.681 8.57253 140.061 8.71369C140.44 8.85484 140.727 9.08863 140.921 9.41505C141.115 9.73265 141.212 10.1649 141.212 10.7119V13.7423C141.23 13.8658 141.296 13.9629 141.41 14.0335C141.525 14.0952 141.657 14.1393 141.807 14.1658L141.768 15.3833C141.627 15.3833 141.485 15.3833 141.344 15.3833C141.212 15.3921 141.084 15.3921 140.96 15.3833C140.837 15.3833 140.727 15.3744 140.63 15.3568C140.427 15.3303 140.25 15.2774 140.1 15.198C139.959 15.1186 139.844 15.0348 139.756 14.9466C139.615 15.0083 139.425 15.0789 139.187 15.1583C138.949 15.2377 138.689 15.3039 138.406 15.3568C138.133 15.4097 137.855 15.4362 137.573 15.4362ZM137.996 14.1261C138.164 14.1261 138.34 14.1085 138.526 14.0732C138.711 14.0379 138.883 13.9982 139.042 13.9541C139.209 13.9011 139.342 13.8526 139.439 13.8085V12.2867L138.089 12.4058C137.798 12.4322 137.586 12.5205 137.454 12.6704C137.33 12.8116 137.268 13.0145 137.268 13.2792C137.268 13.5438 137.326 13.7512 137.44 13.9011C137.564 14.0511 137.749 14.1261 137.996 14.1261Z" fill="#00458E"/>
<path d="M124.647 15.2906V8.64752H126.407V9.07098C126.54 8.98276 126.707 8.89895 126.91 8.81955C127.113 8.73133 127.325 8.65634 127.546 8.59459C127.775 8.53283 127.995 8.50195 128.207 8.50195C128.613 8.50195 128.944 8.5593 129.2 8.67399C129.456 8.77985 129.667 8.93865 129.835 9.15038C129.994 9.05334 130.192 8.9563 130.43 8.85925C130.669 8.76221 130.929 8.6784 131.211 8.60782C131.493 8.53724 131.767 8.50195 132.032 8.50195C132.517 8.50195 132.914 8.56812 133.223 8.70045C133.54 8.82396 133.787 9.02246 133.964 9.29595C134.14 9.56062 134.264 9.90468 134.334 10.3281C134.405 10.7428 134.44 11.2457 134.44 11.8367V15.2906H132.68V11.9955C132.68 11.5368 132.654 11.1663 132.601 10.8839C132.557 10.5928 132.46 10.3811 132.31 10.2487C132.168 10.1164 131.952 10.0502 131.661 10.0502C131.502 10.0502 131.335 10.0679 131.158 10.1032C130.982 10.1296 130.819 10.1693 130.669 10.2223C130.527 10.2752 130.413 10.3237 130.325 10.3678C130.369 10.5531 130.4 10.7913 130.417 11.0824C130.444 11.3736 130.457 11.6779 130.457 11.9955V15.2906H128.697V12.022C128.697 11.5544 128.67 11.1751 128.617 10.8839C128.573 10.5928 128.476 10.3811 128.326 10.2487C128.176 10.1164 127.96 10.0502 127.678 10.0502C127.519 10.0502 127.356 10.0679 127.188 10.1032C127.029 10.1296 126.879 10.1693 126.738 10.2223C126.606 10.2752 126.496 10.3237 126.407 10.3678V15.2906H124.647Z" fill="#00458E"/>
<path d="M119.943 15.2902V8.64708H121.703V9.42784C121.853 9.31316 122.039 9.19406 122.259 9.07055C122.48 8.93821 122.718 8.81911 122.974 8.71325C123.238 8.59856 123.49 8.52357 123.728 8.48828V10.1954C123.499 10.2307 123.256 10.2924 123 10.3806C122.744 10.46 122.502 10.5483 122.272 10.6453C122.052 10.7424 121.862 10.8306 121.703 10.91V15.2902H119.943Z" fill="#00458E"/>
<path d="M115.63 15.4362C114.88 15.4362 114.276 15.3127 113.817 15.0657C113.367 14.8186 113.04 14.4393 112.838 13.9276C112.635 13.4071 112.533 12.7366 112.533 11.9161C112.533 11.1221 112.639 10.4781 112.851 9.98408C113.063 9.48122 113.398 9.11068 113.857 8.87248C114.315 8.62546 114.906 8.50195 115.63 8.50195C116.362 8.50195 116.953 8.62546 117.403 8.87248C117.862 9.11068 118.197 9.48122 118.409 9.98408C118.629 10.4781 118.74 11.1221 118.74 11.9161C118.74 12.7366 118.638 13.4071 118.435 13.9276C118.232 14.4393 117.902 14.8186 117.443 15.0657C116.993 15.3127 116.388 15.4362 115.63 15.4362ZM115.63 13.9805C116 13.9805 116.278 13.9144 116.463 13.782C116.649 13.6409 116.772 13.4203 116.834 13.1204C116.905 12.8116 116.94 12.4102 116.94 11.9161C116.94 11.4309 116.9 11.0472 116.821 10.7648C116.741 10.4737 116.609 10.2664 116.424 10.1429C116.239 10.0194 115.974 9.95761 115.63 9.95761C115.295 9.95761 115.03 10.0194 114.836 10.1429C114.651 10.2664 114.518 10.4737 114.439 10.7648C114.359 11.0472 114.32 11.4309 114.32 11.9161C114.32 12.4102 114.351 12.8116 114.412 13.1204C114.483 13.4203 114.611 13.6409 114.796 13.782C114.981 13.9144 115.259 13.9805 115.63 13.9805Z" fill="#00458E"/>
<path d="M108.603 15.2906V10.1163H107.941V8.64745H108.603V8.26369C108.603 7.63731 108.66 7.14327 108.775 6.78156C108.899 6.41985 109.106 6.16401 109.397 6.01403C109.688 5.86405 110.081 5.78906 110.575 5.78906C110.716 5.78906 110.884 5.79788 111.078 5.81553C111.281 5.82435 111.475 5.83758 111.66 5.85523C111.845 5.87287 111.986 5.89052 112.083 5.90816L112.07 7.25796C111.929 7.25796 111.77 7.25796 111.594 7.25796C111.426 7.24913 111.281 7.24472 111.157 7.24472C110.963 7.24472 110.804 7.2756 110.681 7.33736C110.566 7.39911 110.482 7.50057 110.429 7.64172C110.385 7.78288 110.363 7.98579 110.363 8.25045V8.64745H111.951V10.1163H110.363V15.2906H108.603Z" fill="#00458E"/>
<path d="M101.024 15.2906V8.64752H102.784V9.07098C102.925 8.98276 103.097 8.89895 103.3 8.81955C103.503 8.73133 103.715 8.65634 103.935 8.59459C104.165 8.53283 104.385 8.50195 104.597 8.50195C105.056 8.50195 105.435 8.56371 105.735 8.68722C106.044 8.80191 106.286 8.99158 106.463 9.25625C106.639 9.52092 106.767 9.86939 106.847 10.3017C106.926 10.7251 106.966 11.2412 106.966 11.85V15.2906H105.192V11.9426C105.192 11.4839 105.166 11.1177 105.113 10.8442C105.06 10.5619 104.959 10.359 104.809 10.2355C104.659 10.112 104.438 10.0502 104.147 10.0502C103.988 10.0502 103.821 10.0679 103.644 10.1032C103.476 10.1296 103.313 10.1693 103.154 10.2223C103.005 10.2752 102.881 10.3281 102.784 10.3811V15.2906H101.024Z" fill="#00458E"/>
<path d="M97.6279 15.2903V6.25195H99.4541V15.2903H97.6279Z" fill="#00458E"/>
<path d="M83.4482 15.2906V8.64752H85.2083V9.07098C85.3406 8.98276 85.5082 8.89895 85.7111 8.81955C85.914 8.73133 86.1258 8.65634 86.3463 8.59459C86.5757 8.53283 86.7963 8.50195 87.008 8.50195C87.4138 8.50195 87.7446 8.5593 88.0005 8.67399C88.2563 8.77985 88.4681 8.93865 88.6357 9.15038C88.7945 9.05334 88.993 8.9563 89.2312 8.85925C89.4694 8.76221 89.7296 8.6784 90.012 8.60782C90.2943 8.53724 90.5677 8.50195 90.8324 8.50195C91.3176 8.50195 91.7146 8.56812 92.0234 8.70045C92.341 8.82396 92.588 9.02246 92.7645 9.29595C92.9409 9.56062 93.0644 9.90468 93.135 10.3281C93.2056 10.7428 93.2409 11.2457 93.2409 11.8367V15.2906H91.4808V11.9955C91.4808 11.5368 91.4544 11.1663 91.4014 10.8839C91.3573 10.5928 91.2603 10.3811 91.1103 10.2487C90.9692 10.1164 90.753 10.0502 90.4619 10.0502C90.3031 10.0502 90.1355 10.0679 89.959 10.1032C89.7826 10.1296 89.6194 10.1693 89.4694 10.2223C89.3282 10.2752 89.2135 10.3237 89.1253 10.3678C89.1694 10.5531 89.2003 10.7913 89.218 11.0824C89.2444 11.3736 89.2577 11.6779 89.2577 11.9955V15.2906H87.4976V12.022C87.4976 11.5544 87.4712 11.1751 87.4182 10.8839C87.3741 10.5928 87.2771 10.3811 87.1271 10.2487C86.9771 10.1164 86.761 10.0502 86.4787 10.0502C86.3199 10.0502 86.1567 10.0679 85.989 10.1032C85.8302 10.1296 85.6803 10.1693 85.5391 10.2223C85.4068 10.2752 85.2965 10.3237 85.2083 10.3678V15.2906H83.4482Z" fill="#00458E"/>
<path d="M79.2083 15.4362C78.4761 15.4362 77.8938 15.3127 77.4615 15.0657C77.038 14.8186 76.7337 14.4437 76.5484 13.9408C76.3631 13.438 76.2705 12.8072 76.2705 12.0485C76.2705 11.228 76.3852 10.5575 76.6146 10.037C76.8528 9.5165 77.1968 9.13274 77.6468 8.88572C78.0967 8.62987 78.6525 8.50195 79.3142 8.50195C80.2934 8.50195 81.0301 8.74897 81.5241 9.24302C82.027 9.73706 82.2784 10.5178 82.2784 11.5853L82.199 12.5646H78.0438C78.0526 13.0586 78.154 13.4291 78.3481 13.6762C78.5422 13.9232 78.8775 14.0467 79.3539 14.0467C79.6274 14.0467 79.9273 14.0423 80.2537 14.0335C80.5801 14.0158 80.9022 13.9982 81.2198 13.9805C81.5462 13.9629 81.8241 13.9452 82.0535 13.9276L82.0932 15.1583C81.8726 15.1936 81.5947 15.2333 81.2595 15.2774C80.9242 15.3215 80.5757 15.3568 80.214 15.3833C79.8611 15.4185 79.5259 15.4362 79.2083 15.4362ZM78.0438 11.4397H80.5184C80.5184 10.8398 80.4213 10.4208 80.2273 10.1826C80.042 9.94438 79.7376 9.82528 79.3142 9.82528C79.0319 9.82528 78.7981 9.87821 78.6128 9.98408C78.4275 10.0899 78.2864 10.262 78.1893 10.5002C78.0923 10.7384 78.0438 11.0516 78.0438 11.4397Z" fill="#00458E"/>
<path d="M74.095 15.4487C73.6097 15.4487 73.2171 15.3781 72.9172 15.2369C72.6172 15.0958 72.4011 14.8532 72.2688 14.5091C72.1453 14.1562 72.0835 13.6666 72.0835 13.0402V10.1156H71.3027V8.64675H72.0835V6.88672H73.8435V8.64675H75.5374V10.1156H73.8435V12.577C73.8435 12.9211 73.8568 13.1902 73.8832 13.3843C73.9185 13.5783 73.9891 13.7151 74.095 13.7945C74.2008 13.8739 74.364 13.9136 74.5846 13.9136C74.6463 13.9136 74.739 13.9092 74.8625 13.9004C74.986 13.8915 75.1095 13.8827 75.233 13.8739C75.3565 13.8651 75.458 13.8562 75.5374 13.8474L75.5903 15.2634C75.458 15.2899 75.2948 15.3163 75.1007 15.3428C74.9154 15.3693 74.7302 15.3913 74.5449 15.409C74.3684 15.4354 74.2185 15.4487 74.095 15.4487Z" fill="#00458E"/>
<path d="M67.8806 15.4362C67.5895 15.4362 67.2763 15.4185 66.941 15.3833C66.6146 15.3568 66.3058 15.3215 66.0147 15.2774C65.7324 15.2333 65.4898 15.1892 65.2869 15.1451L65.3398 13.835C65.5692 13.8614 65.825 13.8923 66.1073 13.9276C66.3985 13.9629 66.6808 13.9938 66.9543 14.0202C67.2366 14.0379 67.466 14.0467 67.6424 14.0467C67.9071 14.0467 68.1232 14.0246 68.2908 13.9805C68.4673 13.9364 68.5996 13.8658 68.6878 13.7688C68.776 13.6629 68.8202 13.513 68.8202 13.3189C68.8202 13.1689 68.7805 13.0542 68.7011 12.9748C68.6305 12.8954 68.4893 12.8292 68.2776 12.7763C68.0747 12.7145 67.7747 12.6528 67.3777 12.591C66.8837 12.5205 66.4735 12.419 66.147 12.2867C65.8294 12.1543 65.5956 11.9603 65.4457 11.7044C65.2957 11.4397 65.2207 11.0824 65.2207 10.6325C65.2207 10.0855 65.3398 9.65766 65.578 9.34888C65.8162 9.04011 66.1338 8.82396 66.5308 8.70045C66.9278 8.56812 67.3601 8.50195 67.8277 8.50195C68.1364 8.50195 68.454 8.5196 68.7805 8.55489C69.1069 8.58135 69.4157 8.61664 69.7068 8.66075C69.9979 8.70486 70.2405 8.74897 70.4346 8.79309L70.3817 10.1296C70.1611 10.0944 69.9053 10.0635 69.6142 10.037C69.323 10.0017 69.0319 9.97526 68.7408 9.95761C68.4584 9.93997 68.2202 9.93115 68.0262 9.93115C67.8232 9.93115 67.6424 9.9532 67.4836 9.99731C67.3248 10.0326 67.2013 10.0944 67.1131 10.1826C67.0337 10.2708 66.994 10.4031 66.994 10.5796C66.994 10.7031 67.0293 10.8045 67.0998 10.8839C67.1704 10.9633 67.3027 11.0339 67.4968 11.0957C67.6997 11.1486 67.9909 11.2015 68.3702 11.2545C68.9172 11.3339 69.3539 11.4442 69.6803 11.5853C70.0067 11.7265 70.2405 11.9294 70.3817 12.194C70.5317 12.4587 70.6066 12.816 70.6066 13.2659C70.6066 13.7953 70.5008 14.2187 70.2891 14.5363C70.0773 14.8539 69.7685 15.0833 69.3627 15.2245C68.9569 15.3656 68.4629 15.4362 67.8806 15.4362Z" fill="#00458E"/>
<path d="M62.2544 15.2904V8.64734H64.0144V15.2904H62.2544ZM62.2544 7.58867V6.08008H64.0277V7.58867H62.2544Z" fill="#00458E"/>
<path d="M57.9318 15.4364C57.5965 15.4364 57.2304 15.4144 56.8334 15.3703C56.4364 15.335 56.0482 15.2909 55.6689 15.2379C55.2983 15.1762 54.9807 15.1233 54.7161 15.0792L54.8352 13.6367C55.1087 13.672 55.4263 13.7117 55.788 13.7558C56.1497 13.7911 56.507 13.822 56.8599 13.8485C57.2216 13.8749 57.5348 13.8882 57.7994 13.8882C58.1347 13.8882 58.4082 13.844 58.6199 13.7558C58.8316 13.6676 58.986 13.5353 59.0831 13.3588C59.1889 13.1736 59.2419 12.9398 59.2419 12.6575C59.2419 12.4281 59.1933 12.2472 59.0963 12.1149C59.0081 11.9737 58.8449 11.8635 58.6067 11.7841C58.3685 11.6958 58.0376 11.612 57.6142 11.5326C57.0848 11.4356 56.6305 11.3209 56.2511 11.1886C55.8806 11.0562 55.5762 10.893 55.338 10.6989C55.0998 10.496 54.9234 10.2402 54.8087 9.9314C54.7028 9.62263 54.6499 9.24768 54.6499 8.80657C54.6499 8.11844 54.7778 7.58029 55.0337 7.19211C55.2895 6.79511 55.6556 6.5128 56.132 6.34518C56.6084 6.17756 57.1686 6.09375 57.8127 6.09375C58.1038 6.09375 58.4346 6.11139 58.8052 6.14668C59.1845 6.17315 59.555 6.20844 59.9167 6.25255C60.2873 6.29666 60.6005 6.34518 60.8563 6.39812L60.7769 7.85378C60.5122 7.81849 60.2035 7.78761 59.8506 7.76114C59.5065 7.72586 59.1625 7.69498 58.8184 7.66851C58.4831 7.64204 58.1964 7.62881 57.9582 7.62881C57.6318 7.62881 57.3583 7.6641 57.1378 7.73468C56.9172 7.80525 56.754 7.91553 56.6481 8.06551C56.5423 8.21549 56.4893 8.40516 56.4893 8.63454C56.4893 8.89921 56.5423 9.10212 56.6481 9.24327C56.754 9.38443 56.9304 9.49912 57.1775 9.58734C57.4333 9.67556 57.7818 9.76819 58.2229 9.86524C58.7434 9.97992 59.1845 10.1034 59.5462 10.2358C59.9167 10.3681 60.2123 10.5269 60.4328 10.7122C60.6622 10.8974 60.8298 11.1356 60.9357 11.4268C61.0416 11.7179 61.0945 12.084 61.0945 12.5251C61.0945 13.2309 60.9666 13.7999 60.7107 14.2322C60.4637 14.6557 60.102 14.9645 59.6256 15.1585C59.158 15.3438 58.5934 15.4364 57.9318 15.4364Z" fill="#00458E"/>
</svg>
