<svg width="153" height="48" viewBox="0 0 153 48" fill="none" xmlns="http://www.w3.org/2000/svg">
<path d="M22.3601 32.5295C22.3601 32.5295 23.0332 33.1535 22.9104 33.5073C22.6254 34.318 21.348 34.6963 20.5176 34.4703C19.191 34.1116 17.9823 32.5885 17.9922 31.2177C18.0118 29.2032 20.0705 27.572 21.7804 26.5058C23.5393 25.4101 25.7798 25.1104 27.8532 25.1448C30.1084 25.1841 32.5208 25.6116 34.4124 26.8448C35.4639 27.5327 36.3335 28.6185 36.7413 29.8075C36.9723 30.4807 36.7413 31.9448 36.7413 31.9448C36.7413 31.9448 38.5986 29.385 39.2668 27.9601C40.0677 26.265 41.2419 24.4766 41.0159 22.6194C40.9127 21.7694 40.3477 20.939 39.655 20.4329C37.4292 18.8116 34.3928 18.5315 31.6413 18.4431C28.7965 18.3497 25.9075 18.954 23.2396 19.9465C21.4217 20.6246 19.643 21.5777 18.2378 22.9092C16.6508 24.4078 15.1327 26.2356 14.5971 28.3483C14.2483 29.7191 14.3219 31.3257 14.9852 32.5737C15.5846 33.7038 16.7638 34.5243 17.948 35.0009C19.1075 35.4677 20.498 35.6789 21.687 35.2908C22.4731 35.0353 23.554 34.5145 23.5835 33.689C23.613 32.4804 22.3601 32.5295 22.3601 32.5295Z" fill="#0093DD"/>
<path d="M21.702 33.2453C21.702 33.2453 21.5251 32.7048 21.6774 32.5083C21.923 32.1939 22.4684 32.1103 22.8467 32.2479C23.3872 32.4543 23.8736 33.0684 23.8736 33.6433C23.8736 34.3852 23.2251 35.1025 22.5618 35.4415C21.1173 36.1736 19.2355 35.9673 17.7025 35.4415C16.4054 34.9944 15.1329 34.1051 14.4499 32.9161C13.4574 31.1866 13.2265 28.9314 13.6736 26.9907C14.1306 25.0057 15.6045 23.345 17.0245 21.8906C18.5525 20.3233 20.3999 18.9967 22.4144 18.1516C24.7236 17.1837 27.2982 16.9233 29.7991 16.7415C31.9511 16.5892 34.1424 16.6334 36.2601 17.0314C37.5867 17.282 38.9329 17.6554 40.0973 18.3432C40.5543 18.6135 41.2815 19.4143 41.2815 19.4143C41.2815 19.4143 40.9621 15.3265 40.3381 13.3906C39.7976 11.7152 39.2277 9.89726 37.9601 8.67876C37.0609 7.81402 35.7785 7.38657 34.56 7.12616C32.2459 6.62992 29.7942 6.75275 27.4702 7.17038C24.7531 7.66171 22.1294 8.71807 19.6924 10.025C17.4127 11.2435 15.2655 12.7814 13.4328 14.6042C11.9294 16.0979 10.5143 17.7733 9.64468 19.7042C8.77011 21.6499 8.31813 23.8363 8.33287 25.9687C8.3427 27.6785 8.6964 29.4375 9.44814 30.9704C10.1507 32.4051 11.2809 33.6384 12.5092 34.6603C13.5803 35.5496 14.838 36.2424 16.1499 36.6944C17.388 37.117 18.7294 37.3577 20.0363 37.284C21.5644 37.1956 23.3086 37.0777 24.478 36.0852C25.1609 35.5054 25.6523 34.5277 25.5835 33.6384C25.5343 33.0144 25.0872 32.3953 24.5516 32.0612C23.967 31.6976 23.171 31.4765 22.5077 31.6534C21.8936 31.8204 21.3776 32.1496 21.299 32.6606C21.2597 32.9112 21.7069 33.2453 21.702 33.2453Z" fill="#00458E"/>
<path d="M21.908 33.6794C21.908 33.6794 20.9647 33.4878 20.7191 33.139C20.3653 32.628 20.3899 31.9107 20.7387 31.3997C21.3087 30.5546 22.5271 30.2303 23.5442 30.191C25.2639 30.1222 27.3667 30.4956 28.4428 31.8419C29.337 32.967 29.5188 34.8488 28.8702 36.1312C28.2167 37.4185 26.5266 37.9196 25.141 38.3323C22.9792 38.9809 20.606 39.0153 18.3754 38.6615C16.0711 38.298 13.8208 37.4037 11.8309 36.1852C9.63465 34.8439 7.6251 33.0898 6.1118 31.0115C4.4855 28.7858 3.27188 26.1719 2.70194 23.4794C2.18604 21.0375 2.25485 18.4433 2.75601 15.9965C3.32595 13.2253 4.43141 10.5918 6.00367 8.23834C7.20251 6.4499 8.8141 4.92186 10.5681 3.67388C12.1453 2.55365 13.9583 1.7626 15.7959 1.14353C17.2846 0.642369 18.8471 0.293524 20.4193 0.209997C22.3699 0.106818 24.3451 0.337745 26.2514 0.760289C27.8483 1.11405 29.4254 1.64468 30.8748 2.41116C32.5797 3.31521 35.5523 5.82099 35.5523 5.82099C35.5523 5.82099 29.5286 5.24614 26.5855 5.76695C23.1167 6.38111 19.6922 7.62418 16.6852 9.45193C14.4448 10.8129 12.4696 12.6652 10.8531 14.7337C9.5609 16.3895 8.53406 18.291 7.8855 20.2907C7.22712 22.3199 6.87825 24.4916 7.006 26.619C7.09444 28.0586 7.46785 29.508 8.10658 30.8002C8.74039 32.0924 9.669 33.2618 10.745 34.2101C12.1502 35.4384 13.7716 36.3916 15.5306 37.0156C16.9456 37.5167 18.4835 37.6936 19.987 37.674C21.2693 37.6592 22.6402 37.6003 23.785 37.0156C24.743 36.5243 25.7699 35.7873 26.0942 34.7604C26.3595 33.9251 26.1974 32.8393 25.6274 32.176C25.0624 31.5225 24.0355 31.3505 23.1708 31.3505C22.537 31.3505 21.8245 31.5176 21.3676 31.9549C21.1121 32.2005 20.9794 32.515 21.0728 32.854C21.1563 33.2372 21.908 33.6844 21.908 33.6794Z" fill="#28166F"/>
<path d="M11.5263 44.5685C11.5263 44.1361 11.487 43.7578 11.4034 43.4286C11.3199 43.0945 11.1626 42.7751 10.9268 42.4803C10.691 42.1806 10.4011 41.9546 10.0523 41.7974C9.70834 41.6402 9.3447 41.5616 8.95164 41.5616C8.12129 41.5616 7.46782 41.8514 6.98631 42.4361C6.50972 43.011 6.27391 43.7873 6.27391 44.7552C6.27391 45.6887 6.52942 46.4208 7.03549 46.9515C7.51208 47.4477 8.12132 47.6934 8.86815 47.6934C9.76237 47.6934 10.4551 47.3052 10.9514 46.5338C11.3297 45.9246 11.5263 45.276 11.5263 44.5685ZM8.83372 48.0029C7.77736 48.0029 6.92739 47.6983 6.28374 47.089C5.64993 46.4749 5.33545 45.6543 5.33545 44.6373C5.33545 43.6153 5.6745 42.7899 6.35254 42.1561C7.00601 41.5468 7.83634 41.2422 8.85339 41.2422C9.84097 41.2422 10.6664 41.4977 11.3248 42.0136C12.0765 42.6032 12.4548 43.4286 12.4548 44.4948C12.4548 45.5462 12.1208 46.3963 11.4476 47.0448C10.7794 47.6835 9.90482 48.0029 8.83372 48.0029Z" fill="#00458E"/>
<path d="M19.8647 41.3947H20.0661C20.1988 42.6574 20.2823 43.4288 20.3118 43.7137C20.415 44.6473 20.4936 45.3695 20.5574 45.8903C20.6262 46.4013 20.7196 47.0744 20.8326 47.895L20.3855 47.8655L19.9384 47.895C19.8795 47.2611 19.8254 46.6568 19.7762 46.077C19.732 45.5022 19.678 44.9322 19.6141 44.3672C19.5552 43.8022 19.5011 43.3452 19.4519 42.9866C19.0638 43.6843 18.7297 44.2935 18.4448 44.8094C18.1156 45.4187 17.8404 45.9444 17.6193 46.3866C17.3785 46.873 17.1575 47.3398 16.9609 47.782H16.8578L16.3369 46.7059C16.1109 46.2293 15.9046 45.8215 15.7277 45.4776C15.5508 45.1288 15.3297 44.7062 15.0693 44.2149C14.8482 43.8022 14.6271 43.3895 14.411 42.9767C14.3029 43.8808 14.1997 44.7996 14.0965 45.7233C13.9933 46.647 13.9442 47.3692 13.9442 47.8802L13.6101 47.8507L13.2661 47.8802C13.3988 47.0548 13.5757 45.8854 13.787 44.3721C14.0031 42.849 14.1308 41.8516 14.1751 41.3799H14.4207C14.7499 42.0285 15.0202 42.5542 15.2265 42.9669C15.482 43.4533 15.7818 44.0134 16.1257 44.6473C16.504 45.34 16.8332 45.91 17.1034 46.3571C18.0173 44.6964 18.9262 43.0357 19.8401 41.375L19.8647 41.3947ZM22.2133 47.9048V41.4045L22.6309 41.434L23.0485 41.4045V47.9048L22.6309 47.8753L22.2133 47.9048ZM30.4136 41.3947V47.895H30.1286L29.6324 47.3152L25.5248 42.7704H25.4315V47.895L25.1661 47.8655L24.9008 47.895V41.3947H25.2693L29.7846 46.2883H29.878V41.3947L30.1433 41.4241L30.4136 41.3947ZM32.1971 47.9048V41.4045H35.5725L35.543 41.6895L35.5725 41.9744C35.3809 41.9351 35.2286 41.9105 35.1058 41.8958C34.983 41.8762 34.8552 41.8663 34.7176 41.8663L33.7693 41.8467H33.0373V44.2296H34.5112C34.6292 44.2296 34.7913 44.2247 34.9879 44.21C35.1893 44.1903 35.3122 44.1805 35.3564 44.1805L35.3269 44.4262L35.3564 44.6915C35.2434 44.6915 35.0861 44.6866 34.8797 44.6718C34.6783 44.6522 34.5555 44.6424 34.5112 44.6424H33.0373V47.895L32.6196 47.8655L32.1971 47.9048Z" fill="#00458E"/>
<path d="M42.6858 44.5685C42.6858 44.1361 42.6465 43.7578 42.563 43.4286C42.4795 43.0945 42.3223 42.7751 42.0864 42.4803C41.8506 42.1806 41.5607 41.9546 41.2118 41.7974C40.8679 41.6402 40.5043 41.5616 40.1113 41.5616C39.2809 41.5616 38.6274 41.8514 38.1459 42.4361C37.6694 43.011 37.4335 43.7873 37.4335 44.7552C37.4335 45.6887 37.689 46.4208 38.1951 46.9515C38.6717 47.4477 39.2809 47.6934 40.0277 47.6934C40.9219 47.6934 41.6148 47.3052 42.111 46.5338C42.4943 45.9246 42.6858 45.276 42.6858 44.5685ZM39.9983 48.0029C38.9419 48.0029 38.0919 47.6983 37.4482 47.089C36.8144 46.4749 36.5 45.6543 36.5 44.6373C36.5 43.6153 36.839 42.7899 37.517 42.1561C38.1705 41.5468 39.0009 41.2422 40.0179 41.2422C41.0055 41.2422 41.8309 41.4977 42.4893 42.0136C43.241 42.6032 43.6194 43.4286 43.6194 44.4948C43.6194 45.5462 43.2852 46.3963 42.6121 47.0448C41.939 47.6835 41.0694 48.0029 39.9983 48.0029Z" fill="#00458E"/>
<path d="M4.66275 41.3916L2.5058 43.465L1.70001 44.2807C2.46649 45.1552 3.23789 46.0249 4.00927 46.8945L4.78067 47.8428V47.8919L4.25986 47.8625L3.72921 47.8919C3.62603 47.7445 3.51795 47.6021 3.40495 47.4547C3.29685 47.3023 3.18382 47.1599 3.07082 47.0223L0.997415 44.6C0.967936 44.5755 0.923716 44.5607 0.874583 44.5509C0.850016 44.5558 0.835268 44.5656 0.835268 44.5705V47.887L0.417649 47.8575L0 47.887V41.3867L0.417649 41.4162L0.835268 41.3867V44.3249C0.840181 44.3494 0.869653 44.3544 0.918786 44.3445C0.977745 44.3298 1.0318 44.3052 1.08093 44.2659C1.13007 44.2217 1.23817 44.1234 1.39539 43.9711C1.45435 43.9122 1.51331 43.8581 1.57718 43.7992L3.91592 41.3867L4.29425 41.4162L4.66275 41.3916Z" fill="#00458E"/>
<path d="M53.6402 9.19881C53.3 9.19881 52.935 9.17808 52.5451 9.13663C52.1552 9.09518 51.7819 9.04543 51.4252 8.9874C51.0685 8.92937 50.7657 8.87548 50.5168 8.82574L50.6288 7.29617C50.886 7.32934 51.1888 7.36664 51.5372 7.40809C51.8856 7.44126 52.234 7.47442 52.5825 7.50758C52.9309 7.53245 53.2337 7.54488 53.4908 7.54488C53.7729 7.54488 54.001 7.51172 54.1752 7.4454C54.3578 7.37079 54.4905 7.26301 54.5734 7.12208C54.6564 6.98114 54.6979 6.79876 54.6979 6.57492C54.6979 6.39253 54.6564 6.24745 54.5734 6.13967C54.4988 6.0319 54.3578 5.94485 54.1504 5.87853C53.9513 5.80392 53.6609 5.73345 53.2793 5.66713C52.765 5.57593 52.3253 5.46816 51.9603 5.3438C51.6036 5.21945 51.3132 5.06193 51.0892 4.87125C50.8652 4.67229 50.7035 4.42772 50.6039 4.13756C50.5044 3.83911 50.4546 3.48262 50.4546 3.06811C50.4546 2.3883 50.5749 1.85772 50.8155 1.47637C51.0643 1.09501 51.4169 0.825575 51.8732 0.668058C52.3294 0.510542 52.8687 0.431784 53.4908 0.431784C53.7812 0.431784 54.1089 0.448365 54.4739 0.481526C54.8389 0.514687 55.1956 0.551994 55.544 0.593446C55.8925 0.634897 56.1953 0.680494 56.4524 0.730236L56.3653 2.28467C56.1165 2.25151 55.8261 2.22249 55.4943 2.19762C55.1624 2.16446 54.8306 2.13959 54.4988 2.12301C54.1752 2.09814 53.8932 2.0857 53.6526 2.0857C53.3788 2.0857 53.1507 2.11472 52.9682 2.17275C52.7857 2.22249 52.6488 2.3054 52.5576 2.42146C52.4746 2.53753 52.4331 2.68675 52.4331 2.86914C52.4331 3.0764 52.4746 3.23806 52.5576 3.35412C52.6488 3.4619 52.7981 3.55309 53.0055 3.62771C53.2212 3.70232 53.5199 3.78108 53.9015 3.86398C54.4158 3.98004 54.8472 4.10025 55.1956 4.22461C55.5523 4.34896 55.8385 4.50233 56.0542 4.68472C56.2782 4.85882 56.4358 5.0868 56.5271 5.36867C56.6266 5.65054 56.6764 6.00703 56.6764 6.43813C56.6764 7.10135 56.5561 7.63608 56.3156 8.0423C56.0833 8.44853 55.739 8.74284 55.2827 8.92522C54.8348 9.10761 54.2872 9.19881 53.6402 9.19881Z" fill="#00458E"/>
<path d="M57.6292 9.04958V2.79453H59.5331V9.04958H57.6292ZM57.6292 1.92404V0.406913H59.5331V1.92404H57.6292Z" fill="#00458E"/>
<path d="M63.1166 9.19881C62.8096 9.19881 62.4944 9.18222 62.1709 9.14906C61.8473 9.1159 61.5487 9.0786 61.2749 9.03714C61.0012 8.9874 60.773 8.94181 60.5905 8.90035L60.6527 7.53245C60.8684 7.55732 61.1132 7.58634 61.3869 7.6195C61.6607 7.65266 61.9303 7.68168 62.1958 7.70655C62.4612 7.73142 62.6769 7.74385 62.8428 7.74385C63.0668 7.74385 63.2493 7.72727 63.3904 7.69411C63.5314 7.66095 63.6351 7.60292 63.7014 7.52001C63.7761 7.43711 63.8134 7.32105 63.8134 7.17182C63.8134 7.06405 63.7761 6.977 63.7014 6.91067C63.6351 6.84435 63.5106 6.79047 63.3281 6.74901C63.1539 6.69927 62.8926 6.64953 62.5442 6.59979C62.0796 6.53347 61.698 6.43813 61.3994 6.31377C61.1007 6.18113 60.8809 5.99045 60.7399 5.74174C60.6071 5.48474 60.5408 5.14483 60.5408 4.72203C60.5408 4.18316 60.6527 3.7645 60.8767 3.46604C61.109 3.16759 61.416 2.96033 61.7976 2.84427C62.1792 2.71991 62.5981 2.65774 63.0544 2.65774C63.3696 2.65774 63.6849 2.67432 64.0001 2.70748C64.3236 2.73235 64.6223 2.76551 64.896 2.80696C65.1698 2.84841 65.3979 2.88987 65.5804 2.93132L65.5182 4.34896C65.3108 4.3158 65.0661 4.28679 64.784 4.26192C64.5103 4.22875 64.2365 4.20388 63.9628 4.1873C63.6973 4.17072 63.4733 4.16243 63.2908 4.16243C63.1166 4.16243 62.9631 4.17901 62.8304 4.21217C62.706 4.23704 62.6106 4.28679 62.5442 4.3614C62.4778 4.42772 62.4446 4.52721 62.4446 4.65985C62.4446 4.75933 62.4737 4.84224 62.5317 4.90856C62.5898 4.96659 62.706 5.02048 62.8802 5.07022C63.0544 5.11167 63.3074 5.15313 63.6392 5.19458C64.1453 5.2609 64.5518 5.36453 64.8587 5.50546C65.1656 5.6464 65.3855 5.84537 65.5182 6.10237C65.651 6.35108 65.7173 6.69098 65.7173 7.12208C65.7173 7.62779 65.6178 8.03401 65.4187 8.34076C65.2196 8.63921 64.9251 8.8589 64.5352 8.99984C64.1453 9.13248 63.6724 9.19881 63.1166 9.19881Z" fill="#00458E"/>
<path d="M68.9345 9.19881C68.4699 9.19881 68.0925 9.13663 67.8021 9.01227C67.5118 8.87963 67.3002 8.65164 67.1675 8.32832C67.0431 7.99671 66.9808 7.53245 66.9808 6.93555V4.3614H66.3089V2.79453H66.9808V1.24009H68.8847V2.79453H70.3531V4.3614H68.8847V6.463C68.8847 6.74487 68.8972 6.96456 68.922 7.12208C68.9552 7.27959 69.0174 7.39151 69.1087 7.45784C69.2 7.52416 69.3368 7.55732 69.5193 7.55732C69.5691 7.55732 69.6479 7.55318 69.7558 7.54488C69.8636 7.53659 69.9715 7.53245 70.0793 7.53245C70.1954 7.52416 70.2826 7.51587 70.3406 7.50758L70.3904 9.01227C70.2577 9.03714 70.1 9.06201 69.9175 9.08689C69.7433 9.12005 69.565 9.14492 69.3825 9.1615C69.2082 9.18637 69.0589 9.19881 68.9345 9.19881Z" fill="#00458E"/>
<path d="M73.8289 9.19881C73.1238 9.19881 72.5597 9.08274 72.1366 8.85061C71.7218 8.61848 71.4232 8.26614 71.2406 7.79359C71.0664 7.32105 70.9793 6.72414 70.9793 6.00288C70.9793 5.24846 71.0872 4.62669 71.3029 4.13756C71.5269 3.64014 71.8545 3.27122 72.2859 3.0308C72.7173 2.78209 73.2607 2.65774 73.916 2.65774C74.8783 2.65774 75.6001 2.88987 76.0812 3.35412C76.5707 3.81838 76.8154 4.55208 76.8154 5.55521L76.7159 6.53761H72.8832C72.8915 6.93555 72.9745 7.234 73.1321 7.43297C73.298 7.62364 73.5801 7.71898 73.9783 7.71898C74.2354 7.71898 74.5216 7.71484 74.8369 7.70655C75.1604 7.68997 75.4798 7.67338 75.795 7.6568C76.1103 7.64022 76.3799 7.62364 76.6039 7.60706L76.6412 8.90035C76.4255 8.94181 76.1559 8.9874 75.8324 9.03714C75.5088 9.0786 75.1728 9.1159 74.8244 9.14906C74.476 9.18222 74.1442 9.19881 73.8289 9.19881ZM72.8708 5.38111H74.9115C74.9115 4.88369 74.8327 4.53964 74.6751 4.34896C74.5175 4.15 74.2645 4.05051 73.916 4.05051C73.6838 4.05051 73.4888 4.09611 73.3312 4.1873C73.1819 4.27021 73.0699 4.41114 72.9952 4.61011C72.9205 4.80079 72.8791 5.05779 72.8708 5.38111Z" fill="#00458E"/>
<path d="M77.7773 9.04958V2.79453H79.6687V3.18003C79.7931 3.09712 79.9466 3.01837 80.1291 2.94375C80.3199 2.86085 80.519 2.79453 80.7264 2.74479C80.9421 2.68675 81.1453 2.65774 81.3361 2.65774C81.7095 2.65774 82.0123 2.71162 82.2445 2.8194C82.4851 2.91888 82.6801 3.06396 82.8294 3.25464C82.9787 3.16345 83.1612 3.07225 83.3769 2.98106C83.6009 2.88987 83.8415 2.81525 84.0986 2.75722C84.3558 2.6909 84.6088 2.65774 84.8577 2.65774C85.3223 2.65774 85.7039 2.71991 86.0025 2.84427C86.3095 2.96033 86.5459 3.15101 86.7118 3.4163C86.886 3.6733 87.0063 4.00077 87.0727 4.39871C87.139 4.79664 87.1722 5.26919 87.1722 5.81635V9.04958H85.2808V6.00288C85.2808 5.61324 85.26 5.29406 85.2186 5.04535C85.1771 4.79664 85.0941 4.61425 84.9697 4.49819C84.8453 4.37383 84.6669 4.31166 84.4346 4.31166C84.3019 4.31166 84.165 4.32409 84.024 4.34896C83.8829 4.37383 83.7502 4.407 83.6258 4.44845C83.5096 4.4899 83.4101 4.53135 83.3271 4.5728C83.3769 4.72203 83.4101 4.92929 83.4267 5.19458C83.4433 5.45158 83.4516 5.71687 83.4516 5.99045V9.04958H81.5477V6.02775C81.5477 5.62153 81.527 5.29406 81.4855 5.04535C81.444 4.79664 81.361 4.61425 81.2366 4.49819C81.1205 4.37383 80.9462 4.31166 80.714 4.31166C80.5812 4.31166 80.4485 4.32409 80.3158 4.34896C80.183 4.37383 80.0627 4.407 79.9549 4.44845C79.8471 4.4899 79.7558 4.52721 79.6811 4.56037V9.04958H77.7773Z" fill="#00458E"/>
<path d="M91.1222 9.04958V0.593446H93.0883V9.04958H91.1222Z" fill="#00458E"/>
<path d="M94.4134 9.04958V2.79453H96.3048V3.18003C96.4375 3.09712 96.5952 3.01837 96.7777 2.94375C96.9602 2.86085 97.151 2.79453 97.3501 2.74479C97.5575 2.68675 97.7524 2.65774 97.9349 2.65774C98.3746 2.65774 98.7396 2.71577 99.03 2.83183C99.3203 2.93961 99.5526 3.11785 99.7268 3.36656C99.901 3.61527 100.025 3.94274 100.1 4.34896C100.175 4.75519 100.212 5.24846 100.212 5.82879V9.04958H98.3082V5.94071C98.3082 5.55106 98.2833 5.23603 98.2336 4.99561C98.1838 4.75519 98.0967 4.58109 97.9722 4.47332C97.8478 4.36554 97.6695 4.31166 97.4372 4.31166C97.3044 4.31166 97.1676 4.32409 97.0265 4.34896C96.8855 4.37383 96.7528 4.407 96.6283 4.44845C96.5039 4.4899 96.4002 4.53135 96.3172 4.5728V9.04958H94.4134Z" fill="#00458E"/>
<path d="M101.601 9.04958V4.3614H101.053V2.79453H101.601V2.50851C101.601 1.9199 101.659 1.45564 101.775 1.11574C101.891 0.767542 102.09 0.522978 102.372 0.382042C102.654 0.232816 103.036 0.158203 103.517 0.158203C103.675 0.158203 103.849 0.166493 104.04 0.183074C104.231 0.191365 104.413 0.207945 104.587 0.232816C104.761 0.249397 104.898 0.265977 104.998 0.282558L104.985 1.71264C104.861 1.71264 104.724 1.71264 104.575 1.71264C104.425 1.70435 104.301 1.7002 104.201 1.7002C104.027 1.7002 103.886 1.72508 103.778 1.77482C103.679 1.82456 103.608 1.90332 103.567 2.01109C103.525 2.11887 103.505 2.27224 103.505 2.4712V2.79453H104.886V4.3614H103.505V9.04958H101.601Z" fill="#00458E"/>
<path d="M108.368 9.19881C107.663 9.19881 107.087 9.08689 106.639 8.86305C106.199 8.63092 105.876 8.27029 105.668 7.78116C105.469 7.29203 105.37 6.66196 105.37 5.89096C105.37 5.12825 105.473 4.51063 105.681 4.03808C105.896 3.56553 106.228 3.21733 106.676 2.9935C107.124 2.76966 107.688 2.65774 108.368 2.65774C109.065 2.65774 109.634 2.76966 110.073 2.9935C110.521 3.21733 110.849 3.56553 111.056 4.03808C111.272 4.51063 111.38 5.12825 111.38 5.89096C111.38 6.66196 111.276 7.29203 111.069 7.78116C110.87 8.27029 110.546 8.63092 110.098 8.86305C109.658 9.08689 109.082 9.19881 108.368 9.19881ZM108.368 7.63193C108.675 7.63193 108.904 7.5739 109.053 7.45784C109.21 7.34177 109.314 7.15524 109.364 6.89824C109.422 6.64124 109.451 6.30548 109.451 5.89096C109.451 5.46816 109.418 5.13654 109.351 4.89613C109.285 4.65571 109.173 4.48161 109.016 4.37383C108.866 4.26606 108.65 4.21217 108.368 4.21217C108.095 4.21217 107.879 4.26606 107.721 4.37383C107.564 4.48161 107.452 4.65985 107.385 4.90856C107.319 5.14898 107.286 5.47645 107.286 5.89096C107.286 6.30548 107.315 6.64124 107.373 6.89824C107.431 7.15524 107.535 7.34177 107.684 7.45784C107.842 7.5739 108.07 7.63193 108.368 7.63193Z" fill="#00458E"/>
<path d="M112.386 9.04958V2.79453H114.29V3.50335C114.423 3.39558 114.589 3.28366 114.788 3.16759C114.987 3.04324 115.198 2.93132 115.422 2.83183C115.646 2.73235 115.862 2.67017 116.07 2.6453V4.46088C115.87 4.48575 115.659 4.5355 115.435 4.61011C115.211 4.67643 114.999 4.75519 114.8 4.84638C114.601 4.92929 114.431 5.00804 114.29 5.08266V9.04958H112.386Z" fill="#00458E"/>
<path d="M116.846 9.04958V2.79453H118.737V3.18003C118.862 3.09712 119.015 3.01837 119.198 2.94375C119.389 2.86085 119.588 2.79453 119.795 2.74479C120.011 2.68675 120.214 2.65774 120.405 2.65774C120.778 2.65774 121.081 2.71162 121.313 2.8194C121.554 2.91888 121.749 3.06396 121.898 3.25464C122.047 3.16345 122.23 3.07225 122.446 2.98106C122.67 2.88987 122.91 2.81525 123.167 2.75722C123.425 2.6909 123.678 2.65774 123.926 2.65774C124.391 2.65774 124.773 2.71991 125.071 2.84427C125.378 2.96033 125.615 3.15101 125.781 3.4163C125.955 3.6733 126.075 4.00077 126.141 4.39871C126.208 4.79664 126.241 5.26919 126.241 5.81635V9.04958H124.349V6.00288C124.349 5.61324 124.329 5.29406 124.287 5.04535C124.246 4.79664 124.163 4.61425 124.038 4.49819C123.914 4.37383 123.736 4.31166 123.503 4.31166C123.371 4.31166 123.234 4.32409 123.093 4.34896C122.952 4.37383 122.819 4.407 122.694 4.44845C122.578 4.4899 122.479 4.53135 122.396 4.5728C122.446 4.72203 122.479 4.92929 122.495 5.19458C122.512 5.45158 122.52 5.71687 122.52 5.99045V9.04958H120.616V6.02775C120.616 5.62153 120.596 5.29406 120.554 5.04535C120.513 4.79664 120.43 4.61425 120.305 4.49819C120.189 4.37383 120.015 4.31166 119.783 4.31166C119.65 4.31166 119.517 4.32409 119.384 4.34896C119.252 4.37383 119.131 4.407 119.024 4.44845C118.916 4.4899 118.825 4.52721 118.75 4.56037V9.04958H116.846Z" fill="#00458E"/>
<path d="M129.136 9.19881C128.455 9.19881 127.945 9.033 127.605 8.70139C127.273 8.36977 127.107 7.86406 127.107 7.18426C127.107 6.70342 127.195 6.3345 127.369 6.0775C127.551 5.81221 127.813 5.62153 128.153 5.50546C128.493 5.3894 128.903 5.31893 129.385 5.29406L130.778 5.18214V4.85882C130.778 4.61011 130.708 4.43601 130.567 4.33653C130.434 4.22875 130.235 4.17487 129.969 4.17487C129.729 4.17487 129.455 4.18316 129.148 4.19974C128.841 4.21632 128.538 4.23704 128.24 4.26192C127.941 4.28679 127.684 4.31166 127.468 4.33653L127.406 3.01837C127.63 2.96033 127.896 2.90645 128.202 2.8567C128.518 2.79867 128.845 2.75308 129.186 2.71991C129.526 2.67846 129.845 2.65774 130.144 2.65774C130.683 2.65774 131.139 2.72406 131.512 2.8567C131.894 2.98106 132.184 3.19661 132.384 3.50335C132.583 3.8018 132.682 4.22046 132.682 4.75933V7.49514C132.707 7.59463 132.765 7.67338 132.856 7.73142C132.956 7.78116 133.064 7.81847 133.18 7.84334L133.143 9.11176C133.018 9.12005 132.885 9.12834 132.744 9.13663C132.603 9.15321 132.471 9.15735 132.346 9.14906C132.222 9.14906 132.118 9.14492 132.035 9.13663C131.819 9.11176 131.633 9.06201 131.475 8.9874C131.326 8.9045 131.214 8.82159 131.139 8.73869C131.006 8.79672 130.832 8.86305 130.617 8.93766C130.401 9.01227 130.164 9.07445 129.907 9.12419C129.658 9.17393 129.401 9.19881 129.136 9.19881ZM129.609 7.81847C129.75 7.81847 129.891 7.80188 130.032 7.76872C130.181 7.73556 130.322 7.69826 130.455 7.6568C130.587 7.61535 130.695 7.57805 130.778 7.54488V6.31377L129.683 6.41326C129.451 6.43813 129.281 6.51274 129.173 6.63709C129.065 6.75316 129.011 6.91897 129.011 7.13451C129.011 7.34177 129.061 7.50758 129.161 7.63193C129.26 7.75629 129.409 7.81847 129.609 7.81847Z" fill="#00458E"/>
<path d="M136.369 9.19881C136.062 9.19881 135.747 9.18222 135.423 9.14906C135.1 9.1159 134.801 9.0786 134.527 9.03714C134.253 8.9874 134.025 8.94181 133.843 8.90035L133.905 7.53245C134.121 7.55732 134.365 7.58634 134.639 7.6195C134.913 7.65266 135.183 7.68168 135.448 7.70655C135.714 7.73142 135.929 7.74385 136.095 7.74385C136.319 7.74385 136.502 7.72727 136.643 7.69411C136.784 7.66095 136.887 7.60292 136.954 7.52001C137.028 7.43711 137.066 7.32105 137.066 7.17182C137.066 7.06405 137.028 6.977 136.954 6.91067C136.887 6.84435 136.763 6.79047 136.58 6.74901C136.406 6.69927 136.145 6.64953 135.796 6.59979C135.332 6.53347 134.95 6.43813 134.652 6.31377C134.353 6.18113 134.133 5.99045 133.992 5.74174C133.859 5.48474 133.793 5.14483 133.793 4.72203C133.793 4.18316 133.905 3.7645 134.129 3.46604C134.361 3.16759 134.668 2.96033 135.05 2.84427C135.431 2.71991 135.85 2.65774 136.307 2.65774C136.622 2.65774 136.937 2.67432 137.252 2.70748C137.576 2.73235 137.875 2.76551 138.148 2.80696C138.422 2.84841 138.65 2.88987 138.833 2.93132L138.771 4.34896C138.563 4.3158 138.318 4.28679 138.036 4.26192C137.763 4.22875 137.489 4.20388 137.215 4.1873C136.95 4.17072 136.726 4.16243 136.543 4.16243C136.369 4.16243 136.215 4.17901 136.083 4.21217C135.958 4.23704 135.863 4.28679 135.796 4.3614C135.73 4.42772 135.697 4.52721 135.697 4.65985C135.697 4.75933 135.726 4.84224 135.784 4.90856C135.842 4.96659 135.958 5.02048 136.132 5.07022C136.307 5.11167 136.56 5.15313 136.892 5.19458C137.398 5.2609 137.804 5.36453 138.111 5.50546C138.418 5.6464 138.638 5.84537 138.771 6.10237C138.903 6.35108 138.97 6.69098 138.97 7.12208C138.97 7.62779 138.87 8.03401 138.671 8.34076C138.472 8.63921 138.177 8.8589 137.787 8.99984C137.398 9.13248 136.925 9.19881 136.369 9.19881Z" fill="#00458E"/>
<path d="M139.947 9.04958V2.79453H141.851V9.04958H139.947ZM139.947 1.92404V0.406913H141.851V1.92404H139.947Z" fill="#00458E"/>
<path d="M50.7532 21.4851V13.0289H53.9637C54.702 13.0289 55.3118 13.1243 55.7929 13.315C56.2824 13.5056 56.6474 13.8207 56.888 14.26C57.1368 14.6911 57.2613 15.2881 57.2613 16.0508C57.2613 16.7969 57.1368 17.4021 56.888 17.8663C56.6474 18.3223 56.2824 18.6539 55.7929 18.8612C55.3118 19.0684 54.702 19.1721 53.9637 19.1721H52.7193V21.4851H50.7532ZM52.7193 17.5803H53.9015C54.3826 17.5803 54.7269 17.456 54.9343 17.2073C55.15 16.9503 55.2578 16.5648 55.2578 16.0508C55.2578 15.5285 55.1541 15.1596 54.9468 14.944C54.7394 14.7285 54.3909 14.6207 53.9015 14.6207H52.7193V17.5803Z" fill="#00458E"/>
<path d="M60.6683 21.6343C59.9632 21.6343 59.3991 21.5182 58.976 21.2861C58.5612 21.054 58.2625 20.7016 58.08 20.2291C57.9058 19.7565 57.8187 19.1596 57.8187 18.4384C57.8187 17.684 57.9266 17.0622 58.1422 16.5731C58.3662 16.0756 58.6939 15.7067 59.1253 15.4663C59.5567 15.2176 60.1 15.0932 60.7554 15.0932C61.7177 15.0932 62.4395 15.3254 62.9206 15.7896C63.4101 16.2539 63.6548 16.9876 63.6548 17.9907L63.5552 18.9731H59.7226C59.7309 19.371 59.8138 19.6695 59.9715 19.8685C60.1374 20.0591 60.4194 20.1545 60.8176 20.1545C61.0748 20.1545 61.361 20.1503 61.6762 20.142C61.9998 20.1255 62.3192 20.1089 62.6344 20.0923C62.9496 20.0757 63.2193 20.0591 63.4432 20.0426L63.4806 21.3358C63.2649 21.3773 62.9953 21.4229 62.6717 21.4726C62.3482 21.5141 62.0122 21.5514 61.6638 21.5846C61.3154 21.6177 60.9835 21.6343 60.6683 21.6343ZM59.7101 17.8166H61.7509C61.7509 17.3192 61.6721 16.9751 61.5145 16.7845C61.3569 16.5855 61.1038 16.486 60.7554 16.486C60.5231 16.486 60.3282 16.5316 60.1706 16.6228C60.0212 16.7057 59.9092 16.8466 59.8346 17.0456C59.7599 17.2363 59.7184 17.4933 59.7101 17.8166Z" fill="#00458E"/>
<path d="M64.6166 21.4851V15.23H66.5081V15.6155C66.6408 15.5326 66.7984 15.4539 66.9809 15.3792C67.1634 15.2963 67.3542 15.23 67.5533 15.1803C67.7607 15.1222 67.9557 15.0932 68.1382 15.0932C68.5779 15.0932 68.9429 15.1513 69.2332 15.2673C69.5236 15.3751 69.7559 15.5533 69.9301 15.8021C70.1043 16.0508 70.2287 16.3782 70.3034 16.7845C70.3781 17.1907 70.4154 17.684 70.4154 18.2643V21.4851H68.5115V18.3762C68.5115 17.9866 68.4866 17.6715 68.4368 17.4311C68.3871 17.1907 68.3 17.0166 68.1755 16.9088C68.0511 16.801 67.8727 16.7471 67.6404 16.7471C67.5077 16.7471 67.3708 16.7596 67.2298 16.7845C67.0888 16.8093 66.956 16.8425 66.8316 16.8839C66.7072 16.9254 66.6035 16.9668 66.5205 17.0083V21.4851H64.6166Z" fill="#00458E"/>
<path d="M74.4296 24.3079C73.766 24.3079 73.2019 24.2582 72.7373 24.1587C72.2727 24.0675 71.9202 23.8934 71.6796 23.6364C71.4473 23.3794 71.3312 23.0063 71.3312 22.5172C71.3312 22.3017 71.3602 22.111 71.4183 21.9452C71.4763 21.7794 71.5717 21.6219 71.7045 21.4726C71.8372 21.3151 72.0073 21.1576 72.2147 21.0001C72.0985 20.9089 72.0031 20.7845 71.9285 20.627C71.8538 20.4612 71.8165 20.283 71.8165 20.0923C71.8165 20.026 71.8455 19.9389 71.9036 19.8311C71.9699 19.7151 72.0487 19.599 72.14 19.483C72.2312 19.3586 72.3184 19.2508 72.4013 19.1596C72.2354 19.0767 72.0778 18.9648 71.9285 18.8239C71.7791 18.6746 71.6547 18.4757 71.5551 18.227C71.4556 17.9783 71.4058 17.6632 71.4058 17.2819C71.4058 16.743 71.5054 16.3161 71.7045 16.001C71.9119 15.6777 72.2147 15.4456 72.6129 15.3046C73.0193 15.1637 73.5212 15.0932 74.1185 15.0932C74.3259 15.0932 74.5541 15.1098 74.8029 15.143C75.0601 15.1678 75.2634 15.201 75.4127 15.2425L77.4908 15.1927V16.4363L76.6197 16.4238C76.6944 16.515 76.7566 16.6311 76.8064 16.772C76.8561 16.913 76.881 17.0829 76.881 17.2819C76.881 17.8622 76.7815 18.3099 76.5824 18.6249C76.3833 18.9399 76.0846 19.1596 75.6864 19.284C75.2882 19.4001 74.778 19.4581 74.1559 19.4581C74.0895 19.4581 74.0024 19.4539 73.8945 19.4456C73.7867 19.4291 73.6955 19.4166 73.6208 19.4083C73.5959 19.4747 73.5669 19.5534 73.5337 19.6446C73.5005 19.7275 73.4839 19.7897 73.4839 19.8311C73.4839 19.9058 73.5046 19.9638 73.5461 20.0052C73.5876 20.0467 73.6623 20.0799 73.7701 20.1047C73.878 20.1296 74.0314 20.1462 74.2305 20.1545C74.4379 20.1628 74.7117 20.1669 75.0518 20.1669C75.6408 20.1669 76.1095 20.2249 76.4579 20.341C76.8064 20.4488 77.0552 20.6436 77.2046 20.9255C77.3539 21.1991 77.4285 21.5846 77.4285 22.082C77.4285 22.8281 77.1631 23.3836 76.6322 23.7483C76.1012 24.1214 75.367 24.3079 74.4296 24.3079ZM74.3176 22.9276C74.7988 22.9276 75.1431 22.8778 75.3505 22.7784C75.5579 22.6789 75.6615 22.5131 75.6615 22.2809C75.6615 22.1068 75.6242 21.9742 75.5496 21.883C75.4749 21.8001 75.3505 21.7462 75.1762 21.7213C75.0103 21.6965 74.7822 21.684 74.4918 21.684C74.4089 21.684 74.3093 21.6799 74.1932 21.6716C74.0771 21.6716 73.9651 21.6675 73.8572 21.6592C73.7494 21.6592 73.6498 21.655 73.5586 21.6467C73.4673 21.6467 73.401 21.6426 73.3595 21.6343C73.2599 21.7006 73.1811 21.7669 73.123 21.8333C73.065 21.8996 73.0235 21.9659 72.9986 22.0322C72.9737 22.1068 72.9613 22.1939 72.9613 22.2934C72.9613 22.4509 73.0028 22.5752 73.0857 22.6664C73.177 22.7576 73.3221 22.824 73.5212 22.8654C73.7203 22.9069 73.9858 22.9276 74.3176 22.9276ZM74.131 18.1524C74.4628 18.1524 74.6992 18.086 74.8403 17.9534C74.9896 17.8125 75.0643 17.5845 75.0643 17.2694C75.0643 16.9544 74.9896 16.7306 74.8403 16.5979C74.6992 16.457 74.4628 16.3865 74.131 16.3865C73.8074 16.3865 73.5752 16.457 73.4341 16.5979C73.2931 16.7306 73.2226 16.9544 73.2226 17.2694C73.2226 17.5845 73.2931 17.8125 73.4341 17.9534C73.5752 18.086 73.8074 18.1524 74.131 18.1524Z" fill="#00458E"/>
<path d="M80.0052 21.6343C79.3249 21.6343 78.8147 21.4685 78.4746 21.1369C78.1428 20.8053 77.9768 20.2996 77.9768 19.6197C77.9768 19.1389 78.064 18.77 78.2382 18.513C78.4207 18.2477 78.682 18.057 79.0221 17.941C79.3622 17.8249 79.7729 17.7544 80.254 17.7296L81.6477 17.6176V17.2943C81.6477 17.0456 81.5772 16.8715 81.4362 16.772C81.3035 16.6642 81.1044 16.6104 80.8389 16.6104C80.5983 16.6104 80.3245 16.6186 80.0176 16.6352C79.7107 16.6518 79.4079 16.6725 79.1092 16.6974C78.8106 16.7223 78.5534 16.7471 78.3377 16.772L78.2755 15.4539C78.4995 15.3958 78.7649 15.3419 79.0719 15.2922C79.3871 15.2342 79.7148 15.1886 80.0549 15.1554C80.3951 15.114 80.7145 15.0932 81.0131 15.0932C81.5523 15.0932 82.0086 15.1595 82.3819 15.2922C82.7635 15.4165 83.0539 15.6321 83.253 15.9388C83.4521 16.2373 83.5516 16.656 83.5516 17.1948V19.9306C83.5765 20.0301 83.6346 20.1089 83.7258 20.1669C83.8254 20.2167 83.9332 20.254 84.0494 20.2788L84.012 21.5472C83.8876 21.5555 83.7549 21.5638 83.6138 21.5721C83.4728 21.5887 83.3401 21.5928 83.2156 21.5846C83.0912 21.5846 82.9875 21.5804 82.9045 21.5721C82.6888 21.5472 82.5022 21.4975 82.3446 21.4229C82.1952 21.34 82.0833 21.2571 82.0086 21.1742C81.8759 21.2322 81.7016 21.2985 81.486 21.3732C81.2703 21.4478 81.0338 21.5099 80.7767 21.5597C80.5278 21.6094 80.2706 21.6343 80.0052 21.6343ZM80.478 20.254C80.619 20.254 80.7601 20.2374 80.9011 20.2042C81.0504 20.1711 81.1915 20.1337 81.3242 20.0923C81.4569 20.0508 81.5648 20.0135 81.6477 19.9804V18.7493L80.5527 18.8487C80.3204 18.8736 80.1503 18.9482 80.0425 19.0726C79.9346 19.1886 79.8807 19.3545 79.8807 19.57C79.8807 19.7773 79.9305 19.9431 80.0301 20.0674C80.1296 20.1918 80.2789 20.254 80.478 20.254Z" fill="#00458E"/>
<path d="M85.4988 21.4851L84.4038 15.23H86.457L87.1165 19.8809H87.2907L88.1493 15.3792H89.9412L90.8496 19.8809H91.0238L91.6958 15.23H93.5748L92.542 21.4851H89.7172L88.9831 17.7544L88.2364 21.4851H85.4988Z" fill="#00458E"/>
<path d="M96.1552 21.6343C95.4749 21.6343 94.9647 21.4685 94.6246 21.1369C94.2928 20.8053 94.1269 20.2996 94.1269 19.6197C94.1269 19.1389 94.214 18.77 94.3882 18.513C94.5707 18.2477 94.832 18.057 95.1721 17.941C95.5123 17.8249 95.9229 17.7544 96.4041 17.7296L97.7977 17.6176V17.2943C97.7977 17.0456 97.7272 16.8715 97.5862 16.772C97.4535 16.6642 97.2544 16.6104 96.9889 16.6104C96.7483 16.6104 96.4746 16.6186 96.1676 16.6352C95.8607 16.6518 95.5579 16.6725 95.2592 16.6974C94.9606 16.7223 94.7034 16.7471 94.4877 16.772L94.4255 15.4539C94.6495 15.3958 94.915 15.3419 95.2219 15.2922C95.5371 15.2342 95.8648 15.1886 96.205 15.1554C96.5451 15.114 96.8645 15.0932 97.1631 15.0932C97.7023 15.0932 98.1586 15.1595 98.5319 15.2922C98.9135 15.4165 99.2039 15.6321 99.403 15.9388C99.6021 16.2373 99.7016 16.656 99.7016 17.1948V19.9306C99.7265 20.0301 99.7846 20.1089 99.8758 20.1669C99.9754 20.2167 100.083 20.254 100.199 20.2788L100.162 21.5472C100.038 21.5555 99.9049 21.5638 99.7638 21.5721C99.6228 21.5887 99.4901 21.5928 99.3656 21.5846C99.2412 21.5846 99.1375 21.5804 99.0546 21.5721C98.8389 21.5472 98.6522 21.4975 98.4946 21.4229C98.3453 21.34 98.2333 21.2571 98.1586 21.1742C98.0259 21.2322 97.8517 21.2985 97.636 21.3732C97.4203 21.4478 97.1839 21.5099 96.9267 21.5597C96.6778 21.6094 96.4206 21.6343 96.1552 21.6343ZM96.628 20.254C96.7691 20.254 96.9101 20.2374 97.0511 20.2042C97.2004 20.1711 97.3415 20.1337 97.4742 20.0923C97.6069 20.0508 97.7148 20.0135 97.7977 19.9804V18.7493L96.7027 18.8487C96.4704 18.8736 96.3004 18.9482 96.1925 19.0726C96.0847 19.1886 96.0307 19.3545 96.0307 19.57C96.0307 19.7773 96.0805 19.9431 96.1801 20.0674C96.2796 20.1918 96.4289 20.254 96.628 20.254Z" fill="#00458E"/>
<path d="M103.388 21.6343C103.081 21.6343 102.766 21.6177 102.443 21.5846C102.119 21.5514 101.82 21.5141 101.547 21.4726C101.273 21.4229 101.045 21.3773 100.862 21.3358L100.925 19.9679C101.14 19.9928 101.385 20.0218 101.659 20.055C101.932 20.0881 102.202 20.1172 102.468 20.142C102.733 20.1669 102.949 20.1793 103.115 20.1793C103.339 20.1793 103.521 20.1628 103.662 20.1296C103.803 20.0964 103.907 20.0384 103.973 19.9555C104.048 19.8726 104.085 19.7565 104.085 19.6073C104.085 19.4995 104.048 19.4125 103.973 19.3462C103.907 19.2798 103.782 19.226 103.6 19.1845C103.426 19.1348 103.164 19.085 102.816 19.0353C102.351 18.969 101.97 18.8736 101.671 18.7493C101.372 18.6166 101.153 18.4259 101.012 18.1772C100.879 17.9202 100.813 17.5803 100.813 17.1575C100.813 16.6186 100.925 16.2 101.148 15.9015C101.381 15.6031 101.688 15.3958 102.069 15.2798C102.451 15.1554 102.87 15.0932 103.326 15.0932C103.641 15.0932 103.957 15.1098 104.272 15.143C104.595 15.1678 104.894 15.201 105.168 15.2425C105.442 15.2839 105.67 15.3254 105.852 15.3668L105.79 16.7845C105.583 16.7513 105.338 16.7223 105.056 16.6974C104.782 16.6642 104.508 16.6394 104.235 16.6228C103.969 16.6062 103.745 16.5979 103.563 16.5979C103.388 16.5979 103.235 16.6145 103.102 16.6477C102.978 16.6725 102.882 16.7223 102.816 16.7969C102.75 16.8632 102.716 16.9627 102.716 17.0953C102.716 17.1948 102.745 17.2777 102.803 17.3441C102.862 17.4021 102.978 17.456 103.152 17.5057C103.326 17.5472 103.579 17.5886 103.911 17.6301C104.417 17.6964 104.824 17.8 105.13 17.941C105.437 18.0819 105.657 18.2809 105.79 18.5379C105.923 18.7866 105.989 19.1265 105.989 19.5576C105.989 20.0633 105.89 20.4695 105.69 20.7762C105.491 21.0747 105.197 21.2944 104.807 21.4353C104.417 21.568 103.944 21.6343 103.388 21.6343Z" fill="#00458E"/>
<path d="M108.696 21.6343C108.016 21.6343 107.506 21.4685 107.165 21.1369C106.834 20.8053 106.668 20.2996 106.668 19.6197C106.668 19.1389 106.755 18.77 106.929 18.513C107.112 18.2477 107.373 18.057 107.713 17.941C108.053 17.8249 108.464 17.7544 108.945 17.7296L110.339 17.6176V17.2943C110.339 17.0456 110.268 16.8715 110.127 16.772C109.994 16.6642 109.795 16.6104 109.53 16.6104C109.289 16.6104 109.015 16.6186 108.708 16.6352C108.402 16.6518 108.099 16.6725 107.8 16.6974C107.501 16.7223 107.244 16.7471 107.029 16.772L106.966 15.4539C107.19 15.3958 107.456 15.3419 107.763 15.2922C108.078 15.2342 108.406 15.1886 108.746 15.1554C109.086 15.114 109.405 15.0932 109.704 15.0932C110.243 15.0932 110.699 15.1595 111.073 15.2922C111.454 15.4165 111.745 15.6321 111.944 15.9388C112.143 16.2373 112.242 16.656 112.242 17.1948V19.9306C112.267 20.0301 112.325 20.1089 112.417 20.1669C112.516 20.2167 112.624 20.254 112.74 20.2788L112.703 21.5472C112.578 21.5555 112.446 21.5638 112.305 21.5721C112.164 21.5887 112.031 21.5928 111.907 21.5846C111.782 21.5846 111.678 21.5804 111.595 21.5721C111.38 21.5472 111.193 21.4975 111.035 21.4229C110.886 21.34 110.774 21.2571 110.699 21.1742C110.567 21.2322 110.393 21.2985 110.177 21.3732C109.961 21.4478 109.725 21.5099 109.468 21.5597C109.219 21.6094 108.962 21.6343 108.696 21.6343ZM109.169 20.254C109.31 20.254 109.451 20.2374 109.592 20.2042C109.741 20.1711 109.882 20.1337 110.015 20.0923C110.148 20.0508 110.256 20.0135 110.339 19.9804V18.7493L109.244 18.8487C109.011 18.8736 108.841 18.9482 108.733 19.0726C108.626 19.1886 108.572 19.3545 108.572 19.57C108.572 19.7773 108.621 19.9431 108.721 20.0674C108.82 20.1918 108.97 20.254 109.169 20.254Z" fill="#00458E"/>
<path d="M113.565 21.4851V15.23H115.456V15.6155C115.589 15.5326 115.747 15.4539 115.929 15.3792C116.112 15.2963 116.303 15.23 116.502 15.1803C116.709 15.1222 116.904 15.0932 117.086 15.0932C117.526 15.0932 117.891 15.1513 118.182 15.2673C118.472 15.3751 118.704 15.5533 118.878 15.8021C119.053 16.0508 119.177 16.3782 119.252 16.7845C119.326 17.1907 119.364 17.684 119.364 18.2643V21.4851H117.46V18.3762C117.46 17.9866 117.435 17.6715 117.385 17.4311C117.335 17.1907 117.248 17.0166 117.124 16.9088C116.999 16.801 116.821 16.7471 116.589 16.7471C116.456 16.7471 116.319 16.7596 116.178 16.7845C116.037 16.8093 115.904 16.8425 115.78 16.8839C115.655 16.9254 115.552 16.9668 115.469 17.0083V21.4851H113.565Z" fill="#00458E"/>
<path d="M123.301 21.4851V13.0289H126.511C127.25 13.0289 127.859 13.1243 128.34 13.315C128.83 13.5056 129.195 13.8207 129.435 14.26C129.684 14.6911 129.809 15.2881 129.809 16.0508C129.809 16.7969 129.684 17.4021 129.435 17.8663C129.195 18.3223 128.83 18.6539 128.34 18.8612C127.859 19.0684 127.25 19.1721 126.511 19.1721H125.267V21.4851H123.301ZM125.267 17.5803H126.449C126.93 17.5803 127.274 17.456 127.482 17.2073C127.697 16.9503 127.805 16.5648 127.805 16.0508C127.805 15.5285 127.702 15.1596 127.494 14.944C127.287 14.7285 126.938 14.6207 126.449 14.6207H125.267V17.5803Z" fill="#00458E"/>
<path d="M133.6 21.6343C133.26 21.6343 132.895 21.6136 132.505 21.5721C132.115 21.5307 131.742 21.4809 131.385 21.4229C131.029 21.3649 130.726 21.311 130.477 21.2612L130.589 19.7317C130.846 19.7648 131.149 19.8021 131.497 19.8436C131.846 19.8767 132.194 19.9099 132.543 19.9431C132.891 19.9679 133.194 19.9804 133.451 19.9804C133.733 19.9804 133.961 19.9472 134.135 19.8809C134.318 19.8063 134.451 19.6985 134.534 19.5576C134.617 19.4166 134.658 19.2342 134.658 19.0104C134.658 18.828 134.617 18.6829 134.534 18.5752C134.459 18.4674 134.318 18.3803 134.111 18.314C133.911 18.2394 133.621 18.1689 133.24 18.1026C132.725 18.0114 132.285 17.9036 131.92 17.7793C131.564 17.6549 131.273 17.4974 131.049 17.3067C130.825 17.1078 130.664 16.8632 130.564 16.5731C130.465 16.2746 130.415 15.9181 130.415 15.5036C130.415 14.8238 130.535 14.2932 130.776 13.9119C131.025 13.5305 131.377 13.2611 131.833 13.1035C132.29 12.946 132.829 12.8673 133.451 12.8673C133.741 12.8673 134.069 12.8839 134.434 12.917C134.799 12.9502 135.156 12.9875 135.504 13.0289C135.853 13.0704 136.155 13.116 136.413 13.1657L136.326 14.7202C136.077 14.687 135.786 14.658 135.454 14.6331C135.123 14.6 134.791 14.5751 134.459 14.5585C134.135 14.5336 133.853 14.5212 133.613 14.5212C133.339 14.5212 133.111 14.5502 132.928 14.6082C132.746 14.658 132.609 14.7409 132.518 14.857C132.435 14.973 132.393 15.1222 132.393 15.3046C132.393 15.5119 132.435 15.6735 132.518 15.7896C132.609 15.8974 132.758 15.9886 132.966 16.0632C133.181 16.1378 133.48 16.2166 133.862 16.2995C134.376 16.4155 134.807 16.5357 135.156 16.6601C135.513 16.7845 135.799 16.9378 136.014 17.1202C136.238 17.2943 136.396 17.5223 136.487 17.8042C136.587 18.086 136.637 18.4425 136.637 18.8736C136.637 19.5368 136.516 20.0716 136.276 20.4778C136.043 20.884 135.699 21.1783 135.243 21.3607C134.795 21.5431 134.247 21.6343 133.6 21.6343Z" fill="#00458E"/>
<path d="M137.677 21.4851V13.0289H143.45V14.6331H139.643V16.4114H142.704V18.0031H139.643V19.8685H143.45V21.4851H137.677Z" fill="#00458E"/>
<path d="M50.7532 33.9206V25.4644H52.7193V32.2791H55.9422V33.9206H50.7532Z" fill="#00458E"/>
<path d="M56.6935 33.9206V27.6655H58.5974V33.9206H56.6935ZM56.6935 26.795V25.2779H58.5974V26.795H56.6935Z" fill="#00458E"/>
<path d="M59.8166 33.9206V27.6655H61.708V28.051C61.8408 27.9681 61.9984 27.8893 62.1809 27.8147C62.3634 27.7318 62.5542 27.6655 62.7533 27.6158C62.9607 27.5577 63.1556 27.5287 63.3381 27.5287C63.7778 27.5287 64.1428 27.5868 64.4332 27.7028C64.7235 27.8106 64.9558 27.9888 65.13 28.2375C65.3042 28.4863 65.4287 28.8137 65.5033 29.2199C65.578 29.6262 65.6153 30.1194 65.6153 30.6998V33.9206H63.7115V30.8117C63.7115 30.422 63.6866 30.107 63.6368 29.8666C63.587 29.6262 63.4999 29.4521 63.3755 29.3443C63.251 29.2365 63.0727 29.1826 62.8404 29.1826C62.7077 29.1826 62.5708 29.1951 62.4298 29.2199C62.2887 29.2448 62.156 29.278 62.0316 29.3194C61.9071 29.3609 61.8034 29.4023 61.7205 29.4438V33.9206H59.8166Z" fill="#00458E"/>
<path d="M69.6296 36.7434C68.9659 36.7434 68.4018 36.6937 67.9372 36.5942C67.4727 36.503 67.1201 36.3289 66.8795 36.0719C66.6473 35.8149 66.5311 35.4418 66.5311 34.9527C66.5311 34.7372 66.5601 34.5465 66.6182 34.3807C66.6763 34.2149 66.7717 34.0573 66.9044 33.9081C67.0372 33.7506 67.2072 33.5931 67.4146 33.4356C67.2985 33.3444 67.2031 33.22 67.1284 33.0625C67.0537 32.8967 67.0164 32.7185 67.0164 32.5278C67.0164 32.4615 67.0455 32.3744 67.1035 32.2666C67.1699 32.1506 67.2487 32.0345 67.34 31.9184C67.4312 31.7941 67.5183 31.6863 67.6013 31.5951C67.4354 31.5122 67.2777 31.4003 67.1284 31.2594C66.9791 31.1101 66.8546 30.9112 66.7551 30.6625C66.6556 30.4138 66.6058 30.0987 66.6058 29.7174C66.6058 29.1785 66.7053 28.7515 66.9044 28.4365C67.1118 28.1132 67.4146 27.8811 67.8128 27.7401C68.2193 27.5992 68.7212 27.5287 69.3185 27.5287C69.5259 27.5287 69.754 27.5453 70.0029 27.5785C70.2601 27.6033 70.4633 27.6365 70.6126 27.6779L72.6907 27.6282V28.8718L71.8197 28.8593C71.8943 28.9505 71.9565 29.0666 72.0063 29.2075C72.0561 29.3484 72.081 29.5184 72.081 29.7174C72.081 30.2977 71.9814 30.7454 71.7823 31.0604C71.5832 31.3754 71.2846 31.5951 70.8864 31.7195C70.4882 31.8355 69.978 31.8936 69.3558 31.8936C69.2895 31.8936 69.2024 31.8894 69.0945 31.8811C68.9867 31.8646 68.8954 31.8521 68.8207 31.8438C68.7959 31.9102 68.7668 31.9889 68.7336 32.0801C68.7005 32.163 68.6839 32.2252 68.6839 32.2666C68.6839 32.3413 68.7046 32.3993 68.7461 32.4407C68.7876 32.4822 68.8622 32.5153 68.9701 32.5402C69.0779 32.5651 69.2314 32.5817 69.4305 32.59C69.6379 32.5983 69.9116 32.6024 70.2518 32.6024C70.8408 32.6024 71.3095 32.6604 71.6579 32.7765C72.0063 32.8843 72.2552 33.0791 72.4045 33.361C72.5538 33.6345 72.6285 34.02 72.6285 34.5175C72.6285 35.2636 72.363 35.819 71.8321 36.1838C71.3012 36.5569 70.567 36.7434 69.6296 36.7434ZM69.5176 35.3631C69.9987 35.3631 70.343 35.3133 70.5504 35.2139C70.7578 35.1144 70.8615 34.9486 70.8615 34.7164C70.8615 34.5423 70.8242 34.4097 70.7495 34.3185C70.6749 34.2356 70.5504 34.1817 70.3762 34.1568C70.2103 34.132 69.9822 34.1195 69.6918 34.1195C69.6088 34.1195 69.5093 34.1154 69.3932 34.1071C69.277 34.1071 69.165 34.1029 69.0572 34.0947C68.9493 34.0947 68.8498 34.0905 68.7585 34.0822C68.6673 34.0822 68.6009 34.0781 68.5594 34.0698C68.4599 34.1361 68.3811 34.2024 68.323 34.2688C68.2649 34.3351 68.2235 34.4014 68.1986 34.4677C68.1737 34.5423 68.1612 34.6294 68.1612 34.7289C68.1612 34.8864 68.2027 35.0107 68.2857 35.1019C68.3769 35.1931 68.5221 35.2594 68.7212 35.3009C68.9203 35.3424 69.1858 35.3631 69.5176 35.3631ZM69.3309 30.5878C69.6628 30.5878 69.8992 30.5215 70.0402 30.3889C70.1895 30.2479 70.2642 30.02 70.2642 29.7049C70.2642 29.3899 70.1895 29.1661 70.0402 29.0334C69.8992 28.8925 69.6628 28.822 69.3309 28.822C69.0074 28.822 68.7751 28.8925 68.6341 29.0334C68.4931 29.1661 68.4225 29.3899 68.4225 29.7049C68.4225 30.02 68.4931 30.2479 68.6341 30.3889C68.7751 30.5215 69.0074 30.5878 69.3309 30.5878Z" fill="#00458E"/>
<path d="M73.4755 33.9206V25.1784H75.3793V29.9412L76.0264 29.9288L77.1588 27.6655H79.1124L77.6814 30.6252L79.1995 33.9206H77.2334L76.0513 31.5827L75.3793 31.6076V33.9206H73.4755Z" fill="#00458E"/>
<path d="M81.9443 34.0698C81.4051 34.0698 80.982 33.9537 80.6751 33.7216C80.3764 33.4812 80.1649 33.1288 80.0405 32.6646C79.916 32.2003 79.8538 31.6158 79.8538 30.9112V27.6655H81.7577V30.8241C81.7577 31.2221 81.7784 31.5371 81.8199 31.7692C81.8614 32.0013 81.9443 32.1672 82.0688 32.2666C82.1932 32.3578 82.3716 32.4034 82.6038 32.4034C82.8195 32.4034 83.0269 32.3786 83.226 32.3288C83.4251 32.2708 83.5827 32.2128 83.6989 32.1547V27.6655H85.6028V33.9206H83.7113V33.5599C83.4293 33.7092 83.1514 33.8294 82.8776 33.9206C82.6121 34.02 82.3011 34.0698 81.9443 34.0698Z" fill="#00458E"/>
<path d="M86.8184 36.5071V27.6655H88.6973L88.7098 28.051C88.8259 27.9764 88.967 27.8976 89.1329 27.8147C89.3071 27.7318 89.4937 27.6655 89.6928 27.6158C89.8919 27.5577 90.0869 27.5287 90.2777 27.5287C90.8418 27.5287 91.2981 27.6531 91.6465 27.9018C91.9949 28.1422 92.2479 28.5028 92.4056 28.9837C92.5632 29.4645 92.642 30.0656 92.642 30.7868C92.642 31.5495 92.5507 32.1754 92.3682 32.6646C92.194 33.1454 91.9078 33.5019 91.5096 33.734C91.1114 33.9579 90.5805 34.0698 89.9168 34.0698C89.7177 34.0698 89.502 34.0491 89.2698 34.0076C89.0458 33.9744 88.8633 33.9454 88.7222 33.9206V36.5071H86.8184ZM89.5684 32.5029C89.8671 32.5029 90.0993 32.4366 90.2652 32.3039C90.4312 32.163 90.5473 31.964 90.6137 31.707C90.6883 31.4418 90.7257 31.1184 90.7257 30.7371C90.7257 30.1153 90.6427 29.6883 90.4768 29.4562C90.3109 29.2241 90.0662 29.108 89.7426 29.108C89.6348 29.108 89.5145 29.1246 89.3817 29.1578C89.2573 29.1826 89.137 29.2158 89.0209 29.2573C88.9047 29.2987 88.8052 29.3402 88.7222 29.3816V32.4159C88.8052 32.4324 88.9255 32.4532 89.0831 32.478C89.249 32.4946 89.4108 32.5029 89.5684 32.5029Z" fill="#00458E"/>
<path d="M96.4448 33.9206V25.4644H99.6553C100.394 25.4644 101.003 25.5598 101.484 25.7504C101.974 25.9411 102.339 26.2562 102.58 26.6955C102.828 27.1266 102.953 27.7235 102.953 28.4863C102.953 29.2324 102.828 29.8376 102.58 30.3018C102.339 30.7578 101.974 31.0894 101.484 31.2967C101.003 31.5039 100.394 31.6076 99.6553 31.6076H98.4109V33.9206H96.4448ZM98.4109 30.0158H99.593C100.074 30.0158 100.418 29.8915 100.626 29.6428C100.842 29.3858 100.949 29.0003 100.949 28.4863C100.949 27.964 100.846 27.595 100.638 27.3795C100.431 27.1639 100.082 27.0562 99.593 27.0562H98.4109V30.0158Z" fill="#00458E"/>
<path d="M103.843 33.9206V27.6655H105.747V28.3743C105.88 28.2666 106.046 28.1546 106.245 28.0386C106.444 27.9142 106.656 27.8023 106.88 27.7028C107.104 27.6033 107.319 27.5412 107.527 27.5163V29.3319C107.328 29.3567 107.116 29.4065 106.892 29.4811C106.668 29.5474 106.456 29.6262 106.257 29.7174C106.058 29.8003 105.888 29.879 105.747 29.9536V33.9206H103.843Z" fill="#00458E"/>
<path d="M108.303 33.9206V27.6655H110.207V33.9206H108.303ZM108.303 26.795V25.2779H110.207V26.795H108.303Z" fill="#00458E"/>
<path d="M112.359 33.9206L110.966 27.6655H112.994L113.915 32.3164H114.226L115.159 27.6655H117.076L115.682 33.9206H112.359Z" fill="#00458E"/>
<path d="M119.499 34.0698C118.819 34.0698 118.309 33.904 117.969 33.5724C117.637 33.2408 117.471 32.735 117.471 32.0552C117.471 31.5744 117.558 31.2055 117.732 30.9485C117.915 30.6832 118.176 30.4925 118.516 30.3764C118.856 30.2604 119.267 30.1899 119.748 30.165L121.142 30.0531V29.7298C121.142 29.4811 121.071 29.307 120.93 29.2075C120.797 29.0997 120.598 29.0458 120.333 29.0458C120.092 29.0458 119.819 29.0541 119.512 29.0707C119.205 29.0873 118.902 29.108 118.603 29.1329C118.305 29.1578 118.047 29.1826 117.832 29.2075L117.77 27.8893C117.994 27.8313 118.259 27.7774 118.566 27.7277C118.881 27.6697 119.209 27.6241 119.549 27.5909C119.889 27.5494 120.208 27.5287 120.507 27.5287C121.046 27.5287 121.503 27.595 121.876 27.7277C122.258 27.852 122.548 28.0676 122.747 28.3743C122.946 28.6728 123.046 29.0914 123.046 29.6303V32.3661C123.071 32.4656 123.129 32.5444 123.22 32.6024C123.319 32.6521 123.427 32.6894 123.543 32.7143L123.506 33.9827C123.382 33.991 123.249 33.9993 123.108 34.0076C122.967 34.0242 122.834 34.0283 122.71 34.02C122.585 34.02 122.482 34.0159 122.399 34.0076C122.183 33.9827 121.996 33.933 121.839 33.8584C121.689 33.7755 121.577 33.6926 121.503 33.6097C121.37 33.6677 121.196 33.734 120.98 33.8086C120.764 33.8833 120.528 33.9454 120.271 33.9952C120.022 34.0449 119.765 34.0698 119.499 34.0698ZM119.972 32.6894C120.113 32.6894 120.254 32.6729 120.395 32.6397C120.544 32.6065 120.685 32.5692 120.818 32.5278C120.951 32.4863 121.059 32.449 121.142 32.4159V31.1848L120.047 31.2842C119.814 31.3091 119.644 31.3837 119.537 31.5081C119.429 31.6241 119.375 31.7899 119.375 32.0055C119.375 32.2128 119.425 32.3786 119.524 32.5029C119.624 32.6273 119.773 32.6894 119.972 32.6894Z" fill="#00458E"/>
<path d="M126.535 34.0698C126.07 34.0698 125.693 34.0076 125.403 33.8833C125.112 33.7506 124.901 33.5226 124.768 33.1993C124.644 32.8677 124.581 32.4034 124.581 31.8065V29.2324H123.909V27.6655H124.581V26.1111H126.485V27.6655H127.954V29.2324H126.485V31.334C126.485 31.6158 126.498 31.8355 126.523 31.9931C126.556 32.1506 126.618 32.2625 126.709 32.3288C126.8 32.3951 126.937 32.4283 127.12 32.4283C127.17 32.4283 127.248 32.4242 127.356 32.4159C127.464 32.4076 127.572 32.4034 127.68 32.4034C127.796 32.3951 127.883 32.3869 127.941 32.3786L127.991 33.8833C127.858 33.9081 127.701 33.933 127.518 33.9579C127.344 33.991 127.165 34.0159 126.983 34.0325C126.809 34.0573 126.659 34.0698 126.535 34.0698Z" fill="#00458E"/>
<path d="M51.7238 47.9105C51.5911 47.6618 51.4501 47.3467 51.3008 46.9654C51.1514 46.5923 51.0146 46.1737 50.8901 45.7094C50.7657 45.2369 50.662 44.7394 50.579 44.2171C50.5044 43.6866 50.467 43.1518 50.467 42.613C50.467 42.0741 50.5044 41.5352 50.579 40.9964C50.662 40.4492 50.7657 39.9269 50.8901 39.4295C51.0146 38.9321 51.1514 38.4761 51.3008 38.0616C51.4501 37.6471 51.5911 37.303 51.7238 37.0294H53.4784C53.3706 37.3528 53.2544 37.7383 53.13 38.1859C53.0055 38.6253 52.8894 39.0979 52.7816 39.6036C52.6737 40.1093 52.5866 40.6191 52.5202 41.1331C52.4539 41.6471 52.4207 42.1404 52.4207 42.613C52.4207 43.0772 52.4539 43.5581 52.5202 44.0555C52.5866 44.5529 52.6737 45.042 52.7816 45.5229C52.8894 45.9954 53.0055 46.4348 53.13 46.841C53.2544 47.2556 53.3706 47.612 53.4784 47.9105H51.7238Z" fill="#00458E"/>
<path d="M57.3344 46.5053C56.9943 46.5053 56.6292 46.4846 56.2393 46.4431C55.8494 46.4016 55.4761 46.3519 55.1194 46.2939C54.7627 46.2358 54.4599 46.182 54.211 46.1322L54.323 44.6026C54.5802 44.6358 54.883 44.6731 55.2314 44.7146C55.5798 44.7477 55.9282 44.7809 56.2767 44.8141C56.6251 44.8389 56.9279 44.8514 57.1851 44.8514C57.4671 44.8514 57.6952 44.8182 57.8695 44.7519C58.052 44.6773 58.1847 44.5695 58.2677 44.4285C58.3506 44.2876 58.3921 44.1052 58.3921 43.8814C58.3921 43.699 58.3506 43.5539 58.2677 43.4461C58.193 43.3384 58.052 43.2513 57.8446 43.185C57.6455 43.1104 57.3551 43.0399 56.9735 42.9736C56.4592 42.8824 56.0195 42.7746 55.6545 42.6503C55.2978 42.5259 55.0074 42.3684 54.7834 42.1777C54.5594 41.9788 54.3977 41.7342 54.2981 41.444C54.1986 41.1456 54.1488 40.7891 54.1488 40.3746C54.1488 39.6948 54.2691 39.1642 54.5097 38.7828C54.7585 38.4015 55.1111 38.132 55.5674 37.9745C56.0236 37.817 56.5629 37.7383 57.1851 37.7383C57.4754 37.7383 57.8031 37.7548 58.1681 37.788C58.5331 37.8212 58.8898 37.8585 59.2383 37.8999C59.5867 37.9414 59.8895 37.987 60.1466 38.0367L60.0595 39.5911C59.8107 39.558 59.5203 39.529 59.1885 39.5041C58.8567 39.4709 58.5248 39.4461 58.193 39.4295C57.8695 39.4046 57.5874 39.3922 57.3468 39.3922C57.0731 39.3922 56.8449 39.4212 56.6624 39.4792C56.4799 39.529 56.343 39.6119 56.2518 39.7279C56.1688 39.844 56.1273 39.9932 56.1273 40.1756C56.1273 40.3829 56.1688 40.5445 56.2518 40.6606C56.343 40.7684 56.4924 40.8596 56.6997 40.9342C56.9154 41.0088 57.2141 41.0875 57.5957 41.1704C58.11 41.2865 58.5414 41.4067 58.8898 41.5311C59.2466 41.6554 59.5328 41.8088 59.7484 41.9912C59.9724 42.1653 60.1301 42.3933 60.2213 42.6751C60.3209 42.957 60.3706 43.3135 60.3706 43.7446C60.3706 44.4078 60.2503 44.9425 60.0098 45.3488C59.7775 45.755 59.4332 46.0493 58.9769 46.2317C58.529 46.4141 57.9814 46.5053 57.3344 46.5053Z" fill="#00458E"/>
<path d="M64.1108 46.5053C63.4057 46.5053 62.8291 46.3934 62.3812 46.1695C61.9415 45.9374 61.6179 45.5768 61.4105 45.0876C61.2115 44.5985 61.1119 43.9684 61.1119 43.1974C61.1119 42.4347 61.2156 41.8171 61.423 41.3445C61.6387 40.872 61.9705 40.5238 62.4185 40.3C62.8665 40.0761 63.4306 39.9642 64.1108 39.9642C64.8077 39.9642 65.3759 40.0761 65.8156 40.3C66.2636 40.5238 66.5913 40.872 66.7987 41.3445C67.0143 41.8171 67.1222 42.4347 67.1222 43.1974C67.1222 43.9684 67.0185 44.5985 66.8111 45.0876C66.612 45.5768 66.2885 45.9374 65.8405 46.1695C65.4008 46.3934 64.8243 46.5053 64.1108 46.5053ZM64.1108 44.9384C64.4178 44.9384 64.6459 44.8804 64.7952 44.7643C64.9528 44.6482 65.0565 44.4617 65.1063 44.2047C65.1644 43.9477 65.1934 43.612 65.1934 43.1974C65.1934 42.7746 65.1602 42.443 65.0939 42.2026C65.0275 41.9622 64.9155 41.7881 64.7579 41.6803C64.6086 41.5725 64.3929 41.5186 64.1108 41.5186C63.8371 41.5186 63.6214 41.5725 63.4638 41.6803C63.3061 41.7881 63.1941 41.9663 63.1278 42.215C63.0614 42.4555 63.0282 42.7829 63.0282 43.1974C63.0282 43.612 63.0573 43.9477 63.1153 44.2047C63.1734 44.4617 63.2771 44.6482 63.4264 44.7643C63.584 44.8804 63.8122 44.9384 64.1108 44.9384Z" fill="#00458E"/>
<path d="M68.7898 46.3561L67.6948 40.101H69.748L70.4075 44.7519H70.5817L71.4403 40.2502H73.2322L74.1406 44.7519H74.3148L74.9868 40.101H76.8658L75.8329 46.3561H73.0082L72.2741 42.6254L71.5274 46.3561H68.7898Z" fill="#00458E"/>
<path d="M79.4462 46.5053C78.7659 46.5053 78.2557 46.3395 77.9156 46.0079C77.5838 45.6762 77.4179 45.1705 77.4179 44.4907C77.4179 44.0099 77.505 43.641 77.6792 43.384C77.8617 43.1187 78.123 42.928 78.4631 42.8119C78.8032 42.6959 79.2139 42.6254 79.695 42.6005L81.0887 42.4886V42.1653C81.0887 41.9166 81.0182 41.7425 80.8772 41.643C80.7445 41.5352 80.5454 41.4813 80.2799 41.4813C80.0393 41.4813 79.7656 41.4896 79.4586 41.5062C79.1517 41.5228 78.8489 41.5435 78.5502 41.5684C78.2516 41.5933 77.9944 41.6181 77.7787 41.643L77.7165 40.3248C77.9405 40.2668 78.206 40.2129 78.5129 40.1632C78.8281 40.1051 79.1558 40.0595 79.4959 40.0264C79.8361 39.9849 80.1555 39.9642 80.4541 39.9642C80.9933 39.9642 81.4496 40.0305 81.8229 40.1632C82.2045 40.2875 82.4949 40.5031 82.694 40.8098C82.8931 41.1083 82.9926 41.5269 82.9926 42.0658V44.8016C83.0175 44.9011 83.0756 44.9799 83.1668 45.0379C83.2664 45.0876 83.3742 45.1249 83.4904 45.1498L83.453 46.4182C83.3286 46.4265 83.1959 46.4348 83.0548 46.4431C82.9138 46.4597 82.7811 46.4638 82.6566 46.4555C82.5322 46.4555 82.4285 46.4514 82.3455 46.4431C82.1299 46.4182 81.9432 46.3685 81.7856 46.2939C81.6363 46.211 81.5243 46.1281 81.4496 46.0452C81.3169 46.1032 81.1427 46.1695 80.927 46.2441C80.7113 46.3187 80.4748 46.3809 80.2177 46.4307C79.9688 46.4804 79.7116 46.5053 79.4462 46.5053ZM79.919 45.1249C80.0601 45.1249 80.2011 45.1084 80.3421 45.0752C80.4914 45.042 80.6325 45.0047 80.7652 44.9633C80.8979 44.9218 81.0058 44.8845 81.0887 44.8514V43.6202L79.9937 43.7197C79.7614 43.7446 79.5913 43.8192 79.4835 43.9436C79.3757 44.0596 79.3217 44.2254 79.3217 44.441C79.3217 44.6482 79.3715 44.8141 79.4711 44.9384C79.5706 45.0628 79.7199 45.1249 79.919 45.1249Z" fill="#00458E"/>
<path d="M84.315 46.3561V40.101H86.2065V40.4865C86.3392 40.4036 86.4968 40.3248 86.6793 40.2502C86.8618 40.1673 87.0526 40.101 87.2517 40.0513C87.4591 39.9932 87.6541 39.9642 87.8366 39.9642C88.2763 39.9642 88.6413 40.0222 88.9316 40.1383C89.222 40.2461 89.4543 40.4243 89.6285 40.673C89.8027 40.9217 89.9271 41.2492 90.0018 41.6554C90.0765 42.0617 90.1138 42.5549 90.1138 43.1353V46.3561H88.2099V43.2472C88.2099 42.8575 88.185 42.5425 88.1352 42.3021C88.0855 42.0617 87.9984 41.8876 87.8739 41.7798C87.7495 41.672 87.5711 41.6181 87.3389 41.6181C87.2061 41.6181 87.0692 41.6306 86.9282 41.6554C86.7872 41.6803 86.6545 41.7135 86.53 41.7549C86.4056 41.7964 86.3019 41.8378 86.2189 41.8793V46.3561H84.315Z" fill="#00458E"/>
<path d="M94.0508 46.3561V37.8999H97.2613C97.9996 37.8999 98.6094 37.9953 99.0905 38.1859C99.58 38.3766 99.945 38.6916 100.186 39.131C100.434 39.5621 100.559 40.159 100.559 40.9217C100.559 41.6679 100.434 42.2731 100.186 42.7373C99.945 43.1933 99.58 43.5249 99.0905 43.7322C98.6094 43.9394 97.9996 44.043 97.2613 44.043H96.0169V46.3561H94.0508ZM96.0169 42.4513H97.1991C97.6802 42.4513 98.0245 42.327 98.2319 42.0782C98.4476 41.8212 98.5554 41.4357 98.5554 40.9217C98.5554 40.3994 98.4518 40.0305 98.2444 39.815C98.037 39.5994 97.6885 39.4917 97.1991 39.4917H96.0169V42.4513Z" fill="#00458E"/>
<path d="M104.35 46.5053C104.01 46.5053 103.645 46.4846 103.255 46.4431C102.866 46.4016 102.492 46.3519 102.136 46.2939C101.779 46.2358 101.476 46.182 101.227 46.1322L101.339 44.6026C101.596 44.6358 101.899 44.6731 102.248 44.7146C102.596 44.7477 102.944 44.7809 103.293 44.8141C103.641 44.8389 103.944 44.8514 104.201 44.8514C104.483 44.8514 104.711 44.8182 104.886 44.7519C105.068 44.6773 105.201 44.5695 105.284 44.4285C105.367 44.2876 105.408 44.1052 105.408 43.8814C105.408 43.699 105.367 43.5539 105.284 43.4461C105.209 43.3384 105.068 43.2513 104.861 43.185C104.662 43.1104 104.371 43.0399 103.99 42.9736C103.475 42.8824 103.036 42.7746 102.671 42.6503C102.314 42.5259 102.024 42.3684 101.8 42.1777C101.576 41.9788 101.414 41.7342 101.314 41.444C101.215 41.1456 101.165 40.7891 101.165 40.3746C101.165 39.6948 101.285 39.1642 101.526 38.7828C101.775 38.4015 102.127 38.132 102.583 37.9745C103.04 37.817 103.579 37.7383 104.201 37.7383C104.492 37.7383 104.819 37.7548 105.184 37.788C105.549 37.8212 105.906 37.8585 106.254 37.8999C106.603 37.9414 106.906 37.987 107.163 38.0367L107.076 39.5911C106.827 39.558 106.536 39.529 106.205 39.5041C105.873 39.4709 105.541 39.4461 105.209 39.4295C104.886 39.4046 104.604 39.3922 104.363 39.3922C104.089 39.3922 103.861 39.4212 103.679 39.4792C103.496 39.529 103.359 39.6119 103.268 39.7279C103.185 39.844 103.143 39.9932 103.143 40.1756C103.143 40.3829 103.185 40.5445 103.268 40.6606C103.359 40.7684 103.508 40.8596 103.716 40.9342C103.932 41.0088 104.23 41.0875 104.612 41.1704C105.126 41.2865 105.558 41.4067 105.906 41.5311C106.263 41.6554 106.549 41.8088 106.765 41.9912C106.989 42.1653 107.146 42.3933 107.237 42.6751C107.337 42.957 107.387 43.3135 107.387 43.7446C107.387 44.4078 107.266 44.9425 107.026 45.3488C106.794 45.755 106.449 46.0493 105.993 46.2317C105.545 46.4141 104.998 46.5053 104.35 46.5053Z" fill="#00458E"/>
<path d="M108.427 46.3561V37.8999H114.201V39.5041H110.393V41.2824H113.454V42.8741H110.393V44.7394H114.201V46.3561H108.427Z" fill="#00458E"/>
<path d="M117.978 46.3561V37.8999H121.189C121.927 37.8999 122.537 37.9953 123.018 38.1859C123.507 38.3766 123.872 38.6916 124.113 39.131C124.362 39.5621 124.486 40.159 124.486 40.9217C124.486 41.6679 124.362 42.2731 124.113 42.7373C123.872 43.1933 123.507 43.5249 123.018 43.7322C122.537 43.9394 121.927 44.043 121.189 44.043H119.944V46.3561H117.978ZM119.944 42.4513H121.126C121.608 42.4513 121.952 42.327 122.159 42.0782C122.375 41.8212 122.483 41.4357 122.483 40.9217C122.483 40.3994 122.379 40.0305 122.172 39.815C121.964 39.5994 121.616 39.4917 121.126 39.4917H119.944V42.4513Z" fill="#00458E"/>
<path d="M125.377 46.3561V40.101H127.281V40.8098C127.413 40.702 127.579 40.5901 127.778 40.4741C127.977 40.3497 128.189 40.2378 128.413 40.1383C128.637 40.0388 128.853 39.9766 129.06 39.9518V41.7674C128.861 41.7922 128.649 41.842 128.425 41.9166C128.201 41.9829 127.99 42.0617 127.791 42.1529C127.592 42.2358 127.422 42.3145 127.281 42.3891V46.3561H125.377Z" fill="#00458E"/>
<path d="M129.836 46.3561V40.101H131.74V46.3561H129.836ZM129.836 39.2305V37.7134H131.74V39.2305H129.836Z" fill="#00458E"/>
<path d="M133.893 46.3561L132.499 40.101H134.527L135.448 44.7519H135.759L136.693 40.101H138.609L137.215 46.3561H133.893Z" fill="#00458E"/>
<path d="M141.033 46.5053C140.352 46.5053 139.842 46.3395 139.502 46.0079C139.17 45.6762 139.004 45.1705 139.004 44.4907C139.004 44.0099 139.091 43.641 139.266 43.384C139.448 43.1187 139.709 42.928 140.05 42.8119C140.39 42.6959 140.8 42.6254 141.281 42.6005L142.675 42.4886V42.1653C142.675 41.9166 142.605 41.7425 142.464 41.643C142.331 41.5352 142.132 41.4813 141.866 41.4813C141.626 41.4813 141.352 41.4896 141.045 41.5062C140.738 41.5228 140.435 41.5435 140.137 41.5684C139.838 41.5933 139.581 41.6181 139.365 41.643L139.303 40.3248C139.527 40.2668 139.792 40.2129 140.099 40.1632C140.415 40.1051 140.742 40.0595 141.082 40.0264C141.422 39.9849 141.742 39.9642 142.04 39.9642C142.58 39.9642 143.036 40.0305 143.409 40.1632C143.791 40.2875 144.081 40.5031 144.28 40.8098C144.479 41.1083 144.579 41.5269 144.579 42.0658V44.8016C144.604 44.9011 144.662 44.9799 144.753 45.0379C144.853 45.0876 144.961 45.1249 145.077 45.1498L145.039 46.4182C144.915 46.4265 144.782 46.4348 144.641 46.4431C144.5 46.4597 144.367 46.4638 144.243 46.4555C144.119 46.4555 144.015 46.4514 143.932 46.4431C143.716 46.4182 143.53 46.3685 143.372 46.2939C143.223 46.211 143.111 46.1281 143.036 46.0452C142.903 46.1032 142.729 46.1695 142.513 46.2441C142.298 46.3187 142.061 46.3809 141.804 46.4307C141.555 46.4804 141.298 46.5053 141.033 46.5053ZM141.505 45.1249C141.646 45.1249 141.787 45.1084 141.928 45.0752C142.078 45.042 142.219 45.0047 142.352 44.9633C142.484 44.9218 142.592 44.8845 142.675 44.8514V43.6202L141.58 43.7197C141.348 43.7446 141.178 43.8192 141.07 43.9436C140.962 44.0596 140.908 44.2254 140.908 44.441C140.908 44.6482 140.958 44.8141 141.057 44.9384C141.157 45.0628 141.306 45.1249 141.505 45.1249Z" fill="#00458E"/>
<path d="M148.068 46.5053C147.604 46.5053 147.226 46.4431 146.936 46.3187C146.646 46.1861 146.434 45.9581 146.301 45.6348C146.177 45.3032 146.115 44.8389 146.115 44.242V41.6679H145.443V40.101H146.115V38.5466H148.019V40.101H149.487V41.6679H148.019V43.7695C148.019 44.0513 148.031 44.271 148.056 44.4285C148.089 44.5861 148.151 44.698 148.243 44.7643C148.334 44.8306 148.471 44.8638 148.653 44.8638C148.703 44.8638 148.782 44.8596 148.89 44.8514C148.997 44.8431 149.105 44.8389 149.213 44.8389C149.329 44.8306 149.416 44.8223 149.475 44.8141L149.524 46.3187C149.392 46.3436 149.234 46.3685 149.051 46.3934C148.877 46.4265 148.699 46.4514 148.516 46.468C148.342 46.4928 148.193 46.5053 148.068 46.5053Z" fill="#00458E"/>
<path d="M151.731 47.8732H149.989C150.097 47.5664 150.213 47.1975 150.337 46.7664C150.462 46.3436 150.574 45.8876 150.673 45.3985C150.781 44.9011 150.868 44.3995 150.934 43.8938C151.001 43.3881 151.034 42.9031 151.034 42.4389C151.034 41.9746 151.001 41.4896 150.934 40.9839C150.868 40.4782 150.781 39.9808 150.673 39.4917C150.574 38.9942 150.462 38.5341 150.337 38.1113C150.213 37.6802 150.097 37.3072 149.989 36.9921H151.731C151.872 37.2574 152.017 37.589 152.166 37.987C152.316 38.3849 152.453 38.8243 152.577 39.3051C152.701 39.7777 152.801 40.2834 152.876 40.8223C152.959 41.3528 153 41.8917 153 42.4389C153 42.9777 152.959 43.5125 152.876 44.043C152.801 44.5736 152.701 45.0835 152.577 45.5726C152.453 46.0617 152.316 46.5011 152.166 46.8908C152.017 47.2804 151.872 47.6079 151.731 47.8732Z" fill="#00458E"/>
</svg>
