<svg width="175" height="52" viewBox="0 0 175 52" fill="none" xmlns="http://www.w3.org/2000/svg">
<path d="M58.1574 16.7043C57.8079 16.7043 57.4262 16.6813 57.0123 16.6352C56.5984 16.5984 56.1937 16.5524 55.7982 16.4971C55.4119 16.4327 55.0808 16.3774 54.8048 16.3314L54.929 14.8257C55.2141 14.8626 55.5452 14.904 55.9223 14.9501C56.2994 14.9869 56.6719 15.0191 57.0399 15.0467C57.417 15.0744 57.7435 15.0882 58.0194 15.0882C58.5437 15.0882 58.9254 14.9869 59.1645 14.7843C59.4037 14.5725 59.5232 14.2456 59.5232 13.8036C59.5232 13.5641 59.4726 13.3754 59.3715 13.2372C59.2795 13.0899 59.1093 12.9748 58.861 12.8919C58.6127 12.7998 58.2677 12.7123 57.8263 12.6295C57.0904 12.4913 56.4926 12.321 56.0327 12.1184C55.582 11.9158 55.2509 11.6303 55.0394 11.262C54.837 10.8936 54.7358 10.401 54.7358 9.78397C54.7358 9.06569 54.8692 8.50396 55.1359 8.09877C55.4027 7.68438 55.7844 7.3897 56.281 7.21474C56.7777 7.03977 57.3618 6.95229 58.0332 6.95229C58.3367 6.95229 58.6816 6.97071 59.0679 7.00754C59.4634 7.03517 59.8497 7.072 60.2268 7.11805C60.6131 7.16409 60.9397 7.21474 61.2064 7.26999L61.1236 8.78943C60.8477 8.75259 60.5258 8.72036 60.1579 8.69274C59.7992 8.6559 59.4404 8.62367 59.0817 8.59604C58.7322 8.56842 58.4333 8.5546 58.185 8.5546C57.6607 8.5546 57.2744 8.63748 57.0261 8.80324C56.7777 8.969 56.6536 9.23605 56.6536 9.6044C56.6536 9.88066 56.7087 10.0925 56.8191 10.2398C56.9295 10.3871 57.1134 10.5069 57.371 10.5989C57.6377 10.691 58.001 10.7877 58.4609 10.889C59.0036 11.0087 59.4634 11.1376 59.8405 11.2758C60.2268 11.4139 60.535 11.5797 60.7649 11.773C61.004 11.9664 61.1788 12.2151 61.2892 12.519C61.3995 12.8228 61.4547 13.205 61.4547 13.6654C61.4547 14.4021 61.3214 14.9961 61.0546 15.4473C60.7971 15.8893 60.42 16.2116 59.9233 16.4142C59.4358 16.6076 58.8472 16.7043 58.1574 16.7043Z" fill="#00458E"/>
<path d="M62.6642 16.5524V9.61821H64.4991V16.5524H62.6642ZM62.6642 8.51317V6.93848H64.5129V8.51317H62.6642Z" fill="#00458E"/>
<path d="M68.5296 16.7043C68.2261 16.7043 67.8996 16.6859 67.5501 16.6491C67.2098 16.6214 66.8879 16.5846 66.5843 16.5386C66.29 16.4925 66.0371 16.4465 65.8255 16.4004L65.8807 15.0329C66.1198 15.0606 66.3866 15.0928 66.6809 15.1296C66.9844 15.1665 67.2788 15.1987 67.5639 15.2263C67.8582 15.2447 68.0973 15.2539 68.2813 15.2539C68.5572 15.2539 68.7826 15.2309 68.9573 15.1849C69.1413 15.1388 69.2792 15.0652 69.3712 14.9639C69.4632 14.8534 69.5092 14.6968 69.5092 14.4942C69.5092 14.3377 69.4678 14.218 69.385 14.1351C69.3114 14.0522 69.1643 13.9831 68.9435 13.9279C68.732 13.8634 68.4193 13.799 68.0054 13.7345C67.4903 13.6608 67.0626 13.5549 66.7223 13.4168C66.3912 13.2787 66.1474 13.0761 65.9911 12.809C65.8347 12.5328 65.7565 12.1598 65.7565 11.6902C65.7565 11.1192 65.8807 10.6726 66.129 10.3503C66.3774 10.028 66.7085 9.80238 67.1224 9.67346C67.5363 9.53533 67.987 9.46627 68.4744 9.46627C68.7964 9.46627 69.1275 9.48468 69.4678 9.52152C69.8081 9.54915 70.13 9.58598 70.4335 9.63202C70.7371 9.67807 70.99 9.72411 71.1924 9.77015L71.1372 11.1653C70.9072 11.1284 70.6405 11.0962 70.337 11.0686C70.0335 11.0317 69.7299 11.0041 69.4264 10.9857C69.1321 10.9673 68.8837 10.9581 68.6814 10.9581C68.4698 10.9581 68.2813 10.9811 68.1157 11.0271C67.9502 11.064 67.8214 11.1284 67.7294 11.2205C67.6467 11.3126 67.6053 11.4507 67.6053 11.6349C67.6053 11.7638 67.6421 11.8697 67.7156 11.9526C67.7892 12.0355 67.9272 12.1092 68.1295 12.1736C68.3411 12.2289 68.6446 12.2841 69.0401 12.3394C69.6104 12.4223 70.0656 12.5374 70.406 12.6847C70.7463 12.832 70.99 13.0438 71.1372 13.3201C71.2935 13.5964 71.3717 13.9693 71.3717 14.439C71.3717 15.277 71.1234 15.8663 70.6267 16.207C70.1392 16.5386 69.4402 16.7043 68.5296 16.7043Z" fill="#00458E"/>
<path d="M75.0086 16.7181C74.5027 16.7181 74.0934 16.6445 73.7807 16.4971C73.468 16.3498 73.2426 16.0965 73.1047 15.7374C72.9759 15.369 72.9115 14.858 72.9115 14.2041V11.1515H72.0975V9.61821H72.9115V7.78107H74.7465V9.61821H76.5124V11.1515H74.7465V13.7207C74.7465 14.0798 74.7603 14.3607 74.7879 14.5633C74.8246 14.7659 74.8982 14.9086 75.0086 14.9915C75.119 15.0744 75.2891 15.1158 75.5191 15.1158C75.5834 15.1158 75.68 15.1112 75.8088 15.102C75.9376 15.0928 76.0663 15.0836 76.1951 15.0744C76.3239 15.0652 76.4296 15.056 76.5124 15.0467L76.5676 16.5247C76.3469 16.5616 76.0801 16.603 75.7674 16.6491C75.4639 16.6951 75.2109 16.7181 75.0086 16.7181Z" fill="#00458E"/>
<path d="M80.3392 16.7043C79.5758 16.7043 78.9688 16.5754 78.5181 16.3175C78.0766 16.0597 77.7593 15.6683 77.5661 15.1434C77.373 14.6185 77.2764 13.9601 77.2764 13.1682C77.2764 12.3118 77.396 11.6119 77.6351 11.0686C77.8834 10.5253 78.2421 10.1247 78.7112 9.86685C79.1803 9.59979 79.7598 9.46627 80.4496 9.46627C81.4705 9.46627 82.2385 9.72411 82.7536 10.2398C83.2779 10.7555 83.54 11.5705 83.54 12.6847L83.4572 13.7069H79.1251C79.1343 14.2226 79.2401 14.6093 79.4424 14.8672C79.6448 15.125 79.9943 15.2539 80.491 15.2539C80.7761 15.2539 81.0888 15.2493 81.4291 15.2401C81.7694 15.2217 82.1052 15.2033 82.4363 15.1849C82.7766 15.1665 83.0663 15.148 83.3055 15.1296L83.3468 16.4142C83.1169 16.4511 82.8272 16.4925 82.4777 16.5386C82.1282 16.5846 81.7649 16.6214 81.3877 16.6491C81.0198 16.6859 80.6703 16.7043 80.3392 16.7043ZM79.1251 12.5328H81.7051C81.7051 11.9066 81.6039 11.4692 81.4015 11.2205C81.2084 10.9719 80.8911 10.8476 80.4496 10.8476C80.0173 10.8476 79.6862 10.9765 79.4562 11.2343C79.2355 11.4922 79.1251 11.925 79.1251 12.5328Z" fill="#00458E"/>
<path d="M84.7601 16.5524V9.61821H86.5951V10.0602C86.8066 9.93131 87.0917 9.80238 87.4504 9.67346C87.8092 9.53533 88.1495 9.46627 88.4714 9.46627C88.8945 9.46627 89.2394 9.52612 89.5061 9.64584C89.7729 9.75634 89.9936 9.9221 90.1684 10.1431C90.3339 10.0418 90.5409 9.94052 90.7892 9.83922C91.0375 9.73792 91.3089 9.65044 91.6032 9.57677C91.8975 9.5031 92.1826 9.46627 92.4586 9.46627C93.1392 9.46627 93.6589 9.58598 94.0176 9.82541C94.3763 10.0648 94.6246 10.4424 94.7626 10.9581C94.9005 11.4646 94.9695 12.1276 94.9695 12.9472V16.5524H93.1346V13.1129C93.1346 12.6341 93.107 12.2473 93.0518 11.9526C93.0058 11.6487 92.9047 11.4277 92.7483 11.2896C92.6011 11.1515 92.3758 11.0824 92.0723 11.0824C91.8055 11.0824 91.5434 11.1192 91.2859 11.1929C91.0283 11.2666 90.826 11.3402 90.6788 11.4139C90.7248 11.6073 90.757 11.8559 90.7754 12.1598C90.803 12.4637 90.8168 12.7814 90.8168 13.1129V16.5524H88.9818V13.1405C88.9818 12.6525 88.9543 12.2565 88.8991 11.9526C88.8531 11.6487 88.7519 11.4277 88.5955 11.2896C88.4392 11.1515 88.2138 11.0824 87.9195 11.0824C87.662 11.0824 87.4091 11.1192 87.1607 11.1929C86.9216 11.2666 86.733 11.3402 86.5951 11.4139V16.5524H84.7601Z" fill="#00458E"/>
<path d="M99.5427 16.5524V7.11805H103.088C103.87 7.11805 104.519 7.22855 105.034 7.44956C105.549 7.66136 105.935 8.00669 106.193 8.48554C106.459 8.96439 106.593 9.6044 106.593 10.4056C106.593 11.2067 106.459 11.8605 106.193 12.367C105.935 12.8643 105.549 13.2326 105.034 13.4721C104.519 13.7023 103.87 13.8174 103.088 13.8174H101.447V16.5524H99.5427ZM101.447 12.2565H103.033C103.613 12.2565 104.027 12.1046 104.275 11.8007C104.523 11.4876 104.647 11.0271 104.647 10.4194C104.647 9.79318 104.523 9.34655 104.275 9.0795C104.027 8.81245 103.613 8.67892 103.033 8.67892H101.447V12.2565Z" fill="#00458E"/>
<path d="M110.506 16.7043C109.742 16.7043 109.135 16.5754 108.684 16.3175C108.243 16.0597 107.926 15.6683 107.732 15.1434C107.539 14.6185 107.443 13.9601 107.443 13.1682C107.443 12.3118 107.562 11.6119 107.801 11.0686C108.05 10.5253 108.408 10.1247 108.878 9.86685C109.347 9.59979 109.926 9.46627 110.616 9.46627C111.637 9.46627 112.405 9.72411 112.92 10.2398C113.444 10.7555 113.706 11.5705 113.706 12.6847L113.624 13.7069H109.291C109.301 14.2226 109.406 14.6093 109.609 14.8672C109.811 15.125 110.161 15.2539 110.657 15.2539C110.942 15.2539 111.255 15.2493 111.595 15.2401C111.936 15.2217 112.272 15.2033 112.603 15.1849C112.943 15.1665 113.233 15.148 113.472 15.1296L113.513 16.4142C113.283 16.4511 112.994 16.4925 112.644 16.5386C112.295 16.5846 111.931 16.6214 111.554 16.6491C111.186 16.6859 110.837 16.7043 110.506 16.7043ZM109.291 12.5328H111.871C111.871 11.9066 111.77 11.4692 111.568 11.2205C111.375 10.9719 111.057 10.8476 110.616 10.8476C110.184 10.8476 109.853 10.9765 109.623 11.2343C109.402 11.4922 109.291 11.925 109.291 12.5328Z" fill="#00458E"/>
<path d="M114.926 16.5524V9.61821H116.761V10.0602C116.909 9.96814 117.088 9.88066 117.299 9.79778C117.511 9.70569 117.732 9.62742 117.962 9.56296C118.201 9.4985 118.431 9.46627 118.652 9.46627C119.295 9.46627 119.792 9.58138 120.142 9.81159C120.5 10.0326 120.753 10.401 120.9 10.9166C121.048 11.4231 121.121 12.1046 121.121 12.961V16.5524H119.272V13.0577C119.272 12.5788 119.245 12.1966 119.19 11.9112C119.134 11.6165 119.029 11.4047 118.872 11.2758C118.716 11.1469 118.486 11.0824 118.182 11.0824C118.017 11.0824 117.842 11.1008 117.658 11.1376C117.483 11.1653 117.313 11.2067 117.148 11.262C116.991 11.3172 116.863 11.3725 116.761 11.4277V16.5524H114.926Z" fill="#00458E"/>
<path d="M125.601 19.7156C124.865 19.7156 124.249 19.6603 123.753 19.5498C123.265 19.4393 122.897 19.2367 122.649 18.942C122.401 18.6566 122.276 18.2422 122.276 17.6989C122.276 17.4594 122.309 17.243 122.373 17.0496C122.446 16.8655 122.557 16.6905 122.704 16.5247C122.86 16.359 123.054 16.1886 123.283 16.0137C123.155 15.9216 123.049 15.788 122.966 15.6131C122.893 15.4289 122.856 15.2309 122.856 15.0191C122.856 14.9086 122.92 14.7475 123.049 14.5357C123.187 14.3147 123.32 14.1213 123.449 13.9555C123.265 13.8726 123.09 13.7529 122.925 13.5964C122.759 13.4306 122.621 13.2096 122.511 12.9333C122.41 12.6571 122.359 12.3025 122.359 11.8697C122.359 10.9949 122.607 10.3779 123.104 10.0188C123.61 9.65044 124.327 9.46627 125.256 9.46627C125.496 9.46627 125.753 9.48468 126.029 9.52152C126.305 9.55835 126.526 9.59519 126.691 9.63202L128.94 9.59058V10.8338L127.892 10.8199C127.974 10.9305 128.048 11.0732 128.112 11.2482C128.186 11.4139 128.223 11.6211 128.223 11.8697C128.223 12.5051 128.112 12.9978 127.892 13.3477C127.68 13.6977 127.358 13.9417 126.926 14.0798C126.493 14.2088 125.946 14.2732 125.284 14.2732C125.21 14.2732 125.109 14.2686 124.98 14.2594C124.852 14.241 124.746 14.2272 124.663 14.218C124.626 14.31 124.59 14.4159 124.553 14.5357C124.516 14.6462 124.498 14.7244 124.498 14.7705C124.498 14.8902 124.534 14.9823 124.608 15.0467C124.691 15.1112 124.852 15.1572 125.091 15.1849C125.339 15.2033 125.712 15.2125 126.208 15.2125C126.861 15.2125 127.381 15.2724 127.767 15.3921C128.163 15.5118 128.443 15.7236 128.609 16.0275C128.774 16.3314 128.857 16.7596 128.857 17.3121C128.857 18.1317 128.568 18.7348 127.988 19.1216C127.418 19.5176 126.622 19.7156 125.601 19.7156ZM125.505 18.3481C126.075 18.3481 126.484 18.279 126.733 18.1409C126.99 18.0119 127.119 17.7955 127.119 17.4917C127.119 17.2522 127.073 17.0773 126.981 16.9668C126.898 16.8563 126.756 16.7826 126.553 16.7458C126.351 16.7181 126.075 16.7043 125.725 16.7043C125.633 16.7043 125.523 16.6997 125.394 16.6905C125.266 16.6905 125.132 16.6859 124.994 16.6767C124.865 16.6767 124.746 16.6721 124.636 16.6629C124.534 16.6537 124.461 16.6491 124.415 16.6491C124.212 16.7872 124.074 16.9115 124.001 17.022C123.927 17.1417 123.891 17.2983 123.891 17.4917C123.891 17.7035 123.941 17.8692 124.042 17.9889C124.143 18.1178 124.309 18.2099 124.539 18.2652C124.778 18.3204 125.1 18.3481 125.505 18.3481ZM125.27 12.9748C125.693 12.9748 125.992 12.8919 126.167 12.7261C126.351 12.5512 126.443 12.2657 126.443 11.8697C126.443 11.4738 126.351 11.1883 126.167 11.0133C125.992 10.8384 125.693 10.7509 125.27 10.7509C124.865 10.7509 124.571 10.8384 124.387 11.0133C124.212 11.1883 124.125 11.4738 124.125 11.8697C124.125 12.2657 124.212 12.5512 124.387 12.7261C124.571 12.8919 124.865 12.9748 125.27 12.9748Z" fill="#00458E"/>
<path d="M131.716 16.7043C130.999 16.7043 130.456 16.5247 130.088 16.1656C129.729 15.7973 129.55 15.2447 129.55 14.508C129.55 13.9923 129.642 13.5918 129.826 13.3063C130.01 13.0116 130.281 12.7998 130.64 12.6709C131.008 12.5328 131.454 12.4499 131.978 12.4223L133.661 12.2703V11.8559C133.661 11.5244 133.578 11.2942 133.413 11.1653C133.247 11.0271 133.004 10.9581 132.682 10.9581C132.424 10.9581 132.125 10.9673 131.785 10.9857C131.454 11.0041 131.123 11.0271 130.792 11.0548C130.47 11.0824 130.189 11.11 129.95 11.1376L129.895 9.83922C130.134 9.78397 130.419 9.72872 130.75 9.67346C131.09 9.609 131.445 9.55835 131.813 9.52152C132.18 9.48468 132.521 9.46627 132.833 9.46627C133.422 9.46627 133.914 9.53994 134.31 9.68728C134.705 9.83462 135.004 10.0786 135.206 10.4194C135.409 10.7509 135.51 11.2021 135.51 11.773V14.9362C135.528 15.0652 135.597 15.1665 135.717 15.2401C135.836 15.3046 135.974 15.3506 136.131 15.3783L136.089 16.6491C135.869 16.6583 135.653 16.6629 135.441 16.6629C135.229 16.6629 135.05 16.6491 134.903 16.6214C134.691 16.5938 134.507 16.5386 134.351 16.4557C134.204 16.3728 134.084 16.2853 133.992 16.1932C133.845 16.2577 133.647 16.3314 133.399 16.4142C133.151 16.4971 132.879 16.5662 132.585 16.6214C132.3 16.6767 132.01 16.7043 131.716 16.7043ZM132.157 15.3368C132.332 15.3368 132.516 15.3184 132.709 15.2816C132.902 15.2447 133.082 15.2033 133.247 15.1572C133.422 15.102 133.56 15.0513 133.661 15.0053V13.4168L132.254 13.5411C131.95 13.5687 131.73 13.6608 131.592 13.8174C131.463 13.9647 131.399 14.1765 131.399 14.4528C131.399 14.729 131.458 14.9454 131.578 15.102C131.707 15.2585 131.9 15.3368 132.157 15.3368Z" fill="#00458E"/>
<path d="M138.013 16.5524L136.689 9.61821H138.648L139.545 14.9915H139.752L140.869 9.77015H142.635L143.794 14.9915H144.001L144.898 9.61821H146.733L145.449 16.5524H142.676L141.697 12.0907L140.717 16.5524H138.013Z" fill="#00458E"/>
<path d="M149.622 16.7043C148.904 16.7043 148.362 16.5247 147.994 16.1656C147.635 15.7973 147.456 15.2447 147.456 14.508C147.456 13.9923 147.548 13.5918 147.732 13.3063C147.916 13.0116 148.187 12.7998 148.546 12.6709C148.914 12.5328 149.36 12.4499 149.884 12.4223L151.567 12.2703V11.8559C151.567 11.5244 151.484 11.2942 151.319 11.1653C151.153 11.0271 150.909 10.9581 150.587 10.9581C150.33 10.9581 150.031 10.9673 149.691 10.9857C149.36 11.0041 149.028 11.0271 148.697 11.0548C148.375 11.0824 148.095 11.11 147.856 11.1376L147.801 9.83922C148.04 9.78397 148.325 9.72872 148.656 9.67346C148.996 9.609 149.35 9.55835 149.718 9.52152C150.086 9.48468 150.427 9.46627 150.739 9.46627C151.328 9.46627 151.82 9.53994 152.215 9.68728C152.611 9.83462 152.91 10.0786 153.112 10.4194C153.315 10.7509 153.416 11.2021 153.416 11.773V14.9362C153.434 15.0652 153.503 15.1665 153.623 15.2401C153.742 15.3046 153.88 15.3506 154.037 15.3783L153.995 16.6491C153.774 16.6583 153.558 16.6629 153.347 16.6629C153.135 16.6629 152.956 16.6491 152.809 16.6214C152.597 16.5938 152.413 16.5386 152.257 16.4557C152.11 16.3728 151.99 16.2853 151.898 16.1932C151.751 16.2577 151.553 16.3314 151.305 16.4142C151.057 16.4971 150.785 16.5662 150.491 16.6214C150.206 16.6767 149.916 16.7043 149.622 16.7043ZM150.063 15.3368C150.238 15.3368 150.422 15.3184 150.615 15.2816C150.808 15.2447 150.988 15.2033 151.153 15.1572C151.328 15.102 151.466 15.0513 151.567 15.0053V13.4168L150.16 13.5411C149.856 13.5687 149.636 13.6608 149.498 13.8174C149.369 13.9647 149.304 14.1765 149.304 14.4528C149.304 14.729 149.364 14.9454 149.484 15.102C149.613 15.2585 149.806 15.3368 150.063 15.3368Z" fill="#00458E"/>
<path d="M157.533 16.7043C157.23 16.7043 156.903 16.6859 156.554 16.6491C156.213 16.6214 155.891 16.5846 155.588 16.5386C155.294 16.4925 155.041 16.4465 154.829 16.4004L154.884 15.0329C155.123 15.0606 155.39 15.0928 155.684 15.1296C155.988 15.1665 156.282 15.1987 156.567 15.2263C156.862 15.2447 157.101 15.2539 157.285 15.2539C157.561 15.2539 157.786 15.2309 157.961 15.1849C158.145 15.1388 158.283 15.0652 158.375 14.9639C158.467 14.8534 158.513 14.6968 158.513 14.4942C158.513 14.3377 158.471 14.218 158.389 14.1351C158.315 14.0522 158.168 13.9831 157.947 13.9279C157.736 13.8634 157.423 13.799 157.009 13.7345C156.494 13.6608 156.066 13.5549 155.726 13.4168C155.395 13.2787 155.151 13.0761 154.995 12.809C154.838 12.5328 154.76 12.1598 154.76 11.6902C154.76 11.1192 154.884 10.6726 155.133 10.3503C155.381 10.028 155.712 9.80238 156.126 9.67346C156.54 9.53533 156.99 9.46627 157.478 9.46627C157.8 9.46627 158.131 9.48468 158.471 9.52152C158.812 9.54915 159.134 9.58598 159.437 9.63202C159.741 9.67807 159.994 9.72411 160.196 9.77015L160.141 11.1653C159.911 11.1284 159.644 11.0962 159.34 11.0686C159.037 11.0317 158.733 11.0041 158.43 10.9857C158.136 10.9673 157.887 10.9581 157.685 10.9581C157.473 10.9581 157.285 10.9811 157.119 11.0271C156.954 11.064 156.825 11.1284 156.733 11.2205C156.65 11.3126 156.609 11.4507 156.609 11.6349C156.609 11.7638 156.646 11.8697 156.719 11.9526C156.793 12.0355 156.931 12.1092 157.133 12.1736C157.345 12.2289 157.648 12.2841 158.044 12.3394C158.614 12.4223 159.069 12.5374 159.409 12.6847C159.75 12.832 159.994 13.0438 160.141 13.3201C160.297 13.5964 160.375 13.9693 160.375 14.439C160.375 15.277 160.127 15.8663 159.63 16.207C159.143 16.5386 158.444 16.7043 157.533 16.7043Z" fill="#00458E"/>
<path d="M163.391 16.7043C162.674 16.7043 162.131 16.5247 161.763 16.1656C161.405 15.7973 161.225 15.2447 161.225 14.508C161.225 13.9923 161.317 13.5918 161.501 13.3063C161.685 13.0116 161.956 12.7998 162.315 12.6709C162.683 12.5328 163.129 12.4499 163.653 12.4223L165.337 12.2703V11.8559C165.337 11.5244 165.254 11.2942 165.088 11.1653C164.923 11.0271 164.679 10.9581 164.357 10.9581C164.099 10.9581 163.801 10.9673 163.46 10.9857C163.129 11.0041 162.798 11.0271 162.467 11.0548C162.145 11.0824 161.864 11.11 161.625 11.1376L161.57 9.83922C161.809 9.78397 162.094 9.72872 162.426 9.67346C162.766 9.609 163.12 9.55835 163.488 9.52152C163.856 9.48468 164.196 9.46627 164.509 9.46627C165.097 9.46627 165.59 9.53994 165.985 9.68728C166.381 9.83462 166.679 10.0786 166.882 10.4194C167.084 10.7509 167.185 11.2021 167.185 11.773V14.9362C167.204 15.0652 167.273 15.1665 167.392 15.2401C167.512 15.3046 167.65 15.3506 167.806 15.3783L167.765 16.6491C167.544 16.6583 167.328 16.6629 167.116 16.6629C166.905 16.6629 166.725 16.6491 166.578 16.6214C166.367 16.5938 166.183 16.5386 166.026 16.4557C165.879 16.3728 165.76 16.2853 165.668 16.1932C165.521 16.2577 165.323 16.3314 165.074 16.4142C164.826 16.4971 164.555 16.5662 164.26 16.6214C163.975 16.6767 163.686 16.7043 163.391 16.7043ZM163.833 15.3368C164.008 15.3368 164.191 15.3184 164.385 15.2816C164.578 15.2447 164.757 15.2033 164.923 15.1572C165.097 15.102 165.235 15.0513 165.337 15.0053V13.4168L163.929 13.5411C163.626 13.5687 163.405 13.6608 163.267 13.8174C163.138 13.9647 163.074 14.1765 163.074 14.4528C163.074 14.729 163.134 14.9454 163.253 15.102C163.382 15.2585 163.575 15.3368 163.833 15.3368Z" fill="#00458E"/>
<path d="M168.806 16.5524V9.61821H170.64V10.0602C170.788 9.96814 170.967 9.88066 171.179 9.79778C171.39 9.70569 171.611 9.62742 171.841 9.56296C172.08 9.4985 172.31 9.46627 172.531 9.46627C173.174 9.46627 173.671 9.58138 174.021 9.81159C174.379 10.0326 174.632 10.401 174.779 10.9166C174.927 11.4231 175 12.1046 175 12.961V16.5524H173.151V13.0577C173.151 12.5788 173.124 12.1966 173.069 11.9112C173.013 11.6165 172.908 11.4047 172.751 11.2758C172.595 11.1469 172.365 11.0824 172.062 11.0824C171.896 11.0824 171.721 11.1008 171.537 11.1376C171.362 11.1653 171.192 11.2067 171.027 11.262C170.87 11.3172 170.742 11.3725 170.64 11.4277V16.5524H168.806Z" fill="#00458E"/>
<path d="M55.1083 32.0921V22.6577H58.654C59.4358 22.6577 60.0843 22.7682 60.5993 22.9893C61.1144 23.2011 61.5007 23.5464 61.7583 24.0252C62.025 24.5041 62.1584 25.1441 62.1584 25.9452C62.1584 26.7464 62.025 27.4002 61.7583 27.9067C61.5007 28.404 61.1144 28.7723 60.5993 29.0117C60.0843 29.242 59.4358 29.3571 58.654 29.3571H57.0123V32.0921H55.1083ZM57.0123 27.7962H58.5989C59.1783 27.7962 59.5922 27.6443 59.8405 27.3404C60.0889 27.0273 60.213 26.5668 60.213 25.9591C60.213 25.3329 60.0889 24.8862 59.8405 24.6192C59.5922 24.3521 59.1783 24.2186 58.5989 24.2186H57.0123V27.7962Z" fill="#00458E"/>
<path d="M66.0712 32.244C65.3078 32.244 64.7007 32.1151 64.25 31.8572C63.8085 31.5994 63.4912 31.208 63.2981 30.6831C63.1049 30.1582 63.0083 29.4998 63.0083 28.7079C63.0083 27.8514 63.1279 27.1516 63.3671 26.6083C63.6154 26.065 63.9741 25.6644 64.4432 25.4065C64.9123 25.1395 65.4917 25.006 66.1815 25.006C67.2025 25.006 67.9705 25.2638 68.4855 25.7795C69.0098 26.2952 69.2719 27.1101 69.2719 28.2244L69.1892 29.2466H64.8571C64.8663 29.7623 64.972 30.149 65.1744 30.4069C65.3767 30.6647 65.7263 30.7936 66.2229 30.7936C66.5081 30.7936 66.8208 30.789 67.1611 30.7798C67.5014 30.7614 67.8371 30.743 68.1682 30.7246C68.5085 30.7062 68.7983 30.6877 69.0374 30.6693L69.0788 31.9539C68.8489 31.9908 68.5591 32.0322 68.2096 32.0782C67.8601 32.1243 67.4968 32.1611 67.1197 32.1888C66.7518 32.2256 66.4023 32.244 66.0712 32.244ZM64.8571 28.0725H67.437C67.437 27.4463 67.3358 27.0089 67.1335 26.7602C66.9403 26.5116 66.623 26.3873 66.1815 26.3873C65.7492 26.3873 65.4181 26.5162 65.1882 26.774C64.9674 27.0319 64.8571 27.4647 64.8571 28.0725Z" fill="#00458E"/>
<path d="M70.4921 32.0921V25.1579H72.327V25.5999C72.4742 25.5078 72.6535 25.4204 72.8651 25.3375C73.0766 25.2454 73.2974 25.1671 73.5273 25.1027C73.7664 25.0382 73.9964 25.006 74.2171 25.006C74.861 25.006 75.3576 25.1211 75.7072 25.3513C76.0659 25.5723 76.3188 25.9406 76.466 26.4563C76.6131 26.9628 76.6867 27.6443 76.6867 28.5007V32.0921H74.838V28.5974C74.838 28.1185 74.8104 27.7363 74.7552 27.4509C74.7 27.1562 74.5942 26.9444 74.4379 26.8155C74.2815 26.6866 74.0516 26.6221 73.748 26.6221C73.5825 26.6221 73.4077 26.6405 73.2238 26.6773C73.049 26.705 72.8789 26.7464 72.7133 26.8017C72.557 26.8569 72.4282 26.9122 72.327 26.9674V32.0921H70.4921Z" fill="#00458E"/>
<path d="M79.8148 35.0066L80.6978 32.0921H79.2216L77.5798 25.1579H79.4975L80.7254 30.5312H81.0841L82.312 25.1579H84.1607L81.7739 35.0066H79.8148Z" fill="#00458E"/>
<path d="M87.9246 32.244C87.1612 32.244 86.5541 32.1151 86.1034 31.8572C85.662 31.5994 85.3446 31.208 85.1515 30.6831C84.9583 30.1582 84.8618 29.4998 84.8618 28.7079C84.8618 27.8514 84.9813 27.1516 85.2205 26.6083C85.4688 26.065 85.8275 25.6644 86.2966 25.4065C86.7657 25.1395 87.3451 25.006 88.035 25.006C89.0559 25.006 89.8239 25.2638 90.339 25.7795C90.8632 26.2952 91.1254 27.1101 91.1254 28.2244L91.0426 29.2466H86.7105C86.7197 29.7623 86.8255 30.149 87.0278 30.4069C87.2302 30.6647 87.5797 30.7936 88.0763 30.7936C88.3615 30.7936 88.6742 30.789 89.0145 30.7798C89.3548 30.7614 89.6905 30.743 90.0217 30.7246C90.362 30.7062 90.6517 30.6877 90.8908 30.6693L90.9322 31.9539C90.7023 31.9908 90.4126 32.0322 90.063 32.0782C89.7135 32.1243 89.3502 32.1611 88.9731 32.1888C88.6052 32.2256 88.2557 32.244 87.9246 32.244ZM86.7105 28.0725H89.2904C89.2904 27.4463 89.1893 27.0089 88.9869 26.7602C88.7938 26.5116 88.4764 26.3873 88.035 26.3873C87.6027 26.3873 87.2716 26.5162 87.0416 26.774C86.8209 27.0319 86.7105 27.4647 86.7105 28.0725Z" fill="#00458E"/>
<path d="M92.4007 32.0921V22.3262H94.2356V32.0921H92.4007Z" fill="#00458E"/>
<path d="M98.6088 32.244C97.8454 32.244 97.2383 32.1151 96.7876 31.8572C96.3462 31.5994 96.0288 31.208 95.8357 30.6831C95.6425 30.1582 95.546 29.4998 95.546 28.7079C95.546 27.8514 95.6655 27.1516 95.9047 26.6083C96.153 26.065 96.5117 25.6644 96.9808 25.4065C97.4499 25.1395 98.0293 25.006 98.7192 25.006C99.7401 25.006 100.508 25.2638 101.023 25.7795C101.547 26.2952 101.81 27.1101 101.81 28.2244L101.727 29.2466H97.3947C97.4039 29.7623 97.5097 30.149 97.712 30.4069C97.9144 30.6647 98.2639 30.7936 98.7605 30.7936C99.0457 30.7936 99.3584 30.789 99.6987 30.7798C100.039 30.7614 100.375 30.743 100.706 30.7246C101.046 30.7062 101.336 30.6877 101.575 30.6693L101.616 31.9539C101.386 31.9908 101.097 32.0322 100.747 32.0782C100.398 32.1243 100.034 32.1611 99.6573 32.1888C99.2894 32.2256 98.9399 32.244 98.6088 32.244ZM97.3947 28.0725H99.9746C99.9746 27.4463 99.8735 27.0089 99.6711 26.7602C99.478 26.5116 99.1606 26.3873 98.7192 26.3873C98.2869 26.3873 97.9557 26.5162 97.7258 26.774C97.5051 27.0319 97.3947 27.4647 97.3947 28.0725Z" fill="#00458E"/>
<path d="M103.03 32.0921V25.1579H104.865V25.5999C105.012 25.5078 105.191 25.4204 105.403 25.3375C105.614 25.2454 105.835 25.1671 106.065 25.1027C106.304 25.0382 106.534 25.006 106.755 25.006C107.399 25.006 107.895 25.1211 108.245 25.3513C108.603 25.5723 108.856 25.9406 109.004 26.4563C109.151 26.9628 109.224 27.6443 109.224 28.5007V32.0921H107.376V28.5974C107.376 28.1185 107.348 27.7363 107.293 27.4509C107.238 27.1562 107.132 26.9444 106.975 26.8155C106.819 26.6866 106.589 26.6221 106.286 26.6221C106.12 26.6221 105.945 26.6405 105.761 26.6773C105.587 26.705 105.416 26.7464 105.251 26.8017C105.095 26.8569 104.966 26.9122 104.865 26.9674V32.0921H103.03Z" fill="#00458E"/>
<path d="M113.705 35.2553C112.969 35.2553 112.352 35.2 111.856 35.0895C111.368 34.979 111 34.7764 110.752 34.4817C110.504 34.1963 110.38 33.7819 110.38 33.2385C110.38 32.9991 110.412 32.7827 110.476 32.5893C110.55 32.4052 110.66 32.2302 110.807 32.0644C110.964 31.8987 111.157 31.7283 111.387 31.5534C111.258 31.4613 111.152 31.3277 111.069 31.1528C110.996 30.9686 110.959 30.7706 110.959 30.5588C110.959 30.4483 111.023 30.2872 111.152 30.0754C111.29 29.8543 111.423 29.661 111.552 29.4952C111.368 29.4123 111.194 29.2926 111.028 29.1361C110.862 28.9703 110.724 28.7493 110.614 28.473C110.513 28.1968 110.462 27.8422 110.462 27.4094C110.462 26.5346 110.711 25.9176 111.207 25.5585C111.713 25.1901 112.431 25.006 113.36 25.006C113.599 25.006 113.856 25.0244 114.132 25.0612C114.408 25.098 114.629 25.1349 114.794 25.1717L117.043 25.1303V26.3735L115.995 26.3596C116.078 26.4701 116.151 26.6129 116.215 26.7878C116.289 26.9536 116.326 27.1608 116.326 27.4094C116.326 28.0448 116.215 28.5375 115.995 28.8874C115.783 29.2374 115.461 29.4814 115.029 29.6195C114.597 29.7484 114.049 29.8129 113.387 29.8129C113.314 29.8129 113.212 29.8083 113.084 29.7991C112.955 29.7807 112.849 29.7669 112.766 29.7577C112.73 29.8497 112.693 29.9556 112.656 30.0754C112.619 30.1859 112.601 30.2641 112.601 30.3102C112.601 30.4299 112.638 30.522 112.711 30.5864C112.794 30.6509 112.955 30.6969 113.194 30.7246C113.442 30.743 113.815 30.7522 114.312 30.7522C114.965 30.7522 115.484 30.812 115.871 30.9318C116.266 31.0515 116.547 31.2633 116.712 31.5672C116.878 31.8711 116.96 32.2993 116.96 32.8518C116.96 33.6714 116.671 34.2745 116.091 34.6613C115.521 35.0573 114.725 35.2553 113.705 35.2553ZM113.608 33.8878C114.178 33.8878 114.587 33.8187 114.836 33.6806C115.093 33.5516 115.222 33.3352 115.222 33.0313C115.222 32.7919 115.176 32.617 115.084 32.5065C115.001 32.3959 114.859 32.3223 114.656 32.2854C114.454 32.2578 114.178 32.244 113.829 32.244C113.737 32.244 113.626 32.2394 113.498 32.2302C113.369 32.2302 113.235 32.2256 113.097 32.2164C112.969 32.2164 112.849 32.2118 112.739 32.2026C112.638 32.1934 112.564 32.1888 112.518 32.1888C112.316 32.3269 112.178 32.4512 112.104 32.5617C112.031 32.6814 111.994 32.838 111.994 33.0313C111.994 33.2431 112.044 33.4089 112.146 33.5286C112.247 33.6575 112.412 33.7496 112.642 33.8049C112.881 33.8601 113.203 33.8878 113.608 33.8878ZM113.373 28.5145C113.796 28.5145 114.095 28.4316 114.27 28.2658C114.454 28.0909 114.546 27.8054 114.546 27.4094C114.546 27.0135 114.454 26.728 114.27 26.553C114.095 26.3781 113.796 26.2906 113.373 26.2906C112.969 26.2906 112.674 26.3781 112.49 26.553C112.316 26.728 112.228 27.0135 112.228 27.4094C112.228 27.8054 112.316 28.0909 112.49 28.2658C112.674 28.4316 112.969 28.5145 113.373 28.5145Z" fill="#00458E"/>
<path d="M121.061 35.2553C120.325 35.2553 119.709 35.2 119.212 35.0895C118.725 34.979 118.357 34.7764 118.108 34.4817C117.86 34.1963 117.736 33.7819 117.736 33.2385C117.736 32.9991 117.768 32.7827 117.832 32.5893C117.906 32.4052 118.016 32.2302 118.164 32.0644C118.32 31.8987 118.513 31.7283 118.743 31.5534C118.614 31.4613 118.508 31.3277 118.426 31.1528C118.352 30.9686 118.315 30.7706 118.315 30.5588C118.315 30.4483 118.38 30.2872 118.508 30.0754C118.646 29.8543 118.78 29.661 118.909 29.4952C118.725 29.4123 118.55 29.2926 118.384 29.1361C118.219 28.9703 118.081 28.7493 117.97 28.473C117.869 28.1968 117.819 27.8422 117.819 27.4094C117.819 26.5346 118.067 25.9176 118.564 25.5585C119.07 25.1901 119.787 25.006 120.716 25.006C120.955 25.006 121.213 25.0244 121.489 25.0612C121.764 25.098 121.985 25.1349 122.151 25.1717L124.4 25.1303V26.3735L123.351 26.3596C123.434 26.4701 123.507 26.6129 123.572 26.7878C123.645 26.9536 123.682 27.1608 123.682 27.4094C123.682 28.0448 123.572 28.5375 123.351 28.8874C123.14 29.2374 122.818 29.4814 122.385 29.6195C121.953 29.7484 121.406 29.8129 120.744 29.8129C120.67 29.8129 120.569 29.8083 120.44 29.7991C120.311 29.7807 120.205 29.7669 120.123 29.7577C120.086 29.8497 120.049 29.9556 120.012 30.0754C119.976 30.1859 119.957 30.2641 119.957 30.3102C119.957 30.4299 119.994 30.522 120.067 30.5864C120.15 30.6509 120.311 30.6969 120.55 30.7246C120.799 30.743 121.171 30.7522 121.668 30.7522C122.321 30.7522 122.841 30.812 123.227 30.9318C123.622 31.0515 123.903 31.2633 124.068 31.5672C124.234 31.8711 124.317 32.2993 124.317 32.8518C124.317 33.6714 124.027 34.2745 123.448 34.6613C122.877 35.0573 122.082 35.2553 121.061 35.2553ZM120.964 33.8878C121.535 33.8878 121.944 33.8187 122.192 33.6806C122.45 33.5516 122.578 33.3352 122.578 33.0313C122.578 32.7919 122.532 32.617 122.44 32.5065C122.358 32.3959 122.215 32.3223 122.013 32.2854C121.81 32.2578 121.535 32.244 121.185 32.244C121.093 32.244 120.983 32.2394 120.854 32.2302C120.725 32.2302 120.592 32.2256 120.454 32.2164C120.325 32.2164 120.205 32.2118 120.095 32.2026C119.994 32.1934 119.92 32.1888 119.874 32.1888C119.672 32.3269 119.534 32.4512 119.46 32.5617C119.387 32.6814 119.35 32.838 119.35 33.0313C119.35 33.2431 119.401 33.4089 119.502 33.5286C119.603 33.6575 119.769 33.7496 119.999 33.8049C120.238 33.8601 120.56 33.8878 120.964 33.8878ZM120.73 28.5145C121.153 28.5145 121.452 28.4316 121.627 28.2658C121.81 28.0909 121.902 27.8054 121.902 27.4094C121.902 27.0135 121.81 26.728 121.627 26.553C121.452 26.3781 121.153 26.2906 120.73 26.2906C120.325 26.2906 120.031 26.3781 119.847 26.553C119.672 26.728 119.585 27.0135 119.585 27.4094C119.585 27.8054 119.672 28.0909 119.847 28.2658C120.031 28.4316 120.325 28.5145 120.73 28.5145Z" fill="#00458E"/>
<path d="M127.175 32.244C126.458 32.244 125.915 32.0644 125.548 31.7053C125.189 31.3369 125.009 30.7844 125.009 30.0477C125.009 29.532 125.101 29.1315 125.285 28.846C125.469 28.5513 125.741 28.3395 126.099 28.2106C126.467 28.0725 126.913 27.9896 127.438 27.962L129.121 27.81V27.3956C129.121 27.0641 129.038 26.8339 128.872 26.705C128.707 26.5668 128.463 26.4978 128.141 26.4978C127.884 26.4978 127.585 26.507 127.244 26.5254C126.913 26.5438 126.582 26.5668 126.251 26.5945C125.929 26.6221 125.649 26.6497 125.41 26.6773L125.354 25.3789C125.593 25.3237 125.879 25.2684 126.21 25.2132C126.55 25.1487 126.904 25.098 127.272 25.0612C127.64 25.0244 127.98 25.006 128.293 25.006C128.882 25.006 129.374 25.0796 129.769 25.227C130.165 25.3743 130.464 25.6183 130.666 25.9591C130.868 26.2906 130.97 26.7418 130.97 27.3127V30.4759C130.988 30.6049 131.057 30.7062 131.176 30.7798C131.296 30.8443 131.434 30.8903 131.59 30.918L131.549 32.1888C131.328 32.198 131.112 32.2026 130.901 32.2026C130.689 32.2026 130.51 32.1888 130.362 32.1611C130.151 32.1335 129.967 32.0782 129.811 31.9954C129.663 31.9125 129.544 31.825 129.452 31.7329C129.305 31.7974 129.107 31.8711 128.859 31.9539C128.61 32.0368 128.339 32.1059 128.045 32.1611C127.76 32.2164 127.47 32.244 127.175 32.244ZM127.617 30.8765C127.792 30.8765 127.976 30.8581 128.169 30.8213C128.362 30.7844 128.541 30.743 128.707 30.6969C128.882 30.6417 129.02 30.591 129.121 30.545V28.9565L127.714 29.0808C127.41 29.1084 127.189 29.2005 127.051 29.3571C126.923 29.5044 126.858 29.7162 126.858 29.9925C126.858 30.2687 126.918 30.4851 127.038 30.6417C127.166 30.7982 127.359 30.8765 127.617 30.8765Z" fill="#00458E"/>
<path d="M132.59 32.0921V25.1579H134.425V25.9729C134.581 25.8532 134.774 25.7288 135.004 25.5999C135.234 25.4618 135.482 25.3375 135.749 25.227C136.025 25.1073 136.287 25.029 136.536 24.9921V26.774C136.296 26.8109 136.043 26.8753 135.777 26.9674C135.51 27.0503 135.257 27.1424 135.018 27.2437C134.788 27.345 134.59 27.4371 134.425 27.5199V32.0921H132.59Z" fill="#00458E"/>
<path d="M139.301 32.244C138.584 32.244 138.041 32.0644 137.673 31.7053C137.315 31.3369 137.135 30.7844 137.135 30.0477C137.135 29.532 137.227 29.1315 137.411 28.846C137.595 28.5513 137.866 28.3395 138.225 28.2106C138.593 28.0725 139.039 27.9896 139.563 27.962L141.247 27.81V27.3956C141.247 27.0641 141.164 26.8339 140.998 26.705C140.833 26.5668 140.589 26.4978 140.267 26.4978C140.01 26.4978 139.711 26.507 139.37 26.5254C139.039 26.5438 138.708 26.5668 138.377 26.5945C138.055 26.6221 137.774 26.6497 137.535 26.6773L137.48 25.3789C137.719 25.3237 138.004 25.2684 138.336 25.2132C138.676 25.1487 139.03 25.098 139.398 25.0612C139.766 25.0244 140.106 25.006 140.419 25.006C141.007 25.006 141.5 25.0796 141.895 25.227C142.291 25.3743 142.589 25.6183 142.792 25.9591C142.994 26.2906 143.095 26.7418 143.095 27.3127V30.4759C143.114 30.6049 143.183 30.7062 143.302 30.7798C143.422 30.8443 143.56 30.8903 143.716 30.918L143.675 32.1888C143.454 32.198 143.238 32.2026 143.026 32.2026C142.815 32.2026 142.635 32.1888 142.488 32.1611C142.277 32.1335 142.093 32.0782 141.936 31.9954C141.789 31.9125 141.67 31.825 141.578 31.7329C141.431 31.7974 141.233 31.8711 140.984 31.9539C140.736 32.0368 140.465 32.1059 140.17 32.1611C139.885 32.2164 139.596 32.244 139.301 32.244ZM139.743 30.8765C139.918 30.8765 140.102 30.8581 140.295 30.8213C140.488 30.7844 140.667 30.743 140.833 30.6969C141.007 30.6417 141.145 30.591 141.247 30.545V28.9565L139.839 29.0808C139.536 29.1084 139.315 29.2005 139.177 29.3571C139.048 29.5044 138.984 29.7162 138.984 29.9925C138.984 30.2687 139.044 30.4851 139.163 30.6417C139.292 30.7982 139.485 30.8765 139.743 30.8765Z" fill="#00458E"/>
<path d="M58.1574 47.7837C57.8079 47.7837 57.4262 47.7607 57.0123 47.7146C56.5984 47.6778 56.1937 47.6318 55.7982 47.5765C55.4119 47.512 55.0808 47.4568 54.8048 47.4107L54.929 45.9051C55.2141 45.942 55.5452 45.9834 55.9223 46.0294C56.2994 46.0663 56.6719 46.0985 57.0399 46.1261C57.417 46.1538 57.7435 46.1676 58.0194 46.1676C58.5437 46.1676 58.9254 46.0663 59.1645 45.8637C59.4037 45.6519 59.5232 45.325 59.5232 44.883C59.5232 44.6435 59.4726 44.4548 59.3715 44.3166C59.2795 44.1693 59.1093 44.0542 58.861 43.9713C58.6127 43.8792 58.2677 43.7917 57.8263 43.7088C57.0904 43.5707 56.4926 43.4004 56.0327 43.1978C55.582 42.9952 55.2509 42.7097 55.0394 42.3414C54.837 41.973 54.7358 41.4803 54.7358 40.8634C54.7358 40.1451 54.8692 39.5833 55.1359 39.1782C55.4027 38.7638 55.7844 38.4691 56.281 38.2941C56.7777 38.1192 57.3618 38.0317 58.0332 38.0317C58.3367 38.0317 58.6816 38.0501 59.0679 38.0869C59.4634 38.1146 59.8497 38.1514 60.2268 38.1974C60.6131 38.2435 60.9397 38.2941 61.2064 38.3494L61.1236 39.8688C60.8477 39.832 60.5258 39.7997 60.1579 39.7721C59.7992 39.7353 59.4404 39.7031 59.0817 39.6754C58.7322 39.6478 58.4333 39.634 58.185 39.634C57.6607 39.634 57.2744 39.7169 57.0261 39.8826C56.7777 40.0484 56.6536 40.3154 56.6536 40.6838C56.6536 40.96 56.7087 41.1718 56.8191 41.3192C56.9295 41.4665 57.1134 41.5862 57.371 41.6783C57.6377 41.7704 58.001 41.8671 58.4609 41.9684C59.0036 42.0881 59.4634 42.217 59.8405 42.3552C60.2268 42.4933 60.535 42.659 60.7649 42.8524C61.004 43.0458 61.1788 43.2945 61.2892 43.5983C61.3995 43.9022 61.4547 44.2844 61.4547 44.7448C61.4547 45.4815 61.3214 46.0755 61.0546 46.5267C60.7971 46.9687 60.42 47.291 59.9233 47.4936C59.4358 47.687 58.8472 47.7837 58.1574 47.7837Z" fill="#00458E"/>
<path d="M62.6642 47.6318V40.6976H64.4991V47.6318H62.6642ZM62.6642 39.5926V38.0179H64.5129V39.5926H62.6642Z" fill="#00458E"/>
<path d="M68.5296 47.7837C68.2261 47.7837 67.8996 47.7653 67.5501 47.7284C67.2098 47.7008 66.8879 47.664 66.5843 47.6179C66.29 47.5719 66.0371 47.5259 65.8255 47.4798L65.8807 46.1123C66.1198 46.1399 66.3866 46.1722 66.6809 46.209C66.9844 46.2458 67.2788 46.2781 67.5639 46.3057C67.8582 46.3241 68.0973 46.3333 68.2813 46.3333C68.5572 46.3333 68.7826 46.3103 68.9573 46.2643C69.1413 46.2182 69.2792 46.1446 69.3712 46.0433C69.4632 45.9327 69.5092 45.7762 69.5092 45.5736C69.5092 45.4171 69.4678 45.2973 69.385 45.2145C69.3114 45.1316 69.1643 45.0625 68.9435 45.0073C68.732 44.9428 68.4193 44.8784 68.0054 44.8139C67.4903 44.7402 67.0626 44.6343 66.7223 44.4962C66.3912 44.3581 66.1474 44.1555 65.9911 43.8884C65.8347 43.6122 65.7565 43.2392 65.7565 42.7696C65.7565 42.1986 65.8807 41.752 66.129 41.4297C66.3774 41.1074 66.7085 40.8818 67.1224 40.7528C67.5363 40.6147 67.987 40.5457 68.4744 40.5457C68.7964 40.5457 69.1275 40.5641 69.4678 40.6009C69.8081 40.6285 70.13 40.6654 70.4335 40.7114C70.7371 40.7575 70.99 40.8035 71.1924 40.8495L71.1372 42.2447C70.9072 42.2078 70.6405 42.1756 70.337 42.148C70.0335 42.1111 69.7299 42.0835 69.4264 42.0651C69.1321 42.0467 68.8837 42.0375 68.6814 42.0375C68.4698 42.0375 68.2813 42.0605 68.1157 42.1065C67.9502 42.1434 67.8214 42.2078 67.7294 42.2999C67.6467 42.392 67.6053 42.5301 67.6053 42.7143C67.6053 42.8432 67.6421 42.9491 67.7156 43.032C67.7892 43.1149 67.9272 43.1886 68.1295 43.253C68.3411 43.3083 68.6446 43.3635 69.0401 43.4188C69.6104 43.5016 70.0656 43.6168 70.406 43.7641C70.7463 43.9114 70.99 44.1232 71.1372 44.3995C71.2935 44.6758 71.3717 45.0487 71.3717 45.5184C71.3717 46.3563 71.1234 46.9457 70.6267 47.2864C70.1392 47.6179 69.4402 47.7837 68.5296 47.7837Z" fill="#00458E"/>
<path d="M75.0086 47.7975C74.5027 47.7975 74.0934 47.7238 73.7807 47.5765C73.468 47.4292 73.2426 47.1759 73.1047 46.8168C72.9759 46.4484 72.9115 45.9374 72.9115 45.2835V42.2308H72.0975V40.6976H72.9115V38.8605H74.7465V40.6976H76.5124V42.2308H74.7465V44.8001C74.7465 45.1592 74.7603 45.4401 74.7879 45.6427C74.8246 45.8453 74.8982 45.988 75.0086 46.0709C75.119 46.1538 75.2891 46.1952 75.5191 46.1952C75.5834 46.1952 75.68 46.1906 75.8088 46.1814C75.9376 46.1722 76.0663 46.163 76.1951 46.1538C76.3239 46.1445 76.4296 46.1353 76.5124 46.1261L76.5676 47.6041C76.3469 47.641 76.0801 47.6824 75.7674 47.7284C75.4639 47.7745 75.2109 47.7975 75.0086 47.7975Z" fill="#00458E"/>
<path d="M80.3392 47.7837C79.5758 47.7837 78.9688 47.6548 78.5181 47.3969C78.0766 47.1391 77.7593 46.7477 77.5661 46.2228C77.373 45.6979 77.2764 45.0395 77.2764 44.2476C77.2764 43.3911 77.396 42.6913 77.6351 42.148C77.8834 41.6047 78.2421 41.2041 78.7112 40.9462C79.1803 40.6792 79.7598 40.5457 80.4496 40.5457C81.4705 40.5457 82.2385 40.8035 82.7536 41.3192C83.2779 41.8349 83.54 42.6498 83.54 43.7641L83.4572 44.7863H79.1251C79.1343 45.302 79.2401 45.6887 79.4424 45.9466C79.6448 46.2044 79.9943 46.3333 80.491 46.3333C80.7761 46.3333 81.0888 46.3287 81.4291 46.3195C81.7694 46.3011 82.1052 46.2827 82.4363 46.2643C82.7766 46.2458 83.0663 46.2274 83.3055 46.209L83.3468 47.4936C83.1169 47.5305 82.8272 47.5719 82.4777 47.6179C82.1282 47.664 81.7649 47.7008 81.3877 47.7284C81.0198 47.7653 80.6703 47.7837 80.3392 47.7837ZM79.1251 43.6122H81.7051C81.7051 42.986 81.6039 42.5485 81.4015 42.2999C81.2084 42.0513 80.8911 41.927 80.4496 41.927C80.0173 41.927 79.6862 42.0559 79.4562 42.3137C79.2355 42.5716 79.1251 43.0044 79.1251 43.6122Z" fill="#00458E"/>
<path d="M84.7601 47.6318V40.6976H86.5951V41.1396C86.8066 41.0107 87.0917 40.8818 87.4504 40.7528C87.8092 40.6147 88.1495 40.5457 88.4714 40.5457C88.8945 40.5457 89.2394 40.6055 89.5061 40.7252C89.7729 40.8357 89.9936 41.0015 90.1684 41.2225C90.3339 41.1212 90.5409 41.0199 90.7892 40.9186C91.0375 40.8173 91.3089 40.7298 91.6032 40.6562C91.8975 40.5825 92.1826 40.5457 92.4586 40.5457C93.1392 40.5457 93.6589 40.6654 94.0176 40.9048C94.3763 41.1442 94.6246 41.5218 94.7626 42.0375C94.9005 42.5439 94.9695 43.207 94.9695 44.0265V47.6318H93.1346V44.1923C93.1346 43.7134 93.107 43.3267 93.0518 43.032C93.0058 42.7281 92.9047 42.5071 92.7483 42.369C92.6011 42.2308 92.3758 42.1618 92.0723 42.1618C91.8055 42.1618 91.5434 42.1986 91.2859 42.2723C91.0283 42.346 90.826 42.4196 90.6788 42.4933C90.7248 42.6867 90.757 42.9353 90.7754 43.2392C90.803 43.5431 90.8168 43.8608 90.8168 44.1923V47.6318H88.9818V44.2199C88.9818 43.7319 88.9543 43.3359 88.8991 43.032C88.8531 42.7281 88.7519 42.5071 88.5955 42.369C88.4392 42.2308 88.2138 42.1618 87.9195 42.1618C87.662 42.1618 87.4091 42.1986 87.1607 42.2723C86.9216 42.346 86.733 42.4196 86.5951 42.4933V47.6318H84.7601Z" fill="#00458E"/>
<path d="M99.5427 47.6318V38.1974H105.806V39.7859H101.447V42.0789H104.979V43.6398H101.447V46.0433H105.806V47.6318H99.5427Z" fill="#00458E"/>
<path d="M107.086 47.6318V37.8659H108.921V47.6318H107.086Z" fill="#00458E"/>
<path d="M113.294 47.7837C112.531 47.7837 111.924 47.6548 111.473 47.3969C111.032 47.1391 110.715 46.7477 110.521 46.2228C110.328 45.6979 110.232 45.0395 110.232 44.2476C110.232 43.3911 110.351 42.6913 110.59 42.148C110.839 41.6047 111.197 41.2041 111.667 40.9462C112.136 40.6792 112.715 40.5457 113.405 40.5457C114.426 40.5457 115.194 40.8035 115.709 41.3192C116.233 41.8349 116.495 42.6498 116.495 43.7641L116.413 44.7863H112.08C112.09 45.302 112.195 45.6887 112.398 45.9466C112.6 46.2044 112.95 46.3333 113.446 46.3333C113.731 46.3333 114.044 46.3287 114.384 46.3195C114.725 46.3011 115.06 46.2827 115.392 46.2643C115.732 46.2458 116.022 46.2274 116.261 46.209L116.302 47.4936C116.072 47.5305 115.782 47.5719 115.433 47.6179C115.083 47.664 114.72 47.7008 114.343 47.7284C113.975 47.7653 113.626 47.7837 113.294 47.7837ZM112.08 43.6122H114.66C114.66 42.986 114.559 42.5485 114.357 42.2999C114.164 42.0513 113.846 41.927 113.405 41.927C112.973 41.927 112.641 42.0559 112.412 42.3137C112.191 42.5716 112.08 43.0044 112.08 43.6122Z" fill="#00458E"/>
<path d="M117.715 47.6318V37.8659H119.55V43.3083L120.364 43.2806L121.799 40.6976H123.717L121.965 43.9575L123.813 47.6318H121.882L120.392 44.883L119.55 44.9244V47.6318H117.715Z" fill="#00458E"/>
<path d="M127.15 47.7975C126.644 47.7975 126.234 47.7238 125.922 47.5765C125.609 47.4292 125.384 47.1759 125.246 46.8168C125.117 46.4484 125.053 45.9374 125.053 45.2835V42.2308H124.239V40.6976H125.053V38.8605H126.887V40.6976H128.653V42.2308H126.887V44.8001C126.887 45.1592 126.901 45.4401 126.929 45.6427C126.966 45.8453 127.039 45.988 127.15 46.0709C127.26 46.1538 127.43 46.1952 127.66 46.1952C127.724 46.1952 127.821 46.1906 127.95 46.1814C128.079 46.1722 128.207 46.163 128.336 46.1538C128.465 46.1445 128.571 46.1353 128.653 46.1261L128.709 47.6041C128.488 47.641 128.221 47.6824 127.908 47.7284C127.605 47.7745 127.352 47.7975 127.15 47.7975Z" fill="#00458E"/>
<path d="M129.68 47.6318V40.6976H131.514V41.5126C131.671 41.3929 131.864 41.2685 132.094 41.1396C132.324 41.0015 132.572 40.8772 132.839 40.7667C133.115 40.6469 133.377 40.5687 133.625 40.5318V42.3137C133.386 42.3506 133.133 42.415 132.867 42.5071C132.6 42.59 132.347 42.6821 132.108 42.7834C131.878 42.8847 131.68 42.9768 131.514 43.0596V47.6318H129.68Z" fill="#00458E"/>
<path d="M137.564 47.7837C136.782 47.7837 136.152 47.6548 135.674 47.3969C135.205 47.1391 134.864 46.7431 134.653 46.209C134.441 45.6657 134.335 44.9658 134.335 44.1094C134.335 43.2806 134.446 42.6084 134.667 42.0927C134.887 41.5678 135.237 41.1811 135.715 40.9324C136.193 40.6746 136.81 40.5457 137.564 40.5457C138.327 40.5457 138.943 40.6746 139.413 40.9324C139.891 41.1811 140.24 41.5678 140.461 42.0927C140.691 42.6084 140.806 43.2806 140.806 44.1094C140.806 44.9658 140.7 45.6657 140.489 46.209C140.277 46.7431 139.932 47.1391 139.454 47.3969C138.985 47.6548 138.355 47.7837 137.564 47.7837ZM137.564 46.2643C137.95 46.2643 138.24 46.1952 138.433 46.0571C138.626 45.9097 138.755 45.6795 138.819 45.3664C138.893 45.0441 138.93 44.6251 138.93 44.1094C138.93 43.6029 138.888 43.2024 138.805 42.9077C138.723 42.6038 138.585 42.3874 138.392 42.2585C138.198 42.1296 137.923 42.0651 137.564 42.0651C137.214 42.0651 136.938 42.1296 136.736 42.2585C136.543 42.3874 136.405 42.6038 136.322 42.9077C136.239 43.2024 136.198 43.6029 136.198 44.1094C136.198 44.6251 136.23 45.0441 136.295 45.3664C136.368 45.6795 136.501 45.9097 136.695 46.0571C136.888 46.1952 137.178 46.2643 137.564 46.2643Z" fill="#00458E"/>
<path d="M142.061 47.6318V40.6976H143.896V41.1396C144.043 41.0475 144.223 40.96 144.434 40.8772C144.646 40.7851 144.867 40.7068 145.097 40.6423C145.336 40.5779 145.566 40.5457 145.786 40.5457C146.43 40.5457 146.927 40.6608 147.276 40.891C147.635 41.112 147.888 41.4803 148.035 41.996C148.182 42.5025 148.256 43.1839 148.256 44.0404V47.6318H146.407V44.1371C146.407 43.6582 146.38 43.276 146.324 42.9906C146.269 42.6959 146.164 42.4841 146.007 42.3552C145.851 42.2262 145.621 42.1618 145.317 42.1618C145.152 42.1618 144.977 42.1802 144.793 42.217C144.618 42.2447 144.448 42.2861 144.283 42.3414C144.126 42.3966 143.997 42.4519 143.896 42.5071V47.6318H142.061Z" fill="#00458E"/>
<path d="M149.687 47.6318V40.6976H151.522V47.6318H149.687ZM149.687 39.5926V38.0179H151.536V39.5926H149.687Z" fill="#00458E"/>
<path d="M153.055 47.6318V37.8659H154.89V43.3083L155.704 43.2806L157.139 40.6976H159.057L157.305 43.9575L159.153 47.6318H157.222L155.732 44.883L154.89 44.9244V47.6318H153.055Z" fill="#00458E"/>
<path d="M23.8583 34.5109C23.8583 34.5109 24.5765 35.1767 24.4454 35.5541C24.1413 36.4191 22.7783 36.8228 21.8923 36.5817C20.4769 36.199 19.1872 34.5738 19.1977 33.1112C19.2187 30.9618 21.4153 29.2213 23.2397 28.0837C25.1165 26.9146 27.507 26.5948 29.7193 26.6315C32.1256 26.6734 34.6996 27.1295 36.718 28.4454C37.8399 29.1793 38.7678 30.3379 39.2029 31.6066C39.4493 32.3248 39.2029 33.887 39.2029 33.887C39.2029 33.887 41.1845 31.1557 41.8975 29.6354C42.752 27.8268 44.005 25.9185 43.7638 23.9369C43.6537 23.0299 43.0509 22.144 42.3117 21.604C39.9369 19.874 36.697 19.5752 33.7612 19.4808C30.7259 19.3812 27.6433 20.026 24.7967 21.085C22.857 21.8084 20.9592 22.8255 19.4598 24.2462C17.7665 25.8451 16.1467 27.7953 15.5752 30.0496C15.203 31.5122 15.2816 33.2265 15.9893 34.5581C16.6289 35.7638 17.8871 36.6393 19.1505 37.1478C20.3878 37.6459 21.8714 37.8713 23.14 37.4571C23.9788 37.1845 25.1322 36.6288 25.1636 35.7481C25.1951 34.4585 23.8583 34.5109 23.8583 34.5109Z" fill="#0093DD"/>
<path d="M23.1557 35.2764C23.1557 35.2764 22.9669 34.6998 23.1294 34.4901C23.3916 34.1546 23.9735 34.0654 24.3771 34.2122C24.9538 34.4324 25.4728 35.0877 25.4728 35.7011C25.4728 36.4927 24.7808 37.2581 24.0731 37.6198C22.5318 38.4009 20.524 38.1808 18.8883 37.6198C17.5043 37.1427 16.1465 36.1939 15.4178 34.9252C14.3588 33.0799 14.1125 30.6736 14.5895 28.6028C15.0771 26.4848 16.6498 24.7129 18.1649 23.1611C19.7953 21.4888 21.7664 20.0733 23.9158 19.1716C26.3797 18.1389 29.1268 17.861 31.7952 17.6671C34.0914 17.5045 36.4295 17.5517 38.689 17.9764C40.1045 18.2437 41.5409 18.6422 42.7834 19.3761C43.2709 19.6644 44.0468 20.5189 44.0468 20.5189C44.0468 20.5189 43.706 16.1572 43.0402 14.0917C42.4636 12.304 41.8555 10.3643 40.5029 9.0642C39.5435 8.14153 38.1752 7.68544 36.8751 7.40759C34.4059 6.87811 31.79 7.00916 29.3103 7.45477C26.4112 7.97902 23.6118 9.10615 21.0115 10.5006C18.579 11.8008 16.288 13.4416 14.3326 15.3866C12.7284 16.9803 11.2186 18.768 10.2907 20.8283C9.35753 22.9043 8.87527 25.2372 8.891 27.5124C8.90148 29.3367 9.27888 31.2135 10.081 32.8492C10.8306 34.38 12.0365 35.6958 13.3471 36.7863C14.4899 37.7351 15.8319 38.4743 17.2317 38.9566C18.5528 39.4075 19.984 39.6644 21.3785 39.5857C23.0089 39.4914 24.87 39.3655 26.1177 38.3066C26.8464 37.688 27.3706 36.6447 27.2972 35.6958C27.2448 35.03 26.7677 34.3695 26.1963 34.013C25.5724 33.6251 24.7232 33.3892 24.0154 33.5779C23.3601 33.7561 22.8096 34.1074 22.7258 34.6526C22.6838 34.9199 23.1609 35.2764 23.1557 35.2764Z" fill="#00458E"/>
<path d="M23.3757 35.7376C23.3757 35.7376 22.3692 35.5332 22.1071 35.161C21.7296 34.6157 21.7558 33.8503 22.1281 33.3051C22.7362 32.4034 24.0363 32.0574 25.1215 32.0155C26.9563 31.9421 29.2001 32.3405 30.3482 33.777C31.3023 34.9775 31.4963 36.9853 30.8043 38.3536C30.107 39.7271 28.3036 40.2619 26.8253 40.7022C24.5186 41.3942 21.9865 41.4309 19.6064 41.0535C17.1477 40.6655 14.7467 39.7114 12.6235 38.4113C10.2801 36.9801 8.13596 35.1085 6.52129 32.891C4.78604 30.5162 3.49112 27.7272 2.883 24.8543C2.33254 22.2488 2.40596 19.4808 2.94069 16.8701C3.54881 13.9133 4.72832 11.1034 6.40591 8.59225C7.68506 6.684 9.4046 5.0536 11.2762 3.72201C12.959 2.52674 14.8935 1.6827 16.8541 1.02215C18.4426 0.487424 20.1097 0.11521 21.7873 0.0260883C23.8685 -0.084003 25.976 0.162393 28.0101 0.613244C29.7139 0.9907 31.3966 1.55688 32.9432 2.37471C34.7623 3.33932 37.934 6.01296 37.934 6.01296C37.934 6.01296 31.5067 5.39959 28.3665 5.95529C24.6653 6.6106 21.0114 7.93694 17.803 9.88713C15.4125 11.3393 13.305 13.3157 11.5802 15.5228C10.2014 17.2895 9.10581 19.3183 8.4138 21.452C7.71132 23.6171 7.33908 25.9343 7.47538 28.2042C7.56975 29.7403 7.96817 31.2868 8.64969 32.6656C9.32596 34.0443 10.3168 35.292 11.4649 36.3038C12.9642 37.6144 14.6942 38.6315 16.571 39.2973C18.0808 39.832 19.7218 40.0207 21.3259 39.9997C22.6942 39.984 24.1569 39.9211 25.3783 39.2973C26.4006 38.773 27.4963 37.9866 27.8423 36.891C28.1254 35.9998 27.9524 34.8412 27.3443 34.1334C26.7414 33.4362 25.6457 33.2527 24.723 33.2527C24.0468 33.2527 23.2866 33.431 22.799 33.8975C22.5264 34.1597 22.3849 34.4952 22.4845 34.8569C22.5736 35.2658 23.3757 35.7429 23.3757 35.7376Z" fill="#28166F"/>
<path d="M12.2989 47.3548C12.2989 46.8935 12.257 46.4898 12.1678 46.1386C12.0787 45.7821 11.9109 45.4413 11.6593 45.1268C11.4076 44.807 11.0984 44.5658 10.7262 44.3981C10.3592 44.2303 9.97119 44.1464 9.55179 44.1464C8.66582 44.1464 7.96857 44.4557 7.45481 45.0796C6.9463 45.6929 6.69468 46.5213 6.69468 47.554C6.69468 48.5501 6.96732 49.3312 7.50729 49.8974C8.01581 50.4269 8.66586 50.689 9.46271 50.689C10.4168 50.689 11.156 50.2748 11.6855 49.4518C12.0892 48.8017 12.2989 48.1097 12.2989 47.3548ZM9.42598 51.0193C8.29885 51.0193 7.39194 50.6942 6.70518 50.0442C6.0289 49.3889 5.69336 48.5134 5.69336 47.4282C5.69336 46.3378 6.05512 45.457 6.77858 44.7808C7.47583 44.1307 8.36178 43.8057 9.44697 43.8057C10.5007 43.8057 11.3814 44.0783 12.0839 44.6287C12.886 45.2578 13.2897 46.1386 13.2897 47.2762C13.2897 48.3981 12.9332 49.305 12.215 49.997C11.502 50.6785 10.5688 51.0193 9.42598 51.0193Z" fill="#00458E"/>
<path d="M21.1949 43.9682H21.4098C21.5514 45.3155 21.6405 46.1386 21.6719 46.4427C21.782 47.4387 21.8659 48.2094 21.9341 48.7651C22.0075 49.3103 22.1071 50.0285 22.2277 50.904L21.7506 50.8725L21.2736 50.904C21.2107 50.2277 21.153 49.5829 21.1005 48.9643C21.0534 48.3509 20.9957 47.7428 20.9276 47.1399C20.8647 46.537 20.8069 46.0495 20.7545 45.6668C20.3404 46.4112 19.9839 47.0613 19.6799 47.6117C19.3286 48.2618 19.035 48.8227 18.7991 49.2946C18.5422 49.8136 18.3063 50.3116 18.0966 50.7834H17.9866L17.4308 49.6353C17.1897 49.1268 16.9695 48.6917 16.7808 48.3247C16.592 47.9525 16.3561 47.5016 16.0783 46.9774C15.8424 46.537 15.6065 46.0967 15.3758 45.6563C15.2605 46.6209 15.1504 47.6013 15.0403 48.5868C14.9302 49.5724 14.8778 50.3431 14.8778 50.8883L14.5213 50.8568L14.1543 50.8883C14.2958 50.0075 14.4846 48.7598 14.71 47.1452C14.9407 45.52 15.077 44.4558 15.1241 43.9525H15.3863C15.7375 44.6445 16.0258 45.2055 16.246 45.6458C16.5186 46.1648 16.8385 46.7625 17.2054 47.4387C17.6091 48.1779 17.9603 48.786 18.2487 49.2631C19.2238 47.4912 20.1936 45.7192 21.1687 43.9473L21.1949 43.9682ZM23.7008 50.9145V43.9787L24.1464 44.0102L24.592 43.9787V50.9145L24.1464 50.883L23.7008 50.9145ZM32.4504 43.9682V50.904H32.1464L31.6169 50.2854L27.2342 45.4361H27.1346V50.904L26.8515 50.8725L26.5684 50.904V43.9682H26.9616L31.7794 49.1897H31.879V43.9682L32.1621 43.9997L32.4504 43.9682ZM34.3535 50.9145V43.9787H37.955L37.9235 44.2828L37.955 44.5868C37.7506 44.5449 37.5881 44.5187 37.457 44.503C37.3259 44.482 37.1896 44.4715 37.0428 44.4715L36.031 44.4505H35.2499V46.9931H36.8226C36.9484 46.9931 37.1215 46.9879 37.3312 46.9722C37.5461 46.9512 37.6772 46.9407 37.7244 46.9407L37.6929 47.2028L37.7244 47.4859C37.6038 47.4859 37.436 47.4807 37.2158 47.4649C37.0009 47.444 36.8698 47.4335 36.8226 47.4335H35.2499V50.904L34.8043 50.8725L34.3535 50.9145Z" fill="#00458E"/>
<path d="M45.546 47.3548C45.546 46.8935 45.5041 46.4898 45.415 46.1386C45.3258 45.7821 45.1581 45.4413 44.9065 45.1268C44.6548 44.807 44.3455 44.5658 43.9733 44.3981C43.6063 44.2303 43.2184 44.1464 42.799 44.1464C41.913 44.1464 41.2158 44.4557 40.702 45.0796C40.1935 45.6929 39.9419 46.5213 39.9419 47.554C39.9419 48.5501 40.2144 49.3312 40.7544 49.8974C41.2629 50.4269 41.913 50.689 42.7098 50.689C43.664 50.689 44.4032 50.2748 44.9327 49.4518C45.3416 48.8017 45.546 48.1097 45.546 47.3548ZM42.6784 51.0193C41.5513 51.0193 40.6443 50.6942 39.9576 50.0442C39.2813 49.3889 38.9458 48.5134 38.9458 47.4282C38.9458 46.3378 39.3075 45.457 40.031 44.7808C40.7282 44.1307 41.6142 43.8057 42.6994 43.8057C43.7531 43.8057 44.6338 44.0783 45.3363 44.6287C46.1384 45.2578 46.5421 46.1386 46.5421 47.2762C46.5421 48.3981 46.1856 49.305 45.4674 49.997C44.7492 50.6785 43.8213 51.0193 42.6784 51.0193Z" fill="#00458E"/>
<path d="M4.97511 43.9681L2.67367 46.1804L1.8139 47.0507C2.63172 47.9838 3.45479 48.9118 4.27785 49.8397L5.10092 50.8515V50.9039L4.54522 50.8724L3.97903 50.9039C3.86894 50.7466 3.75362 50.5946 3.63304 50.4373C3.51771 50.2748 3.3971 50.1228 3.27653 49.976L1.06423 47.3915C1.03278 47.3652 0.985595 47.3495 0.933171 47.339C0.906958 47.3443 0.891222 47.3548 0.891222 47.36V50.8986L0.445627 50.8672L0 50.8986V43.9629L0.445627 43.9943L0.891222 43.9629V47.0979C0.896464 47.1241 0.92791 47.1293 0.980335 47.1188C1.04324 47.1031 1.10092 47.0769 1.15334 47.035C1.20577 46.9878 1.32111 46.8829 1.48887 46.7204C1.55178 46.6575 1.61468 46.5998 1.68284 46.5369L4.17825 43.9629L4.58192 43.9943L4.97511 43.9681Z" fill="#00458E"/>
</svg>
