<svg width="23" height="16" viewBox="0 0 23 16" fill="none" xmlns="http://www.w3.org/2000/svg">
<path id="Icon" d="M8 1V15M8 1H2.55556C2.143 1 1.74733 1.16389 1.45561 1.45561C1.16389 1.74733 1 2.143 1 2.55556V13.4444C1 13.857 1.16389 14.2527 1.45561 14.5444C1.74733 14.8361 2.143 15 2.55556 15H8M8 1C8 1 13.2443 1 14.6111 1M8 15H14.6111M14.6111 1C18.256 1 19.6667 1 19.6667 1C20.0792 1 20.4749 1.16389 20.7666 1.45561C21.0583 1.74733 21.2222 2.143 21.2222 2.55556V13.4444C21.2222 13.857 21.0583 14.2527 20.7666 14.5444C20.4749 14.8361 20.0792 15 19.6667 15H14.6111M14.6111 1C14.6111 6.46734 14.6111 15 14.6111 15" stroke="#304E6B" stroke-width="2" stroke-linecap="round" stroke-linejoin="round"/>
</svg>
